<?xml version="1.0" standalone="no"?><!DOCTYPE svg PUBLIC "-//W3C//DTD SVG 1.1//EN" "http://www.w3.org/Graphics/SVG/1.1/DTD/svg11.dtd" ><svg version="1.1" xmlns="http://www.w3.org/2000/svg"><defs><font horiz-adv-x="0" id="font"><font-face ascent="730" bbox="-182 -219 1486 941" cap-height="700" descent="-180" font-family="Web use ONLY | Copyright (C) Emtype Foundry" font-stretch="normal" font-weight="400" units-per-em="1000" x-height="528" /><missing-glyph d="M778 341Q778 272 751.5 208Q725 144 675 94Q624 44 560 18Q496 -8 426 -8Q357 -8 293 18.5Q229 45 180 94Q131 143 104 207Q77 271 77 341Q77 410 104 474.5Q131 539 180 588Q229 637 293 663.5Q357 690 426 690Q496 690 561 663.5Q626 637 675 588Q724 539 751 474Q778 409 778 341ZM426 31Q488 31 545.5 54.5Q603 78 647 122Q691 167 715 224Q739 281 739 341Q739 402 715 459Q691 516 647 560Q604 604 546 628Q488 652 426 652Q364 652 308 628.5Q252 605 208 560Q163 516 139.5 459.5Q116 403 116 341Q116 279 139.5 222.5Q163 166 208 122Q253 78 309 54.5Q365 31 426 31ZM583 213 556 186 428 314 300 187 273 214 401 341 273 470 300 497 428 368 557 497 584 470 455 341Z" horiz-adv-x="869" /><glyph d="M196 261H429L312 599ZM611 0H519L453 191H172L106 0H18L271 700H359ZM315 700ZM545 0Z" glyph-name="A" horiz-adv-x="629" unicode="A" /><glyph d="M245 261H469V626H465ZM931 0H469V191H202L87 0H-1L432 700H915V626H556V401H897V329H556V74H931ZM465 700Z" glyph-name="AE" horiz-adv-x="982" unicode="&#198;" /><glyph d="M196 261H429L312 599ZM611 0H519L453 191H172L106 0H18L271 700H359ZM315 700ZM545 0ZM356 892H447L348 751H280ZM315 700Z" glyph-name="Aacute" horiz-adv-x="629" unicode="&#193;" /><glyph d="M196 261H429L312 599ZM611 0H519L453 191H172L106 0H18L271 700H359ZM315 700ZM545 0ZM373 850V873H428V850Q428 800 397 770.5Q366 741 314 741Q262 741 231.5 770.5Q201 800 201 850V873H256V850Q256 824 272 808.5Q288 793 314 793Q341 793 357 808.5Q373 824 373 850ZM315 700Z" glyph-name="Abreve" horiz-adv-x="629" unicode="&#258;" /><glyph d="M196 261H429L312 599ZM611 0H519L453 191H172L106 0H18L271 700H359ZM315 700ZM545 0ZM382 751 315 849H314L247 751H181L275 892H354L448 751ZM315 700Z" glyph-name="Acircumflex" horiz-adv-x="629" unicode="&#194;" /><glyph d="M196 261H429L312 599ZM611 0H519L453 191H172L106 0H18L271 700H359ZM315 700ZM545 0ZM285 878V798H208V878ZM421 878V798H344V878ZM315 700Z" glyph-name="Adieresis" horiz-adv-x="629" unicode="&#196;" /><glyph d="M196 261H429L312 599ZM611 0H519L453 191H172L106 0H18L271 700H359ZM315 700ZM545 0ZM354 751H279L185 892H282ZM315 700Z" glyph-name="Agrave" horiz-adv-x="629" unicode="&#192;" /><glyph d="M196 261H429L312 599ZM611 0H519L453 191H172L106 0H18L271 700H359ZM315 700ZM545 0ZM187 805V861H444V805ZM315 700Z" glyph-name="Amacron" horiz-adv-x="629" unicode="&#256;" /><glyph d="M196 261H429L312 599ZM594 -120V-170Q579 -178 562.5 -182Q546 -186 528 -186Q483 -186 454 -161.5Q425 -137 425 -100Q425 -67 447.5 -38Q470 -9 514 14L453 191H172L106 0H18L271 700H359L611 0H564Q527 -22 510 -41.5Q493 -61 493 -83Q493 -104 507.5 -115.5Q522 -127 548 -127Q559 -127 570 -125.5Q581 -124 594 -120Z" glyph-name="Aogonek" horiz-adv-x="629" unicode="&#260;" /><glyph d="M196 261H429L312 599ZM611 0H519L453 191H172L106 0H18L271 700H359ZM315 700ZM545 0ZM214 841Q214 884 243 912.5Q272 941 314 941Q357 941 386.5 912.5Q416 884 416 841Q416 799 386.5 770.5Q357 742 314 742Q272 742 243 770.5Q214 799 214 841ZM263 841Q263 819 278 804Q293 789 314 789Q336 789 351 804Q366 819 366 841Q366 864 351 879Q336 894 314 894Q292 894 277.5 879Q263 864 263 841ZM315 700Z" glyph-name="Aring" horiz-adv-x="629" unicode="&#197;" /><glyph d="M196 261H429L312 599ZM611 0H519L453 191H172L106 0H18L271 700H359ZM315 700ZM545 0ZM386 747Q367 747 350.5 752Q334 757 320 767L283 794Q275 800 266 803Q257 806 249 806Q228 806 216.5 791.5Q205 777 205 751H156Q156 804 180.5 834.5Q205 865 247 865Q264 865 279.5 860Q295 855 308 845L344 819Q353 813 364.5 808.5Q376 804 384 804Q405 804 415 818Q425 832 425 861H473Q473 806 450.5 776.5Q428 747 386 747ZM315 700Z" glyph-name="Atilde" horiz-adv-x="629" unicode="&#195;" /><glyph d="M501 516Q501 574 464 603Q427 632 353 632H176V401H353Q427 401 464 429.5Q501 458 501 516ZM522 201Q522 268 479.5 301.5Q437 335 353 335H176V68H353Q437 68 479.5 101.5Q522 135 522 201ZM353 0H88V700H353Q470 700 529 655Q588 610 588 522Q588 465 561 426.5Q534 388 480 369Q545 349 577.5 306Q610 263 610 198Q610 101 545 50.5Q480 0 353 0Z" glyph-name="B" horiz-adv-x="665" unicode="B" /><glyph d="M499 201V220H585V197Q585 101 518 45Q451 -11 329 -11Q204 -11 136 55.5Q68 122 68 236V465Q68 578 136.5 644.5Q205 711 329 711Q451 711 518 656.5Q585 602 585 509V489H499V505Q499 564 454.5 599Q410 634 329 634Q246 634 200.5 588.5Q155 543 155 465V236Q155 157 200.5 111.5Q246 66 329 66Q410 66 454.5 102.5Q499 139 499 201ZM330 700ZM327 10Z" glyph-name="C" horiz-adv-x="633" unicode="C" /><glyph glyph-name="CR" horiz-adv-x="0" unicode="" /><glyph d="M499 201V220H585V197Q585 101 518 45Q451 -11 329 -11Q204 -11 136 55.5Q68 122 68 236V465Q68 578 136.5 644.5Q205 711 329 711Q451 711 518 656.5Q585 602 585 509V489H499V505Q499 564 454.5 599Q410 634 329 634Q246 634 200.5 588.5Q155 543 155 465V236Q155 157 200.5 111.5Q246 66 329 66Q410 66 454.5 102.5Q499 139 499 201ZM330 700ZM327 10ZM371 892H462L363 751H295ZM330 700Z" glyph-name="Cacute" horiz-adv-x="633" unicode="&#262;" /><glyph d="M499 201V220H585V197Q585 101 518 45Q451 -11 329 -11Q204 -11 136 55.5Q68 122 68 236V465Q68 578 136.5 644.5Q205 711 329 711Q451 711 518 656.5Q585 602 585 509V489H499V505Q499 564 454.5 599Q410 634 329 634Q246 634 200.5 588.5Q155 543 155 465V236Q155 157 200.5 111.5Q246 66 329 66Q410 66 454.5 102.5Q499 139 499 201ZM330 700ZM327 10ZM262 892 329 794H330L397 892H463L369 751H290L196 892ZM330 700Z" glyph-name="Ccaron" horiz-adv-x="633" unicode="&#268;" /><glyph d="M420 -131Q420 -171 395.5 -195Q371 -219 326 -219Q283 -219 259.5 -201.5Q236 -184 236 -153V-143H286V-148Q286 -158 295.5 -163.5Q305 -169 324 -169Q343 -169 352 -160Q361 -151 361 -133Q361 -116 351.5 -107.5Q342 -99 323 -99Q314 -99 306 -101Q298 -103 284 -110L245 -88L283 -8Q180 4 124 69Q68 134 68 236V465Q68 578 136.5 644.5Q205 711 329 711Q451 711 518 656.5Q585 602 585 509V489H499V505Q499 564 454.5 599Q410 634 329 634Q246 634 200.5 588.5Q155 543 155 465V236Q155 157 200.5 111.5Q246 66 329 66Q410 66 454.5 102.5Q499 139 499 201V220H585V197Q585 102 519.5 45.5Q454 -11 335 -11L315 -54Q323 -52 327.5 -51.5Q332 -51 338 -51Q376 -51 398 -73.5Q420 -96 420 -131Z" glyph-name="Ccedilla" horiz-adv-x="633" unicode="&#199;" /><glyph d="M499 201V220H585V197Q585 101 518 45Q451 -11 329 -11Q204 -11 136 55.5Q68 122 68 236V465Q68 578 136.5 644.5Q205 711 329 711Q451 711 518 656.5Q585 602 585 509V489H499V505Q499 564 454.5 599Q410 634 329 634Q246 634 200.5 588.5Q155 543 155 465V236Q155 157 200.5 111.5Q246 66 329 66Q410 66 454.5 102.5Q499 139 499 201ZM330 700ZM327 10ZM397 751 330 849H329L262 751H196L290 892H369L463 751ZM330 700Z" glyph-name="Ccircumflex" horiz-adv-x="633" unicode="&#264;" /><glyph d="M499 201V220H585V197Q585 101 518 45Q451 -11 329 -11Q204 -11 136 55.5Q68 122 68 236V465Q68 578 136.5 644.5Q205 711 329 711Q451 711 518 656.5Q585 602 585 509V489H499V505Q499 564 454.5 599Q410 634 329 634Q246 634 200.5 588.5Q155 543 155 465V236Q155 157 200.5 111.5Q246 66 329 66Q410 66 454.5 102.5Q499 139 499 201ZM330 700ZM327 10ZM375 888V798H285V888ZM330 700Z" glyph-name="Cdotaccent" horiz-adv-x="633" unicode="&#266;" /><glyph d="M356 0H88V700H356Q482 700 551 633.5Q620 567 620 454V246Q620 133 551 66.5Q482 0 356 0ZM176 623V77H356Q441 77 486.5 123.5Q532 170 532 251V449Q532 530 486.5 576.5Q441 623 356 623ZM343 700Z" glyph-name="D" horiz-adv-x="687" unicode="D" /><glyph d="M356 0H88V700H356Q482 700 551 633.5Q620 567 620 454V246Q620 133 551 66.5Q482 0 356 0ZM176 623V77H356Q441 77 486.5 123.5Q532 170 532 251V449Q532 530 486.5 576.5Q441 623 356 623ZM343 700ZM275 892 342 794H343L410 892H476L382 751H303L209 892ZM343 700Z" glyph-name="Dcaron" horiz-adv-x="687" unicode="&#270;" /><glyph d="M361 0H93V332H31V396H93V700H361Q487 700 556 633.5Q625 567 625 454V246Q625 133 556 66.5Q487 0 361 0ZM181 332V77H361Q446 77 491.5 123.5Q537 170 537 251V449Q537 530 491.5 576.5Q446 623 361 623H181V396H297V332Z" glyph-name="Dcroat" horiz-adv-x="692" unicode="&#272;" /><glyph d="M352 700 568 0H24L241 700ZM294 609 127 70H465L299 609Z" glyph-name="Delta" horiz-adv-x="592" unicode="&#8710;" /><glyph d="M548 0H88V700H532V626H176V401H514V329H176V74H548ZM320 700ZM450 0Z" glyph-name="E" horiz-adv-x="599" unicode="E" /><glyph d="M548 0H88V700H532V626H176V401H514V329H176V74H548ZM320 700ZM450 0ZM361 892H452L353 751H285ZM320 700Z" glyph-name="Eacute" horiz-adv-x="599" unicode="&#201;" /><glyph d="M548 0H88V700H532V626H176V401H514V329H176V74H548ZM320 700ZM450 0ZM378 850V873H433V850Q433 800 402 770.5Q371 741 319 741Q267 741 236.5 770.5Q206 800 206 850V873H261V850Q261 824 277 808.5Q293 793 319 793Q346 793 362 808.5Q378 824 378 850ZM320 700Z" glyph-name="Ebreve" horiz-adv-x="599" unicode="&#276;" /><glyph d="M548 0H88V700H532V626H176V401H514V329H176V74H548ZM320 700ZM450 0ZM252 892 319 794H320L387 892H453L359 751H280L186 892ZM320 700Z" glyph-name="Ecaron" horiz-adv-x="599" unicode="&#282;" /><glyph d="M548 0H88V700H532V626H176V401H514V329H176V74H548ZM320 700ZM450 0ZM387 751 320 849H319L252 751H186L280 892H359L453 751ZM320 700Z" glyph-name="Ecircumflex" horiz-adv-x="599" unicode="&#202;" /><glyph d="M548 0H88V700H532V626H176V401H514V329H176V74H548ZM320 700ZM450 0ZM290 878V798H213V878ZM426 878V798H349V878ZM320 700Z" glyph-name="Edieresis" horiz-adv-x="599" unicode="&#203;" /><glyph d="M548 0H88V700H532V626H176V401H514V329H176V74H548ZM320 700ZM450 0ZM365 888V798H275V888ZM320 700Z" glyph-name="Edotaccent" horiz-adv-x="599" unicode="&#278;" /><glyph d="M548 0H88V700H532V626H176V401H514V329H176V74H548ZM320 700ZM450 0ZM359 751H284L190 892H287ZM320 700Z" glyph-name="Egrave" horiz-adv-x="599" unicode="&#200;" /><glyph d="M548 0H88V700H532V626H176V401H514V329H176V74H548ZM320 700ZM450 0ZM192 805V861H449V805ZM320 700Z" glyph-name="Emacron" horiz-adv-x="599" unicode="&#274;" /><glyph d="M499 -120V-170Q484 -178 467.5 -182Q451 -186 433 -186Q388 -186 359 -161.5Q330 -137 330 -100Q330 -72 346.5 -46.5Q363 -21 395 0H88V700H532V626H176V401H514V329H176V74H548V0H469Q432 -22 415 -41.5Q398 -61 398 -83Q398 -104 412.5 -115.5Q427 -127 453 -127Q464 -127 475 -125.5Q486 -124 499 -120Z" glyph-name="Eogonek" horiz-adv-x="599" unicode="&#280;" /><glyph d="M361 0H93V332H31V396H93V700H361Q487 700 556 633.5Q625 567 625 454V246Q625 133 556 66.5Q487 0 361 0ZM181 332V77H361Q446 77 491.5 123.5Q537 170 537 251V449Q537 530 491.5 576.5Q446 623 361 623H181V396H297V332Z" glyph-name="Eth" horiz-adv-x="692" unicode="&#208;" /><glyph d="M603 220V197Q603 102 540 45.5Q477 -11 363 -11Q247 -11 183.5 55.5Q120 122 120 236V255H44V319H120V376H44V439H120V465Q120 578 183.5 644.5Q247 711 363 711Q477 711 540 656Q603 601 603 509V489H516V506Q516 565 476 600Q436 635 364 635Q289 635 248 589.5Q207 544 207 466V439H386V376H207V319H386V255H207V234Q207 156 248 110.5Q289 65 364 65Q436 65 476 101.5Q516 138 516 200V220Z" glyph-name="Euro" horiz-adv-x="663" unicode="&#8364;" /><glyph d="M521 383V308H176V0H88V700H540V624H176V383Z" glyph-name="F" horiz-adv-x="578" unicode="F" /><glyph d="M328 347H592V235Q592 116 525.5 52.5Q459 -11 331 -11Q204 -11 136 54.5Q68 120 68 236V465Q68 578 136.5 644.5Q205 711 329 711Q453 711 521.5 657.5Q590 604 590 513V497H503V509Q503 567 457.5 600.5Q412 634 329 634Q246 634 200.5 588.5Q155 543 155 465V236Q155 156 200.5 111Q246 66 331 66Q414 66 459.5 107Q505 148 505 220V281H328ZM328 700ZM330 0Z" glyph-name="G" horiz-adv-x="653" unicode="G" /><glyph d="M328 347H592V235Q592 116 525.5 52.5Q459 -11 331 -11Q204 -11 136 54.5Q68 120 68 236V465Q68 578 136.5 644.5Q205 711 329 711Q453 711 521.5 657.5Q590 604 590 513V497H503V509Q503 567 457.5 600.5Q412 634 329 634Q246 634 200.5 588.5Q155 543 155 465V236Q155 156 200.5 111Q246 66 331 66Q414 66 459.5 107Q505 148 505 220V281H328ZM328 700ZM330 0ZM386 850V873H441V850Q441 800 410 770.5Q379 741 327 741Q275 741 244.5 770.5Q214 800 214 850V873H269V850Q269 824 285 808.5Q301 793 327 793Q354 793 370 808.5Q386 824 386 850ZM328 700Z" glyph-name="Gbreve" horiz-adv-x="653" unicode="&#286;" /><glyph d="M328 347H592V235Q592 116 525.5 52.5Q459 -11 331 -11Q204 -11 136 54.5Q68 120 68 236V465Q68 578 136.5 644.5Q205 711 329 711Q453 711 521.5 657.5Q590 604 590 513V497H503V509Q503 567 457.5 600.5Q412 634 329 634Q246 634 200.5 588.5Q155 543 155 465V236Q155 156 200.5 111Q246 66 331 66Q414 66 459.5 107Q505 148 505 220V281H328ZM328 700ZM330 0ZM395 751 328 849H327L260 751H194L288 892H367L461 751ZM328 700Z" glyph-name="Gcircumflex" horiz-adv-x="653" unicode="&#284;" /><glyph d="M328 347H592V235Q592 116 525.5 52.5Q459 -11 331 -11Q204 -11 136 54.5Q68 120 68 236V465Q68 578 136.5 644.5Q205 711 329 711Q453 711 521.5 657.5Q590 604 590 513V497H503V509Q503 567 457.5 600.5Q412 634 329 634Q246 634 200.5 588.5Q155 543 155 465V236Q155 156 200.5 111Q246 66 331 66Q414 66 459.5 107Q505 148 505 220V281H328ZM328 700ZM330 0ZM373 888V798H283V888ZM328 700Z" glyph-name="Gdotaccent" horiz-adv-x="653" unicode="&#288;" /><glyph d="M612 0H524V330H176V0H88V700H176V406H524V700H612ZM350 700Z" glyph-name="H" horiz-adv-x="700" unicode="H" /><glyph d="M181 525V406H529V525ZM529 330H181V0H93V525H31V584H93V700H181V584H529V700H617V584H679V525H617V0H529Z" glyph-name="Hbar" horiz-adv-x="710" unicode="&#294;" /><glyph d="M612 0H524V330H176V0H88V700H176V406H524V700H612ZM350 700ZM417 751 350 849H349L282 751H216L310 892H389L483 751ZM350 700Z" glyph-name="Hcircumflex" horiz-adv-x="700" unicode="&#292;" /><glyph d="M90 700H177V0H90ZM133 700ZM126 0Z" glyph-name="I" horiz-adv-x="267" unicode="I" /><glyph d="M90 700H177V0H90ZM133 700ZM126 0ZM677 226V700H765V222Q765 115 704.5 52Q644 -11 533 -11Q421 -11 359.5 47.5Q298 106 298 207V236H384V211Q384 143 422.5 104.5Q461 66 533 66Q601 66 639 109.5Q677 153 677 226ZM722 700Z" glyph-name="IJ" horiz-adv-x="848" unicode="&#306;" /><glyph d="M90 700H177V0H90ZM133 700ZM126 0ZM174 892H265L166 751H98ZM133 700Z" glyph-name="Iacute" horiz-adv-x="267" unicode="&#205;" /><glyph d="M90 700H177V0H90ZM133 700ZM126 0ZM200 751 133 849H132L65 751H-1L93 892H172L266 751ZM133 700Z" glyph-name="Icircumflex" horiz-adv-x="267" unicode="&#206;" /><glyph d="M90 700H177V0H90ZM133 700ZM126 0ZM103 878V798H26V878ZM239 878V798H162V878ZM133 700Z" glyph-name="Idieresis" horiz-adv-x="267" unicode="&#207;" /><glyph d="M90 700H177V0H90ZM133 700ZM126 0ZM178 888V798H88V888ZM133 700Z" glyph-name="Idotaccent" horiz-adv-x="267" unicode="&#304;" /><glyph d="M90 700H177V0H90ZM133 700ZM126 0ZM172 751H97L3 892H100ZM133 700Z" glyph-name="Igrave" horiz-adv-x="267" unicode="&#204;" /><glyph d="M90 700H177V0H90ZM133 700ZM126 0ZM5 805V861H262V805ZM133 700Z" glyph-name="Imacron" horiz-adv-x="267" unicode="&#298;" /><glyph d="M175 -120V-170Q160 -178 143.5 -182Q127 -186 109 -186Q64 -186 35 -161.5Q6 -137 6 -100Q6 -68 27.5 -40Q49 -12 90 11V700H177V0H145Q108 -22 91 -41.5Q74 -61 74 -83Q74 -104 88.5 -115.5Q103 -127 129 -127Q140 -127 151 -125.5Q162 -124 175 -120Z" glyph-name="Iogonek" horiz-adv-x="267" unicode="&#302;" /><glyph d="M90 700H177V0H90ZM133 700ZM126 0ZM204 747Q185 747 168.5 752Q152 757 138 767L101 794Q93 800 84 803Q75 806 67 806Q46 806 34.5 791.5Q23 777 23 751H-26Q-26 804 -1.5 834.5Q23 865 65 865Q82 865 97.5 860Q113 855 126 845L162 819Q171 813 182.5 808.5Q194 804 202 804Q223 804 233 818Q243 832 243 861H291Q291 806 268.5 776.5Q246 747 204 747ZM133 700Z" glyph-name="Itilde" horiz-adv-x="267" unicode="&#296;" /><glyph d="M410 226V700H498V222Q498 115 437.5 52Q377 -11 266 -11Q154 -11 92.5 47.5Q31 106 31 207V236H117V211Q117 143 155.5 104.5Q194 66 266 66Q334 66 372 109.5Q410 153 410 226ZM455 700Z" glyph-name="J" horiz-adv-x="581" unicode="J" /><glyph d="M410 226V700H498V222Q498 115 437.5 52Q377 -11 266 -11Q154 -11 92.5 47.5Q31 106 31 207V236H117V211Q117 143 155.5 104.5Q194 66 266 66Q334 66 372 109.5Q410 153 410 226ZM455 700ZM522 751 455 849H454L387 751H321L415 892H494L588 751ZM455 700Z" glyph-name="Jcircumflex" horiz-adv-x="581" unicode="&#308;" /><glyph d="M298 335 176 200V0H88V700H176V309L519 700H623L358 402L632 0H525ZM334 0Z" glyph-name="K" horiz-adv-x="644" unicode="K" /><glyph d="M534 0H88V700H176V77H534ZM132 700ZM265 700ZM362 350ZM311 0Z" glyph-name="L" horiz-adv-x="556" unicode="L" /><glyph d="M534 0H88V700H176V77H534ZM132 700ZM265 700ZM362 350ZM311 0ZM173 892H264L165 751H97ZM132 700Z" glyph-name="Lacute" horiz-adv-x="556" unicode="&#313;" /><glyph d="M534 0H88V700H176V77H534ZM132 700ZM265 700ZM362 350ZM311 0ZM271 730H342V709L318 583H271ZM265 695Z" glyph-name="Lcaron" horiz-adv-x="556" unicode="&#317;" /><glyph d="M534 0H88V700H176V77H534ZM132 700ZM265 700ZM362 350ZM311 0ZM455 408V312H366V408ZM363 350Z" glyph-name="Ldot" horiz-adv-x="557" unicode="&#319;" /><glyph d="M534 0H88V700H176V77H534ZM132 700ZM265 700ZM362 350ZM311 0ZM455 408V312H366V408ZM363 350ZM1091 0H645V700H733V77H1091ZM689 700ZM822 700ZM919 350ZM868 0Z" glyph-name="Lgeminada" horiz-adv-x="1113" /><glyph d="M557 77V0H111V313L14 236V314L111 391V700H199V461L297 539V461L199 383V77Z" glyph-name="Lslash" horiz-adv-x="579" unicode="&#321;" /><glyph d="M402 247H363L170 540V0H88V700H164L384 359L601 700H680V0H594V544Z" glyph-name="M" horiz-adv-x="768" unicode="M" /><glyph d="M611 0H538L171 535V0H88V700H161L528 164V700H611ZM350 700ZM350 0Z" glyph-name="N" horiz-adv-x="699" unicode="N" /><glyph d="M611 0H538L171 535V0H88V700H161L528 164V700H611ZM350 700ZM350 0ZM391 892H482L383 751H315ZM350 700Z" glyph-name="Nacute" horiz-adv-x="699" unicode="&#323;" /><glyph d="M611 0H538L171 535V0H88V700H161L528 164V700H611ZM350 700ZM350 0ZM282 892 349 794H350L417 892H483L389 751H310L216 892ZM350 700Z" glyph-name="Ncaron" horiz-adv-x="699" unicode="&#327;" /><glyph d="M611 0H538L171 535V0H88V700H161L528 164V700H611ZM350 700ZM350 0ZM421 747Q402 747 385.5 752Q369 757 355 767L318 794Q310 800 301 803Q292 806 284 806Q263 806 251.5 791.5Q240 777 240 751H191Q191 804 215.5 834.5Q240 865 282 865Q299 865 314.5 860Q330 855 343 845L379 819Q388 813 399.5 808.5Q411 804 419 804Q440 804 450 818Q460 832 460 861H508Q508 806 485.5 776.5Q463 747 421 747ZM350 700Z" glyph-name="Ntilde" horiz-adv-x="699" unicode="&#209;" /><glyph d="M332 -11Q206 -11 137 55.5Q68 122 68 236V465Q68 578 137 644.5Q206 711 332 711Q459 711 528 645Q597 579 597 465V236Q597 121 528 55Q459 -11 332 -11ZM332 66Q418 66 464 112.5Q510 159 510 240V460Q510 541 464 587.5Q418 634 332 634Q247 634 201 587Q155 540 155 460V240Q155 160 201 113Q247 66 332 66ZM333 700Z" glyph-name="O" horiz-adv-x="665" unicode="O" /><glyph d="M332 66Q419 66 464.5 111Q510 156 510 240V460Q510 541 464 587.5Q418 634 332 634Q247 634 201 587Q155 540 155 460V240Q155 160 201 113Q247 66 332 66ZM972 0H518V71Q488 30 440.5 9.5Q393 -11 328 -11Q204 -11 136 55.5Q68 122 68 236V465Q68 578 136 644.5Q204 711 328 711Q392 711 439.5 690Q487 669 518 627V700H957V626H597V401H938V329H597V74H972Z" glyph-name="OE" horiz-adv-x="1023" unicode="&#338;" /><glyph d="M332 -11Q206 -11 137 55.5Q68 122 68 236V465Q68 578 137 644.5Q206 711 332 711Q459 711 528 645Q597 579 597 465V236Q597 121 528 55Q459 -11 332 -11ZM332 66Q418 66 464 112.5Q510 159 510 240V460Q510 541 464 587.5Q418 634 332 634Q247 634 201 587Q155 540 155 460V240Q155 160 201 113Q247 66 332 66ZM333 700ZM374 892H465L366 751H298ZM333 700Z" glyph-name="Oacute" horiz-adv-x="665" unicode="&#211;" /><glyph d="M332 -11Q206 -11 137 55.5Q68 122 68 236V465Q68 578 137 644.5Q206 711 332 711Q459 711 528 645Q597 579 597 465V236Q597 121 528 55Q459 -11 332 -11ZM332 66Q418 66 464 112.5Q510 159 510 240V460Q510 541 464 587.5Q418 634 332 634Q247 634 201 587Q155 540 155 460V240Q155 160 201 113Q247 66 332 66ZM333 700ZM391 850V873H446V850Q446 800 415 770.5Q384 741 332 741Q280 741 249.5 770.5Q219 800 219 850V873H274V850Q274 824 290 808.5Q306 793 332 793Q359 793 375 808.5Q391 824 391 850ZM333 700Z" glyph-name="Obreve" horiz-adv-x="665" unicode="&#334;" /><glyph d="M332 -11Q206 -11 137 55.5Q68 122 68 236V465Q68 578 137 644.5Q206 711 332 711Q459 711 528 645Q597 579 597 465V236Q597 121 528 55Q459 -11 332 -11ZM332 66Q418 66 464 112.5Q510 159 510 240V460Q510 541 464 587.5Q418 634 332 634Q247 634 201 587Q155 540 155 460V240Q155 160 201 113Q247 66 332 66ZM333 700ZM400 751 333 849H332L265 751H199L293 892H372L466 751ZM333 700Z" glyph-name="Ocircumflex" horiz-adv-x="665" unicode="&#212;" /><glyph d="M332 -11Q206 -11 137 55.5Q68 122 68 236V465Q68 578 137 644.5Q206 711 332 711Q459 711 528 645Q597 579 597 465V236Q597 121 528 55Q459 -11 332 -11ZM332 66Q418 66 464 112.5Q510 159 510 240V460Q510 541 464 587.5Q418 634 332 634Q247 634 201 587Q155 540 155 460V240Q155 160 201 113Q247 66 332 66ZM333 700ZM303 878V798H226V878ZM439 878V798H362V878ZM333 700Z" glyph-name="Odieresis" horiz-adv-x="665" unicode="&#214;" /><glyph d="M332 -11Q206 -11 137 55.5Q68 122 68 236V465Q68 578 137 644.5Q206 711 332 711Q459 711 528 645Q597 579 597 465V236Q597 121 528 55Q459 -11 332 -11ZM332 66Q418 66 464 112.5Q510 159 510 240V460Q510 541 464 587.5Q418 634 332 634Q247 634 201 587Q155 540 155 460V240Q155 160 201 113Q247 66 332 66ZM333 700ZM372 751H297L203 892H300ZM333 700Z" glyph-name="Ograve" horiz-adv-x="665" unicode="&#210;" /><glyph d="M332 -11Q206 -11 137 55.5Q68 122 68 236V465Q68 578 137 644.5Q206 711 332 711Q459 711 528 645Q597 579 597 465V236Q597 121 528 55Q459 -11 332 -11ZM332 66Q418 66 464 112.5Q510 159 510 240V460Q510 541 464 587.5Q418 634 332 634Q247 634 201 587Q155 540 155 460V240Q155 160 201 113Q247 66 332 66ZM333 700ZM292 892H385L291 751H220ZM439 892H532L422 751H351ZM333 700Z" glyph-name="Ohungarumlaut" horiz-adv-x="665" unicode="&#336;" /><glyph d="M332 -11Q206 -11 137 55.5Q68 122 68 236V465Q68 578 137 644.5Q206 711 332 711Q459 711 528 645Q597 579 597 465V236Q597 121 528 55Q459 -11 332 -11ZM332 66Q418 66 464 112.5Q510 159 510 240V460Q510 541 464 587.5Q418 634 332 634Q247 634 201 587Q155 540 155 460V240Q155 160 201 113Q247 66 332 66ZM333 700ZM205 805V861H462V805ZM333 700Z" glyph-name="Omacron" horiz-adv-x="665" unicode="&#332;" /><glyph d="M511 336V460Q511 541 465 587.5Q419 634 333 634Q249 634 203 587.5Q157 541 157 460V336Q157 266 187.5 217Q218 168 266 158V0H70V73H207V106Q146 126 107.5 188Q69 250 69 331V465Q69 578 138 644.5Q207 711 333 711Q460 711 529 645Q598 579 598 465V331Q598 251 560 188.5Q522 126 461 106V73H598V0H402V158Q450 168 480.5 217Q511 266 511 336Z" glyph-name="Omega" horiz-adv-x="667" unicode="&#8486;" /><glyph d="M155 460V240Q155 209 162.5 182Q170 155 184 134L432 611Q412 622 386.5 628Q361 634 332 634Q247 634 201 587Q155 540 155 460ZM332 66Q418 66 464 112.5Q510 159 510 240V460Q510 490 503 517Q496 544 482 565L232 89Q253 78 278 72Q303 66 332 66ZM332 -11Q292 -11 258 -4Q224 3 195 16L174 -23H95L137 55Q103 87 85.5 134Q68 181 68 236V465Q68 578 137 644.5Q206 711 332 711Q372 711 406 704Q440 697 469 684L491 723H570L528 645Q562 613 579.5 566.5Q597 520 597 465V236Q597 121 528 55Q459 -11 332 -11ZM338 700Z" glyph-name="Oslash" horiz-adv-x="665" unicode="&#216;" /><glyph d="M332 -11Q206 -11 137 55.5Q68 122 68 236V465Q68 578 137 644.5Q206 711 332 711Q459 711 528 645Q597 579 597 465V236Q597 121 528 55Q459 -11 332 -11ZM332 66Q418 66 464 112.5Q510 159 510 240V460Q510 541 464 587.5Q418 634 332 634Q247 634 201 587Q155 540 155 460V240Q155 160 201 113Q247 66 332 66ZM333 700ZM404 747Q385 747 368.5 752Q352 757 338 767L301 794Q293 800 284 803Q275 806 267 806Q246 806 234.5 791.5Q223 777 223 751H174Q174 804 198.5 834.5Q223 865 265 865Q282 865 297.5 860Q313 855 326 845L362 819Q371 813 382.5 808.5Q394 804 402 804Q423 804 433 818Q443 832 443 861H491Q491 806 468.5 776.5Q446 747 404 747ZM333 700Z" glyph-name="Otilde" horiz-adv-x="665" unicode="&#213;" /><glyph d="M521 473Q521 549 477 587Q433 625 345 625H176V321H345Q433 321 477 359Q521 397 521 473ZM610 473Q610 362 543.5 304.5Q477 247 346 247H176V0H88V700H346Q476 700 543 642Q610 584 610 473Z" glyph-name="P" horiz-adv-x="650" unicode="P" /><glyph d="M590 -132V-143H489L381 -8Q370 -9 357.5 -10Q345 -11 332 -11Q206 -11 137 55.5Q68 122 68 236V465Q68 578 137 644.5Q206 711 332 711Q459 711 528 645Q597 579 597 465V236Q597 159 564.5 102Q532 45 471 16ZM332 66Q418 66 464 112.5Q510 159 510 240V460Q510 541 464 587.5Q418 634 332 634Q247 634 201 587Q155 540 155 460V240Q155 160 201 113Q247 66 332 66Z" glyph-name="Q" horiz-adv-x="665" unicode="Q" /><glyph d="M521 482Q521 555 477.5 590.5Q434 626 346 626H176V339H346Q434 339 477.5 374.5Q521 410 521 482ZM345 266H176V0H88V700H345Q476 700 543 645Q610 590 610 483Q610 405 574 354Q538 303 467 282L598 0H505L381 267Q375 266 367.5 266Q360 266 345 266ZM335 700ZM327 0Z" glyph-name="R" horiz-adv-x="661" unicode="R" /><glyph d="M376 892H467L368 751H300ZM521 482Q521 555 477.5 590.5Q434 626 346 626H176V339H346Q434 339 477.5 374.5Q521 410 521 482ZM345 266H176V0H88V700H345Q476 700 543 645Q610 590 610 483Q610 405 574 354Q538 303 467 282L598 0H505L381 267Q375 266 367.5 266Q360 266 345 266Z" glyph-name="Racute" horiz-adv-x="661" unicode="&#340;" /><glyph d="M267 892 334 794H335L402 892H468L374 751H295L201 892ZM521 482Q521 555 477.5 590.5Q434 626 346 626H176V339H346Q434 339 477.5 374.5Q521 410 521 482ZM345 266H176V0H88V700H345Q476 700 543 645Q610 590 610 483Q610 405 574 354Q538 303 467 282L598 0H505L381 267Q375 266 367.5 266Q360 266 345 266Z" glyph-name="Rcaron" horiz-adv-x="661" unicode="&#344;" /><glyph d="M560 519V507H473V518Q473 578 431.5 607.5Q390 637 306 637Q228 637 188.5 608Q149 579 149 522Q149 481 173.5 457.5Q198 434 255 421L410 385Q491 366 532.5 321Q574 276 574 206Q574 100 510.5 44.5Q447 -11 324 -11Q190 -11 122 35Q54 81 54 172V184H141V174Q141 118 186 91Q231 64 323 64Q403 64 443.5 97.5Q484 131 484 196Q484 239 458.5 266Q433 293 379 305L224 341Q140 361 101.5 403Q63 445 63 516Q63 609 126.5 660Q190 711 308 711Q430 711 495 661Q560 611 560 519ZM314 700ZM314 10ZM314 0Z" glyph-name="S" horiz-adv-x="628" unicode="S" /><glyph d="M560 519V507H473V518Q473 578 431.5 607.5Q390 637 306 637Q228 637 188.5 608Q149 579 149 522Q149 481 173.5 457.5Q198 434 255 421L410 385Q491 366 532.5 321Q574 276 574 206Q574 100 510.5 44.5Q447 -11 324 -11Q190 -11 122 35Q54 81 54 172V184H141V174Q141 118 186 91Q231 64 323 64Q403 64 443.5 97.5Q484 131 484 196Q484 239 458.5 266Q433 293 379 305L224 341Q140 361 101.5 403Q63 445 63 516Q63 609 126.5 660Q190 711 308 711Q430 711 495 661Q560 611 560 519ZM314 700ZM314 10ZM314 0ZM355 892H446L347 751H279ZM314 700Z" glyph-name="Sacute" horiz-adv-x="628" unicode="&#346;" /><glyph d="M560 519V507H473V518Q473 578 431.5 607.5Q390 637 306 637Q228 637 188.5 608Q149 579 149 522Q149 481 173.5 457.5Q198 434 255 421L410 385Q491 366 532.5 321Q574 276 574 206Q574 100 510.5 44.5Q447 -11 324 -11Q190 -11 122 35Q54 81 54 172V184H141V174Q141 118 186 91Q231 64 323 64Q403 64 443.5 97.5Q484 131 484 196Q484 239 458.5 266Q433 293 379 305L224 341Q140 361 101.5 403Q63 445 63 516Q63 609 126.5 660Q190 711 308 711Q430 711 495 661Q560 611 560 519ZM314 700ZM314 10ZM314 0ZM246 892 313 794H314L381 892H447L353 751H274L180 892ZM314 700Z" glyph-name="Scaron" horiz-adv-x="628" unicode="&#352;" /><glyph d="M397 -131Q397 -171 372.5 -195Q348 -219 303 -219Q260 -219 236.5 -201.5Q213 -184 213 -153V-143H263V-148Q263 -158 272.5 -163.5Q282 -169 301 -169Q320 -169 329 -160Q338 -151 338 -133Q338 -116 328.5 -107.5Q319 -99 300 -99Q291 -99 283 -101Q275 -103 261 -110L222 -88L260 -8Q158 2 106 47.5Q54 93 54 172V184H141V174Q141 118 186 91Q231 64 323 64Q403 64 443.5 97.5Q484 131 484 196Q484 239 458.5 266Q433 293 379 305L224 341Q140 361 101.5 403Q63 445 63 516Q63 609 126.5 660Q190 711 308 711Q430 711 495 661Q560 611 560 519V507H473V518Q473 578 431.5 607.5Q390 637 306 637Q228 637 188.5 608Q149 579 149 522Q149 481 173.5 457.5Q198 434 255 421L410 385Q491 366 532.5 321Q574 276 574 206Q574 100 510.5 44.5Q447 -11 324 -11Q321 -11 318 -11Q315 -11 312 -11L292 -54Q300 -52 304.5 -51.5Q309 -51 315 -51Q353 -51 375 -73.5Q397 -96 397 -131Z" glyph-name="Scedilla" horiz-adv-x="628" unicode="&#350;" /><glyph d="M560 519V507H473V518Q473 578 431.5 607.5Q390 637 306 637Q228 637 188.5 608Q149 579 149 522Q149 481 173.5 457.5Q198 434 255 421L410 385Q491 366 532.5 321Q574 276 574 206Q574 100 510.5 44.5Q447 -11 324 -11Q190 -11 122 35Q54 81 54 172V184H141V174Q141 118 186 91Q231 64 323 64Q403 64 443.5 97.5Q484 131 484 196Q484 239 458.5 266Q433 293 379 305L224 341Q140 361 101.5 403Q63 445 63 516Q63 609 126.5 660Q190 711 308 711Q430 711 495 661Q560 611 560 519ZM314 700ZM314 10ZM314 0ZM381 751 314 849H313L246 751H180L274 892H353L447 751ZM314 700Z" glyph-name="Scircumflex" horiz-adv-x="628" unicode="&#348;" /><glyph d="M550 700V623H329V0H242V623H22V700ZM286 700ZM302 10ZM286 0Z" glyph-name="T" horiz-adv-x="572" unicode="T" /><glyph d="M506 373V309H345V0H258V309H96V373H258V623H38V700H566V623H345V373Z" glyph-name="Tbar" horiz-adv-x="604" unicode="&#358;" /><glyph d="M550 700V623H329V0H242V623H22V700ZM286 700ZM302 10ZM286 0ZM218 892 285 794H286L353 892H419L325 751H246L152 892ZM286 700Z" glyph-name="Tcaron" horiz-adv-x="572" unicode="&#356;" /><glyph d="M521 326Q521 402 477 440.5Q433 479 345 479H176V174H345Q432 174 476.5 212.5Q521 251 521 326ZM610 327Q610 216 543 158Q476 100 346 100H176V0H88V700H176V554H346Q476 554 543 496Q610 438 610 327Z" glyph-name="Thorn" horiz-adv-x="652" unicode="&#222;" /><glyph d="M83 236V700H170V240Q170 159 216 112.5Q262 66 346 66Q431 66 477 112.5Q523 159 523 240V700H610V236Q610 121 541.5 55Q473 -11 346 -11Q220 -11 151.5 55.5Q83 122 83 236ZM346 700ZM432 0Z" glyph-name="U" horiz-adv-x="693" unicode="U" /><glyph d="M83 236V700H170V240Q170 159 216 112.5Q262 66 346 66Q431 66 477 112.5Q523 159 523 240V700H610V236Q610 121 541.5 55Q473 -11 346 -11Q220 -11 151.5 55.5Q83 122 83 236ZM346 700ZM432 0ZM387 892H478L379 751H311ZM346 700Z" glyph-name="Uacute" horiz-adv-x="693" unicode="&#218;" /><glyph d="M83 236V700H170V240Q170 159 216 112.5Q262 66 346 66Q431 66 477 112.5Q523 159 523 240V700H610V236Q610 121 541.5 55Q473 -11 346 -11Q220 -11 151.5 55.5Q83 122 83 236ZM346 700ZM432 0ZM404 850V873H459V850Q459 800 428 770.5Q397 741 345 741Q293 741 262.5 770.5Q232 800 232 850V873H287V850Q287 824 303 808.5Q319 793 345 793Q372 793 388 808.5Q404 824 404 850ZM346 700Z" glyph-name="Ubreve" horiz-adv-x="693" unicode="&#364;" /><glyph d="M83 236V700H170V240Q170 159 216 112.5Q262 66 346 66Q431 66 477 112.5Q523 159 523 240V700H610V236Q610 121 541.5 55Q473 -11 346 -11Q220 -11 151.5 55.5Q83 122 83 236ZM346 700ZM432 0ZM413 751 346 849H345L278 751H212L306 892H385L479 751ZM346 700Z" glyph-name="Ucircumflex" horiz-adv-x="693" unicode="&#219;" /><glyph d="M83 236V700H170V240Q170 159 216 112.5Q262 66 346 66Q431 66 477 112.5Q523 159 523 240V700H610V236Q610 121 541.5 55Q473 -11 346 -11Q220 -11 151.5 55.5Q83 122 83 236ZM346 700ZM432 0ZM316 878V798H239V878ZM452 878V798H375V878ZM346 700Z" glyph-name="Udieresis" horiz-adv-x="693" unicode="&#220;" /><glyph d="M83 236V700H170V240Q170 159 216 112.5Q262 66 346 66Q431 66 477 112.5Q523 159 523 240V700H610V236Q610 121 541.5 55Q473 -11 346 -11Q220 -11 151.5 55.5Q83 122 83 236ZM346 700ZM432 0ZM385 751H310L216 892H313ZM346 700Z" glyph-name="Ugrave" horiz-adv-x="693" unicode="&#217;" /><glyph d="M83 236V700H170V240Q170 159 216 112.5Q262 66 346 66Q431 66 477 112.5Q523 159 523 240V700H610V236Q610 121 541.5 55Q473 -11 346 -11Q220 -11 151.5 55.5Q83 122 83 236ZM346 700ZM432 0ZM305 892H398L304 751H233ZM452 892H545L435 751H364ZM346 700Z" glyph-name="Uhungarumlaut" horiz-adv-x="693" unicode="&#368;" /><glyph d="M83 236V700H170V240Q170 159 216 112.5Q262 66 346 66Q431 66 477 112.5Q523 159 523 240V700H610V236Q610 121 541.5 55Q473 -11 346 -11Q220 -11 151.5 55.5Q83 122 83 236ZM346 700ZM432 0ZM218 805V861H475V805ZM346 700Z" glyph-name="Umacron" horiz-adv-x="693" unicode="&#362;" /><glyph d="M422 -186Q377 -186 348 -161.5Q319 -137 319 -100Q319 -75 331.5 -52Q344 -29 367 -11Q362 -11 356.5 -11Q351 -11 346 -11Q220 -11 151.5 55.5Q83 122 83 236V700H170V240Q170 159 216 112.5Q262 66 346 66Q431 66 477 112.5Q523 159 523 240V700H610V236Q610 155 575.5 99Q541 43 471 10Q428 -11 407.5 -33Q387 -55 387 -83Q387 -104 401.5 -115.5Q416 -127 442 -127Q453 -127 464 -125.5Q475 -124 488 -120V-170Q473 -178 456.5 -182Q440 -186 422 -186Z" glyph-name="Uogonek" horiz-adv-x="693" unicode="&#370;" /><glyph d="M83 236V700H170V240Q170 159 216 112.5Q262 66 346 66Q431 66 477 112.5Q523 159 523 240V700H610V236Q610 121 541.5 55Q473 -11 346 -11Q220 -11 151.5 55.5Q83 122 83 236ZM346 700ZM432 0ZM245 841Q245 884 274 912.5Q303 941 345 941Q388 941 417.5 912.5Q447 884 447 841Q447 799 417.5 770.5Q388 742 345 742Q303 742 274 770.5Q245 799 245 841ZM294 841Q294 819 309 804Q324 789 345 789Q367 789 382 804Q397 819 397 841Q397 864 382 879Q367 894 345 894Q323 894 308.5 879Q294 864 294 841ZM346 700Z" glyph-name="Uring" horiz-adv-x="693" unicode="&#366;" /><glyph d="M83 236V700H170V240Q170 159 216 112.5Q262 66 346 66Q431 66 477 112.5Q523 159 523 240V700H610V236Q610 121 541.5 55Q473 -11 346 -11Q220 -11 151.5 55.5Q83 122 83 236ZM346 700ZM432 0ZM417 747Q398 747 381.5 752Q365 757 351 767L314 794Q306 800 297 803Q288 806 280 806Q259 806 247.5 791.5Q236 777 236 751H187Q187 804 211.5 834.5Q236 865 278 865Q295 865 310.5 860Q326 855 339 845L375 819Q384 813 395.5 808.5Q407 804 415 804Q436 804 446 818Q456 832 456 861H504Q504 806 481.5 776.5Q459 747 417 747ZM346 700Z" glyph-name="Utilde" horiz-adv-x="693" unicode="&#360;" /><glyph d="M353 0H265L19 700H112L312 117L510 700H599Z" glyph-name="V" horiz-adv-x="618" unicode="V" /><glyph d="M299 0H211L29 700H120L261 132L427 700H515L683 131L821 700H910L729 0H642L470 559ZM470 700Z" glyph-name="W" horiz-adv-x="939" unicode="W" /><glyph d="M299 0H211L29 700H120L261 132L427 700H515L683 131L821 700H910L729 0H642L470 559ZM470 700ZM511 892H602L503 751H435ZM470 700Z" glyph-name="Wacute" horiz-adv-x="939" unicode="&#7810;" /><glyph d="M299 0H211L29 700H120L261 132L427 700H515L683 131L821 700H910L729 0H642L470 559ZM470 700ZM537 751 470 849H469L402 751H336L430 892H509L603 751ZM470 700Z" glyph-name="Wcircumflex" horiz-adv-x="939" unicode="&#372;" /><glyph d="M299 0H211L29 700H120L261 132L427 700H515L683 131L821 700H910L729 0H642L470 559ZM470 700ZM440 878V798H363V878ZM576 878V798H499V878ZM470 700Z" glyph-name="Wdieresis" horiz-adv-x="939" unicode="&#7812;" /><glyph d="M299 0H211L29 700H120L261 132L427 700H515L683 131L821 700H910L729 0H642L470 559ZM470 700ZM509 751H434L340 892H437ZM470 700Z" glyph-name="Wgrave" horiz-adv-x="939" unicode="&#7808;" /><glyph d="M597 0H496L303 290L111 0H15L254 354L27 700H128L309 423L495 700H590L357 360Z" glyph-name="X" horiz-adv-x="614" unicode="X" /><glyph d="M343 267V0H256V261L16 700H110L299 344L492 700H583ZM302 700Z" glyph-name="Y" horiz-adv-x="598" unicode="Y" /><glyph d="M343 267V0H256V261L16 700H110L299 344L492 700H583ZM302 700ZM343 892H434L335 751H267ZM302 700Z" glyph-name="Yacute" horiz-adv-x="598" unicode="&#221;" /><glyph d="M343 267V0H256V261L16 700H110L299 344L492 700H583ZM302 700ZM369 751 302 849H301L234 751H168L262 892H341L435 751ZM302 700Z" glyph-name="Ycircumflex" horiz-adv-x="598" unicode="&#374;" /><glyph d="M343 267V0H256V261L16 700H110L299 344L492 700H583ZM302 700ZM272 878V798H195V878ZM408 878V798H331V878ZM302 700Z" glyph-name="Ydieresis" horiz-adv-x="598" unicode="&#376;" /><glyph d="M343 267V0H256V261L16 700H110L299 344L492 700H583ZM302 700ZM341 751H266L172 892H269ZM302 700Z" glyph-name="Ygrave" horiz-adv-x="598" unicode="&#7922;" /><glyph d="M56 625V700H539V631L149 75H552V0H40V70L430 625ZM296 700Z" glyph-name="Z" horiz-adv-x="593" unicode="Z" /><glyph d="M56 625V700H539V631L149 75H552V0H40V70L430 625ZM296 700ZM337 892H428L329 751H261ZM296 700Z" glyph-name="Zacute" horiz-adv-x="593" unicode="&#377;" /><glyph d="M56 625V700H539V631L149 75H552V0H40V70L430 625ZM296 700ZM228 892 295 794H296L363 892H429L335 751H256L162 892ZM296 700Z" glyph-name="Zcaron" horiz-adv-x="593" unicode="&#381;" /><glyph d="M56 625V700H539V631L149 75H552V0H40V70L430 625ZM296 700ZM341 888V798H251V888ZM296 700Z" glyph-name="Zdotaccent" horiz-adv-x="593" unicode="&#379;" /><glyph d="M132 150Q132 102 160.5 79Q189 56 247 56Q319 56 356.5 89.5Q394 123 394 188V240H251Q190 240 161 218Q132 196 132 150ZM477 0H403L399 59Q377 24 334 6.5Q291 -11 226 -11Q138 -11 93 29.5Q48 70 48 148Q48 227 96 267Q144 307 239 307H394V351Q394 411 362 441.5Q330 472 268 472Q208 472 174 448.5Q140 425 140 387V379H62V387Q62 456 117.5 497.5Q173 539 270 539Q372 539 424.5 490.5Q477 442 477 348ZM268 528ZM425 0Z" glyph-name="a" horiz-adv-x="549" unicode="a" /><glyph d="M132 150Q132 102 160.5 79Q189 56 247 56Q319 56 356.5 89.5Q394 123 394 188V240H251Q190 240 161 218Q132 196 132 150ZM477 0H403L399 59Q377 24 334 6.5Q291 -11 226 -11Q138 -11 93 29.5Q48 70 48 148Q48 227 96 267Q144 307 239 307H394V351Q394 411 362 441.5Q330 472 268 472Q208 472 174 448.5Q140 425 140 387V379H62V387Q62 456 117.5 497.5Q173 539 270 539Q372 539 424.5 490.5Q477 442 477 348ZM268 528ZM425 0ZM306 739H398L299 598H231ZM268 528Z" glyph-name="aacute" horiz-adv-x="549" unicode="&#225;" /><glyph d="M132 150Q132 102 160.5 79Q189 56 247 56Q319 56 356.5 89.5Q394 123 394 188V240H251Q190 240 161 218Q132 196 132 150ZM477 0H403L399 59Q377 24 334 6.5Q291 -11 226 -11Q138 -11 93 29.5Q48 70 48 148Q48 227 96 267Q144 307 239 307H394V351Q394 411 362 441.5Q330 472 268 472Q208 472 174 448.5Q140 425 140 387V379H62V387Q62 456 117.5 497.5Q173 539 270 539Q372 539 424.5 490.5Q477 442 477 348ZM268 528ZM425 0ZM326 696V719H381V696Q381 646 350 617Q319 588 267 588Q215 588 184.5 617.5Q154 647 154 696V719H209V696Q209 670 225 654.5Q241 639 267 639Q294 639 310 654.5Q326 670 326 696ZM268 528Z" glyph-name="abreve" horiz-adv-x="549" unicode="&#259;" /><glyph d="M132 150Q132 102 160.5 79Q189 56 247 56Q319 56 356.5 89.5Q394 123 394 188V240H251Q190 240 161 218Q132 196 132 150ZM477 0H403L399 59Q377 24 334 6.5Q291 -11 226 -11Q138 -11 93 29.5Q48 70 48 148Q48 227 96 267Q144 307 239 307H394V351Q394 411 362 441.5Q330 472 268 472Q208 472 174 448.5Q140 425 140 387V379H62V387Q62 456 117.5 497.5Q173 539 270 539Q372 539 424.5 490.5Q477 442 477 348ZM268 528ZM425 0ZM335 598 268 696H267L200 598H134L228 739H307L401 598ZM268 528Z" glyph-name="acircumflex" horiz-adv-x="549" unicode="&#226;" /><glyph d="M242 739H334L235 598H167ZM204 528Z" glyph-name="acute" horiz-adv-x="500" unicode="&#180;" /><glyph d="M119 892H210L111 751H43ZM78 700Z" glyph-name="acute.case" horiz-adv-x="250" /><glyph d="M132 150Q132 102 160.5 79Q189 56 247 56Q319 56 356.5 89.5Q394 123 394 188V240H251Q190 240 161 218Q132 196 132 150ZM477 0H403L399 59Q377 24 334 6.5Q291 -11 226 -11Q138 -11 93 29.5Q48 70 48 148Q48 227 96 267Q144 307 239 307H394V351Q394 411 362 441.5Q330 472 268 472Q208 472 174 448.5Q140 425 140 387V379H62V387Q62 456 117.5 497.5Q173 539 270 539Q372 539 424.5 490.5Q477 442 477 348ZM268 528ZM425 0ZM238 711V630H161V711ZM374 711V630H297V711ZM268 528Z" glyph-name="adieresis" horiz-adv-x="549" unicode="&#228;" /><glyph d="M613 474Q548 474 512.5 438Q477 402 477 342V306H749V342Q749 402 713 438Q677 474 613 474ZM826 161V150Q826 76 772.5 32.5Q719 -11 619 -11Q543 -11 492.5 19Q442 49 420 108Q410 49 361 19Q312 -11 227 -11Q139 -11 94 29.5Q49 70 49 148Q49 227 97 266.5Q145 306 240 306H395V351Q395 410 362.5 442Q330 474 268 474Q207 474 172 450Q137 426 137 387V379H59V387Q59 457 113.5 498Q168 539 267 539Q330 539 373 518Q416 497 439 455Q466 497 511 518Q556 539 618 539Q719 539 774.5 481.5Q830 424 830 327V241H477V185Q477 125 513 90.5Q549 56 614 56Q678 56 713 82Q748 108 748 153V161ZM133 150Q133 102 161.5 79Q190 56 248 56Q320 56 357.5 89.5Q395 123 395 188V241H252Q191 241 162 219Q133 197 133 150ZM439 528Z" glyph-name="ae" horiz-adv-x="883" unicode="&#230;" /><glyph d="M132 150Q132 102 160.5 79Q189 56 247 56Q319 56 356.5 89.5Q394 123 394 188V240H251Q190 240 161 218Q132 196 132 150ZM477 0H403L399 59Q377 24 334 6.5Q291 -11 226 -11Q138 -11 93 29.5Q48 70 48 148Q48 227 96 267Q144 307 239 307H394V351Q394 411 362 441.5Q330 472 268 472Q208 472 174 448.5Q140 425 140 387V379H62V387Q62 456 117.5 497.5Q173 539 270 539Q372 539 424.5 490.5Q477 442 477 348ZM268 528ZM425 0ZM304 598H235L137 739H228ZM268 528Z" glyph-name="agrave" horiz-adv-x="549" unicode="&#224;" /><glyph d="M132 150Q132 102 160.5 79Q189 56 247 56Q319 56 356.5 89.5Q394 123 394 188V240H251Q190 240 161 218Q132 196 132 150ZM477 0H403L399 59Q377 24 334 6.5Q291 -11 226 -11Q138 -11 93 29.5Q48 70 48 148Q48 227 96 267Q144 307 239 307H394V351Q394 411 362 441.5Q330 472 268 472Q208 472 174 448.5Q140 425 140 387V379H62V387Q62 456 117.5 497.5Q173 539 270 539Q372 539 424.5 490.5Q477 442 477 348ZM268 528ZM425 0ZM139 633V688H396V633ZM268 528Z" glyph-name="amacron" horiz-adv-x="549" unicode="&#257;" /><glyph d="M299 649Q259 649 234.5 623Q210 597 210 557Q210 530 223.5 503Q237 476 277 430Q341 468 364 498.5Q387 529 387 566Q387 602 363 625.5Q339 649 299 649ZM136 192Q136 130 180.5 95Q225 60 305 60Q355 60 394.5 71.5Q434 83 462 107L250 343Q187 306 161.5 270.5Q136 235 136 192ZM644 0H558L510 53Q473 21 420.5 5Q368 -11 302 -11Q179 -11 113 41Q47 93 47 187Q47 246 80 293Q113 340 204 395Q165 440 148.5 477Q132 514 132 552Q132 620 178.5 665.5Q225 711 301 711Q374 711 418 670.5Q462 630 462 568Q462 514 433 471Q404 428 325 377L513 168Q525 194 530.5 225Q536 256 536 292V342H612V287Q612 236 600.5 190.5Q589 145 566 109L644 22Z" glyph-name="ampersand" horiz-adv-x="673" unicode="&amp;" /><glyph d="M132 150Q132 102 160.5 79Q189 56 247 56Q319 56 356.5 89.5Q394 123 394 188V240H251Q190 240 161 218Q132 196 132 150ZM478 -120V-170Q463 -178 446.5 -182Q430 -186 412 -186Q367 -186 338 -161.5Q309 -137 309 -100Q309 -66 332.5 -37Q356 -8 402 16L399 59Q377 24 334 6.5Q291 -11 226 -11Q138 -11 93 29.5Q48 70 48 148Q48 227 96 267Q144 307 239 307H394V351Q394 411 362 441.5Q330 472 268 472Q208 472 174 448.5Q140 425 140 387V379H62V387Q62 456 117.5 497.5Q173 539 270 539Q372 539 424.5 490.5Q477 442 477 348V0H448Q411 -22 394 -41.5Q377 -61 377 -83Q377 -104 391.5 -115.5Q406 -127 432 -127Q443 -127 454 -125.5Q465 -124 478 -120Z" glyph-name="aogonek" horiz-adv-x="549" unicode="&#261;" /><glyph d="M363 409Q388 409 403 423.5Q418 438 436 483L487 461Q465 396 438 369.5Q411 343 368 343Q347 343 328 348Q309 353 293 363L255 386Q232 400 219 405Q206 410 194 410Q167 410 149.5 393.5Q132 377 117 337L68 357Q87 420 115.5 448.5Q144 477 188 477Q211 477 233 470.5Q255 464 275 451L310 429Q328 418 340 413.5Q352 409 363 409ZM363 258Q388 258 403 272.5Q418 287 436 332L487 310Q465 245 438 218.5Q411 192 368 192Q347 192 328 197Q309 202 293 212L255 235Q232 249 219 254Q206 259 194 259Q167 259 149.5 242.5Q132 226 117 186L68 206Q87 269 115.5 297.5Q144 326 188 326Q211 326 233 319.5Q255 313 275 300L310 278Q328 267 340 262.5Q352 258 363 258Z" glyph-name="approxequal" horiz-adv-x="551" unicode="&#8776;" /><glyph d="M132 150Q132 102 160.5 79Q189 56 247 56Q319 56 356.5 89.5Q394 123 394 188V240H251Q190 240 161 218Q132 196 132 150ZM477 0H403L399 59Q377 24 334 6.5Q291 -11 226 -11Q138 -11 93 29.5Q48 70 48 148Q48 227 96 267Q144 307 239 307H394V351Q394 411 362 441.5Q330 472 268 472Q208 472 174 448.5Q140 425 140 387V379H62V387Q62 456 117.5 497.5Q173 539 270 539Q372 539 424.5 490.5Q477 442 477 348ZM268 528ZM425 0ZM167 687Q167 730 196 758.5Q225 787 267 787Q310 787 339.5 758.5Q369 730 369 687Q369 645 339.5 616.5Q310 588 267 588Q225 588 196 616.5Q167 645 167 687ZM216 687Q216 665 231 650Q246 635 267 635Q289 635 304 650Q319 665 319 687Q319 710 304 725Q289 740 267 740Q245 740 230.5 725Q216 710 216 687ZM268 528Z" glyph-name="aring" horiz-adv-x="549" unicode="&#229;" /><glyph d="M275 700 439 341H356L242 606L128 340H44L209 700Z" glyph-name="asciicircum" horiz-adv-x="484" unicode="^" /><glyph d="M363 297Q388 297 403 311.5Q418 326 436 371L487 349Q465 284 438 257.5Q411 231 368 231Q347 231 328 236Q309 241 293 251L255 274Q232 288 219 293Q206 298 194 298Q167 298 149.5 281.5Q132 265 117 225L68 245Q87 308 115.5 336.5Q144 365 188 365Q211 365 233 358.5Q255 352 275 339L310 317Q328 306 340 301.5Q352 297 363 297Z" glyph-name="asciitilde" horiz-adv-x="555" unicode="~" /><glyph d="M270 461 286 329V302H207V329L223 462L116 382L93 368L54 437L77 450L199 501L79 552L54 566L93 635L119 620L223 542L207 671V700H286V671L270 543L373 620L399 635L438 566L413 552L293 501L415 450L438 437L399 368L376 382Z" glyph-name="asterisk" horiz-adv-x="492" unicode="*" /><glyph d="M554 422H622L589 154Q583 107 598 82Q613 57 647 57Q697 57 723.5 106Q750 155 750 245Q750 392 669.5 474Q589 556 440 556Q292 556 212.5 470.5Q133 385 133 232Q133 81 209.5 -2Q286 -85 430 -85Q469 -85 504 -78.5Q539 -72 573 -59L589 -118Q554 -133 514.5 -140.5Q475 -148 430 -148Q250 -148 153 -47.5Q56 53 56 232Q56 414 156 517Q256 620 440 620Q625 620 726.5 520Q828 420 828 245Q828 129 779.5 63Q731 -3 640 -3Q585 -3 551.5 21.5Q518 46 512 92Q491 64 459.5 50Q428 36 386 36Q327 36 289 71.5Q251 107 251 162Q251 171 251.5 177.5Q252 184 253 189L264 277Q273 349 313.5 389Q354 429 419 429Q463 429 495 413Q527 397 544 367ZM410 102Q460 102 485.5 125.5Q511 149 520 209L528 262Q535 312 511.5 338Q488 364 436 364Q392 364 369 341.5Q346 319 338 261L330 205Q329 197 328.5 189.5Q328 182 328 178Q328 138 348 120Q368 102 410 102Z" glyph-name="at" horiz-adv-x="887" unicode="@" /><glyph d="M132 150Q132 102 160.5 79Q189 56 247 56Q319 56 356.5 89.5Q394 123 394 188V240H251Q190 240 161 218Q132 196 132 150ZM477 0H403L399 59Q377 24 334 6.5Q291 -11 226 -11Q138 -11 93 29.5Q48 70 48 148Q48 227 96 267Q144 307 239 307H394V351Q394 411 362 441.5Q330 472 268 472Q208 472 174 448.5Q140 425 140 387V379H62V387Q62 456 117.5 497.5Q173 539 270 539Q372 539 424.5 490.5Q477 442 477 348ZM268 528ZM425 0ZM340 594Q321 594 304.5 599Q288 604 274 614L237 641Q229 647 220 650Q211 653 203 653Q182 653 170.5 638.5Q159 624 159 598H110Q110 651 134.5 681.5Q159 712 201 712Q218 712 233.5 707Q249 702 262 692L298 666Q307 660 318.5 655.5Q330 651 338 651Q359 651 369 665Q379 679 379 708H427Q427 653 404.5 623.5Q382 594 340 594ZM268 528Z" glyph-name="atilde" horiz-adv-x="549" unicode="&#227;" /><glyph d="M324 -11Q264 -11 220.5 9Q177 29 155 67L151 0H77V730H160V464Q184 500 227 519.5Q270 539 327 539Q415 539 467 483Q519 427 519 335V193Q519 101 466 45Q413 -11 324 -11ZM303 63Q371 63 403.5 99Q436 135 436 211V316Q436 391 402.5 428Q369 465 303 465Q233 465 196.5 425.5Q160 386 160 312V216Q160 142 196.5 102.5Q233 63 303 63Z" glyph-name="b" horiz-adv-x="578" unicode="b" /><glyph d="M510 -126H427L20 758H103Z" glyph-name="backslash" horiz-adv-x="530" unicode="\" /><glyph d="M89 758H177V-126H89Z" glyph-name="bar" horiz-adv-x="266" unicode="|" /><glyph d="M138 317V316Q182 306 204 278Q226 250 226 204V54Q226 -3 254.5 -29.5Q283 -56 341 -56H373V-131H337Q238 -131 188 -86Q138 -41 138 49V204Q138 244 112 264Q86 284 33 284H21V349H33Q86 349 112 369Q138 389 138 429V583Q138 673 188 718Q238 763 337 763H373V688H341Q283 688 254.5 661.5Q226 635 226 578V429Q226 383 204 355Q182 327 138 317Z" glyph-name="braceleft" horiz-adv-x="411" unicode="{" /><glyph d="M273 317V316Q229 306 207 278Q185 250 185 204V54Q185 -3 156.5 -29.5Q128 -56 70 -56H38V-131H74Q173 -131 223 -86Q273 -41 273 49V204Q273 244 299 264Q325 284 378 284H390V349H378Q325 349 299 369Q273 389 273 429V583Q273 673 223 718Q173 763 74 763H38V688H70Q128 688 156.5 661.5Q185 635 185 578V429Q185 383 207 355Q229 327 273 317Z" glyph-name="braceright" horiz-adv-x="411" unicode="}" /><glyph d="M309 -126H89V758H309V686H177V-54H309Z" glyph-name="bracketleft" horiz-adv-x="348" unicode="[" /><glyph d="M39 -126H259V758H39V686H171V-54H39Z" glyph-name="bracketright" horiz-adv-x="348" unicode="]" /><glyph d="M308 696V719H363V696Q363 646 332 617Q301 588 249 588Q197 588 166.5 617.5Q136 647 136 696V719H191V696Q191 670 207 654.5Q223 639 249 639Q276 639 292 654.5Q308 670 308 696ZM250 528Z" glyph-name="breve" horiz-adv-x="500" unicode="&#728;" /><glyph d="M184 850V873H239V850Q239 800 208 770.5Q177 741 125 741Q73 741 42.5 770.5Q12 800 12 850V873H67V850Q67 824 83 808.5Q99 793 125 793Q152 793 168 808.5Q184 824 184 850ZM126 700Z" glyph-name="breve.case" horiz-adv-x="250" /><glyph d="M88 -126V205H176V-126ZM176 758V427H88V758Z" glyph-name="brokenbar" horiz-adv-x="264" unicode="&#166;" /><glyph d="M260 428V271H95V428Z" glyph-name="bullet" horiz-adv-x="355" unicode="&#8226;" /><glyph d="M410 173V183H493V173Q493 91 436.5 40Q380 -11 280 -11Q174 -11 116 45.5Q58 102 58 198V331Q58 426 116 482.5Q174 539 280 539Q380 539 436 489Q492 439 492 355V345H410V356Q410 407 375.5 438.5Q341 470 280 470Q214 470 177.5 432.5Q141 395 141 332V198Q141 134 177.5 96.5Q214 59 280 59Q341 59 375.5 90.5Q410 122 410 173ZM281 528ZM275 10Z" glyph-name="c" horiz-adv-x="540" unicode="c" /><glyph d="M410 173V183H493V173Q493 91 436.5 40Q380 -11 280 -11Q174 -11 116 45.5Q58 102 58 198V331Q58 426 116 482.5Q174 539 280 539Q380 539 436 489Q492 439 492 355V345H410V356Q410 407 375.5 438.5Q341 470 280 470Q214 470 177.5 432.5Q141 395 141 332V198Q141 134 177.5 96.5Q214 59 280 59Q341 59 375.5 90.5Q410 122 410 173ZM281 528ZM275 10ZM319 739H411L312 598H244ZM281 528Z" glyph-name="cacute" horiz-adv-x="540" unicode="&#263;" /><glyph d="M182 739 249 641H250L317 739H383L289 598H210L116 739ZM250 528Z" glyph-name="caron" horiz-adv-x="500" unicode="&#711;" /><glyph d="M58 892 125 794H126L193 892H259L165 751H86L-8 892ZM126 700Z" glyph-name="caron.case" horiz-adv-x="250" /><glyph d="M76 735H147V714L123 588H76ZM70 700Z" glyph-name="caron.salt" horiz-adv-x="229" /><glyph d="M410 173V183H493V173Q493 91 436.5 40Q380 -11 280 -11Q174 -11 116 45.5Q58 102 58 198V331Q58 426 116 482.5Q174 539 280 539Q380 539 436 489Q492 439 492 355V345H410V356Q410 407 375.5 438.5Q341 470 280 470Q214 470 177.5 432.5Q141 395 141 332V198Q141 134 177.5 96.5Q214 59 280 59Q341 59 375.5 90.5Q410 122 410 173ZM281 528ZM275 10ZM213 739 280 641H281L348 739H414L320 598H241L147 739ZM281 528Z" glyph-name="ccaron" horiz-adv-x="540" unicode="&#269;" /><glyph d="M372 -131Q372 -171 347.5 -195Q323 -219 278 -219Q235 -219 211.5 -201.5Q188 -184 188 -153V-143H238V-148Q238 -158 247.5 -163.5Q257 -169 276 -169Q295 -169 304 -160Q313 -151 313 -133Q313 -116 303.5 -107.5Q294 -99 275 -99Q266 -99 258 -101Q250 -103 236 -110L197 -88L235 -8Q150 4 104 58.5Q58 113 58 198V331Q58 426 116 482.5Q174 539 280 539Q380 539 436 489Q492 439 492 355V345H410V356Q410 407 375.5 438.5Q341 470 280 470Q214 470 177.5 432.5Q141 395 141 332V198Q141 134 177.5 96.5Q214 59 280 59Q341 59 375.5 90.5Q410 122 410 173V183H493V173Q493 92 438 40.5Q383 -11 287 -11L267 -54Q275 -52 279.5 -51.5Q284 -51 290 -51Q328 -51 350 -73.5Q372 -96 372 -131Z" glyph-name="ccedilla" horiz-adv-x="540" unicode="&#231;" /><glyph d="M410 173V183H493V173Q493 91 436.5 40Q380 -11 280 -11Q174 -11 116 45.5Q58 102 58 198V331Q58 426 116 482.5Q174 539 280 539Q380 539 436 489Q492 439 492 355V345H410V356Q410 407 375.5 438.5Q341 470 280 470Q214 470 177.5 432.5Q141 395 141 332V198Q141 134 177.5 96.5Q214 59 280 59Q341 59 375.5 90.5Q410 122 410 173ZM281 528ZM275 10ZM348 598 281 696H280L213 598H147L241 739H320L414 598ZM281 528Z" glyph-name="ccircumflex" horiz-adv-x="540" unicode="&#265;" /><glyph d="M410 173V183H493V173Q493 91 436.5 40Q380 -11 280 -11Q174 -11 116 45.5Q58 102 58 198V331Q58 426 116 482.5Q174 539 280 539Q380 539 436 489Q492 439 492 355V345H410V356Q410 407 375.5 438.5Q341 470 280 470Q214 470 177.5 432.5Q141 395 141 332V198Q141 134 177.5 96.5Q214 59 280 59Q341 59 375.5 90.5Q410 122 410 173ZM281 528ZM275 10ZM326 723V633H236V723ZM281 528Z" glyph-name="cdotaccent" horiz-adv-x="540" unicode="&#267;" /><glyph d="M223 -99Q214 -99 206 -101Q198 -103 184 -110L145 -88L194 14H247L215 -54Q224 -52 228.5 -51.5Q233 -51 238 -51Q276 -51 298 -73.5Q320 -96 320 -131Q320 -171 295 -195Q270 -219 226 -219Q183 -219 159.5 -201.5Q136 -184 136 -153V-143H186V-148Q186 -158 195.5 -163.5Q205 -169 224 -169Q243 -169 252 -160.5Q261 -152 261 -133Q261 -116 251.5 -107.5Q242 -99 223 -99ZM237 10Z" glyph-name="cedilla" horiz-adv-x="500" unicode="&#184;" /><glyph d="M496 276V266Q496 193 450.5 144Q405 95 324 85V-10H245V85Q157 95 109 150Q61 205 61 290V424Q61 508 109.5 563.5Q158 619 245 629V711H324V629Q406 619 450.5 571Q495 523 495 448V438H414V449Q414 500 379.5 531Q345 562 284 562Q218 562 181.5 524.5Q145 487 145 424V290Q145 227 181.5 189.5Q218 152 284 152Q345 152 379.5 183.5Q414 215 414 266V276Z" glyph-name="cent" horiz-adv-x="549" unicode="&#162;" /><glyph d="M317 598 250 696H249L182 598H116L210 739H289L383 598ZM250 528Z" glyph-name="circumflex" horiz-adv-x="500" unicode="&#710;" /><glyph d="M193 751 126 849H125L58 751H-8L86 892H165L259 751ZM126 700Z" glyph-name="circumflex.case" horiz-adv-x="250" /><glyph d="M162 96V0H73V96ZM70 38ZM162 528V432H73V528ZM70 470Z" glyph-name="colon" horiz-adv-x="235" unicode=":" /><glyph d="M77 96H166V74L108 -118H46Z" glyph-name="comma" horiz-adv-x="234" unicode="," /><glyph d="M40 65H111V49L75 -68H24Z" glyph-name="comma.denominator" horiz-adv-x="145" unicode="&#63071;" /><glyph d="M40 415H111V399L75 282H24Z" glyph-name="comma.numerator" horiz-adv-x="143" unicode="&#63083;" /><glyph d="M70 -50H149V-71L112 -196H53ZM110 10ZM110 -197Z" glyph-name="commaaccent" horiz-adv-x="236" unicode="&#63171;" /><glyph d="M160 629H74V651L117 776H180ZM120 528Z" glyph-name="commaaccent.salt" horiz-adv-x="236" /><glyph d="M414 -10Q265 -10 159.5 95.5Q54 201 54 350Q54 499 159.5 604.5Q265 710 414 710Q563 710 668.5 604.5Q774 499 774 350Q774 201 668.5 95.5Q563 -10 414 -10ZM414 663Q285 663 193.5 571Q102 479 102 350Q102 221 193.5 129Q285 37 414 37Q543 37 635 129Q727 221 727 350Q727 479 635 571Q543 663 414 663ZM506 276V287H589V276Q589 212 542 170.5Q495 129 415 129Q329 129 281 174Q233 219 233 293V405Q233 479 281 524Q329 569 415 569Q496 569 542 528.5Q588 488 588 423V411H506V423Q506 457 482 478Q458 499 415 499Q368 499 342.5 474Q317 449 317 406V293Q317 250 342.5 225Q368 200 415 200Q458 200 482 221Q506 242 506 276Z" glyph-name="copyright" horiz-adv-x="828" unicode="&#169;" /><glyph d="M544 148 487 93 422 162Q398 146 367.5 137.5Q337 129 300 129Q262 129 231.5 137.5Q201 146 177 164L110 97L53 152L126 226Q116 247 110.5 272.5Q105 298 105 327V353Q105 383 111 409.5Q117 436 128 458L57 534L115 587L181 519Q204 535 234 543Q264 551 300 551Q337 551 368.5 542.5Q400 534 424 517L489 583L548 530L475 456Q486 434 491.5 407.5Q497 381 497 353V327Q497 297 491 270.5Q485 244 474 222ZM300 478Q245 478 214.5 447Q184 416 184 362V318Q184 264 214.5 233Q245 202 300 202Q356 202 386.5 232.5Q417 263 417 318V362Q417 417 386.5 447.5Q356 478 300 478Z" glyph-name="currency" horiz-adv-x="601" unicode="&#164;" /><glyph d="M275 63Q345 63 381.5 102.5Q418 142 418 216V312Q418 386 381.5 425.5Q345 465 275 465Q208 465 175 428Q142 391 142 317V212Q142 137 175.5 100Q209 63 275 63ZM501 0H427L422 71Q399 31 355 10Q311 -11 251 -11Q163 -11 111 45Q59 101 59 193V335Q59 427 112 483Q165 539 254 539Q311 539 353 521Q395 503 418 468V730H501ZM579 700Z" glyph-name="d" horiz-adv-x="578" unicode="d" /><glyph d="M275 471 297 88V0H205V88L230 471L87 457H59V527H87L228 513L207 671V700H296V671L277 514L411 527H439V457H411Z" glyph-name="dagger" horiz-adv-x="498" unicode="&#8224;" /><glyph d="M227 229 207 350 228 471 87 457H59V527H87L228 513L207 671V700H296V671L277 514L411 527H439V457H411L277 470L297 350L276 230L411 243H439V173H411L276 186L296 29V0H207V29L227 187L87 173H59V243H87Z" glyph-name="daggerdbl" horiz-adv-x="498" unicode="&#8225;" /><glyph d="M275 63Q345 63 381.5 102.5Q418 142 418 216V312Q418 386 381.5 425.5Q345 465 275 465Q208 465 175 428Q142 391 142 317V212Q142 137 175.5 100Q209 63 275 63ZM501 0H427L422 71Q399 31 355 10Q311 -11 251 -11Q163 -11 111 45Q59 101 59 193V335Q59 427 112 483Q165 539 254 539Q311 539 353 521Q395 503 418 468V730H501ZM579 700ZM585 730H656V709L632 583H585ZM579 695Z" glyph-name="dcaron" horiz-adv-x="591" unicode="&#271;" /><glyph d="M275 63Q345 63 381.5 102.5Q418 142 418 216V312Q418 386 381.5 425.5Q345 465 275 465Q208 465 175 428Q142 391 142 317V212Q142 137 175.5 100Q209 63 275 63ZM427 0 422 71Q399 31 355 10Q311 -11 251 -11Q163 -11 111 45Q59 101 59 193V335Q59 427 112 483Q165 539 254 539Q311 539 353 521Q395 503 418 468V592H271V647H418V730H501V647H564V592H501V0Z" glyph-name="dcroat" horiz-adv-x="578" unicode="&#273;" /><glyph d="M186 711Q243 711 283 671Q323 631 323 574Q323 517 283 476.5Q243 436 186 436Q130 436 90 476.5Q50 517 50 574Q50 631 90 671Q130 711 186 711ZM186 485Q223 485 248.5 511Q274 537 274 574Q274 611 248.5 636.5Q223 662 186 662Q150 662 124.5 636.5Q99 611 99 574Q99 537 124.5 511Q150 485 186 485Z" glyph-name="degree" horiz-adv-x="373" unicode="&#176;" /><glyph d="M220 713V632H143V713ZM356 713V632H279V713ZM250 530Z" glyph-name="dieresis" horiz-adv-x="500" unicode="&#168;" /><glyph d="M96 878V798H19V878ZM232 878V798H155V878ZM126 700Z" glyph-name="dieresis.case" horiz-adv-x="250" /><glyph d="M491 373V298H68V373ZM324 183V100H234V183ZM324 571V488H234V571Z" glyph-name="divide" horiz-adv-x="559" unicode="&#247;" /><glyph d="M329 -10V-99H250V-9Q149 0 98 45Q47 90 47 171V183H134V173Q134 114 176 86.5Q218 59 304 59Q378 59 416 94Q454 129 454 195Q454 238 430.5 264.5Q407 291 357 303L216 337Q133 357 94.5 400Q56 443 56 516Q56 597 107 648Q158 699 250 709V797H329V710Q429 702 481 652.5Q533 603 533 518V506H446V516Q446 580 407 611Q368 642 289 642Q216 642 179 611.5Q142 581 142 523Q142 480 165 456Q188 432 242 419L388 383Q464 364 503.5 318.5Q543 273 543 204Q543 104 489 50Q435 -4 329 -10Z" glyph-name="dollar" horiz-adv-x="591" unicode="$" /><glyph d="M295 723V633H205V723ZM250 528Z" glyph-name="dotaccent" horiz-adv-x="500" unicode="&#729;" /><glyph d="M170 888V798H80V888ZM125 700Z" glyph-name="dotaccent.case" horiz-adv-x="250" /><glyph d="M163 528V0H79V528ZM121 528Z" glyph-name="dotlessi" horiz-adv-x="242" unicode="&#305;" /><glyph d="M277 473Q212 473 176 437.5Q140 402 140 342V306H413V342Q413 402 377 437.5Q341 473 277 473ZM490 161V150Q490 76 435 32.5Q380 -11 278 -11Q172 -11 115 43Q58 97 58 193V331Q58 426 115.5 482.5Q173 539 277 539Q380 539 436.5 483Q493 427 493 331V240H140V185Q140 125 176 90.5Q212 56 278 56Q342 56 377 82.5Q412 109 412 153V161ZM276 528ZM362 0Z" glyph-name="e" horiz-adv-x="547" unicode="e" /><glyph d="M277 473Q212 473 176 437.5Q140 402 140 342V306H413V342Q413 402 377 437.5Q341 473 277 473ZM490 161V150Q490 76 435 32.5Q380 -11 278 -11Q172 -11 115 43Q58 97 58 193V331Q58 426 115.5 482.5Q173 539 277 539Q380 539 436.5 483Q493 427 493 331V240H140V185Q140 125 176 90.5Q212 56 278 56Q342 56 377 82.5Q412 109 412 153V161ZM276 528ZM362 0ZM314 739H406L307 598H239ZM276 528Z" glyph-name="eacute" horiz-adv-x="547" unicode="&#233;" /><glyph d="M277 473Q212 473 176 437.5Q140 402 140 342V306H413V342Q413 402 377 437.5Q341 473 277 473ZM490 161V150Q490 76 435 32.5Q380 -11 278 -11Q172 -11 115 43Q58 97 58 193V331Q58 426 115.5 482.5Q173 539 277 539Q380 539 436.5 483Q493 427 493 331V240H140V185Q140 125 176 90.5Q212 56 278 56Q342 56 377 82.5Q412 109 412 153V161ZM276 528ZM362 0ZM334 696V719H389V696Q389 646 358 617Q327 588 275 588Q223 588 192.5 617.5Q162 647 162 696V719H217V696Q217 670 233 654.5Q249 639 275 639Q302 639 318 654.5Q334 670 334 696ZM276 528Z" glyph-name="ebreve" horiz-adv-x="547" unicode="&#277;" /><glyph d="M277 473Q212 473 176 437.5Q140 402 140 342V306H413V342Q413 402 377 437.5Q341 473 277 473ZM490 161V150Q490 76 435 32.5Q380 -11 278 -11Q172 -11 115 43Q58 97 58 193V331Q58 426 115.5 482.5Q173 539 277 539Q380 539 436.5 483Q493 427 493 331V240H140V185Q140 125 176 90.5Q212 56 278 56Q342 56 377 82.5Q412 109 412 153V161ZM276 528ZM362 0ZM208 739 275 641H276L343 739H409L315 598H236L142 739ZM276 528Z" glyph-name="ecaron" horiz-adv-x="547" unicode="&#283;" /><glyph d="M277 473Q212 473 176 437.5Q140 402 140 342V306H413V342Q413 402 377 437.5Q341 473 277 473ZM490 161V150Q490 76 435 32.5Q380 -11 278 -11Q172 -11 115 43Q58 97 58 193V331Q58 426 115.5 482.5Q173 539 277 539Q380 539 436.5 483Q493 427 493 331V240H140V185Q140 125 176 90.5Q212 56 278 56Q342 56 377 82.5Q412 109 412 153V161ZM276 528ZM362 0ZM343 598 276 696H275L208 598H142L236 739H315L409 598ZM276 528Z" glyph-name="ecircumflex" horiz-adv-x="547" unicode="&#234;" /><glyph d="M277 473Q212 473 176 437.5Q140 402 140 342V306H413V342Q413 402 377 437.5Q341 473 277 473ZM490 161V150Q490 76 435 32.5Q380 -11 278 -11Q172 -11 115 43Q58 97 58 193V331Q58 426 115.5 482.5Q173 539 277 539Q380 539 436.5 483Q493 427 493 331V240H140V185Q140 125 176 90.5Q212 56 278 56Q342 56 377 82.5Q412 109 412 153V161ZM276 528ZM362 0ZM246 711V630H169V711ZM382 711V630H305V711ZM276 528Z" glyph-name="edieresis" horiz-adv-x="547" unicode="&#235;" /><glyph d="M277 473Q212 473 176 437.5Q140 402 140 342V306H413V342Q413 402 377 437.5Q341 473 277 473ZM490 161V150Q490 76 435 32.5Q380 -11 278 -11Q172 -11 115 43Q58 97 58 193V331Q58 426 115.5 482.5Q173 539 277 539Q380 539 436.5 483Q493 427 493 331V240H140V185Q140 125 176 90.5Q212 56 278 56Q342 56 377 82.5Q412 109 412 153V161ZM276 528ZM362 0ZM321 723V633H231V723ZM276 528Z" glyph-name="edotaccent" horiz-adv-x="547" unicode="&#279;" /><glyph d="M277 473Q212 473 176 437.5Q140 402 140 342V306H413V342Q413 402 377 437.5Q341 473 277 473ZM490 161V150Q490 76 435 32.5Q380 -11 278 -11Q172 -11 115 43Q58 97 58 193V331Q58 426 115.5 482.5Q173 539 277 539Q380 539 436.5 483Q493 427 493 331V240H140V185Q140 125 176 90.5Q212 56 278 56Q342 56 377 82.5Q412 109 412 153V161ZM276 528ZM362 0ZM312 598H243L145 739H236ZM276 528Z" glyph-name="egrave" horiz-adv-x="547" unicode="&#232;" /><glyph d="M546 202Q546 100 483.5 44.5Q421 -11 303 -11Q185 -11 122.5 44.5Q60 100 60 202Q60 261 87.5 305Q115 349 166 373Q122 394 98.5 431.5Q75 469 75 519Q75 611 133.5 661Q192 711 303 711Q414 711 472.5 661Q531 611 531 519Q531 469 508 431.5Q485 394 441 372Q492 349 519 305Q546 261 546 202ZM159 516Q159 464 195.5 433.5Q232 403 291 403H315Q375 403 411.5 433.5Q448 464 448 516Q448 578 411 611Q374 644 303 644Q232 644 195.5 611Q159 578 159 516ZM459 203Q459 265 420 300.5Q381 336 315 336H291Q226 336 187 300.5Q148 265 148 203Q148 133 187.5 95.5Q227 58 303 58Q379 58 419 95.5Q459 133 459 203Z" glyph-name="eight" horiz-adv-x="606" unicode="8" /><glyph d="M295 103Q295 51 261 22.5Q227 -6 162 -6Q98 -6 64 22.5Q30 51 30 103Q30 131 43 151.5Q56 172 82 184Q61 194 50.5 212.5Q40 231 40 255Q40 303 71 329.5Q102 356 162 356Q222 356 253.5 329.5Q285 303 285 255Q285 231 274.5 212.5Q264 194 243 184Q269 172 282 151.5Q295 131 295 103ZM152 208H172Q192 208 205 221Q218 234 218 254Q218 279 204 292Q190 305 162 305Q134 305 120.5 292.5Q107 280 107 254Q107 234 120 221Q133 208 152 208ZM225 104Q225 126 209.5 140.5Q194 155 172 155H152Q130 155 115 140.5Q100 126 100 104Q100 76 115.5 61.5Q131 47 162 47Q193 47 209 61.5Q225 76 225 104Z" glyph-name="eight.denominator" horiz-adv-x="325" unicode="&#63069;" /><glyph d="M295 -37Q295 -89 261 -117.5Q227 -146 162 -146Q98 -146 64 -117.5Q30 -89 30 -37Q30 -9 43 11.5Q56 32 82 44Q61 54 50.5 72.5Q40 91 40 115Q40 163 71 189.5Q102 216 162 216Q222 216 253.5 189.5Q285 163 285 115Q285 91 274.5 72.5Q264 54 243 44Q269 32 282 11.5Q295 -9 295 -37ZM152 68H172Q192 68 205 81Q218 94 218 114Q218 139 204 152Q190 165 162 165Q134 165 120.5 152.5Q107 140 107 114Q107 94 120 81Q133 68 152 68ZM225 -36Q225 -14 209.5 0.5Q194 15 172 15H152Q130 15 115 0.5Q100 -14 100 -36Q100 -64 115.5 -78.5Q131 -93 162 -93Q193 -93 209 -78.5Q225 -64 225 -36Z" glyph-name="eight.inferior" horiz-adv-x="325" unicode="&#8328;" /><glyph d="M295 453Q295 401 261 372.5Q227 344 162 344Q98 344 64 372.5Q30 401 30 453Q30 481 43 501.5Q56 522 82 534Q61 544 50.5 562.5Q40 581 40 605Q40 653 71 679.5Q102 706 162 706Q222 706 253.5 679.5Q285 653 285 605Q285 581 274.5 562.5Q264 544 243 534Q269 522 282 501.5Q295 481 295 453ZM152 558H172Q192 558 205 571Q218 584 218 604Q218 629 204 642Q190 655 162 655Q134 655 120.5 642.5Q107 630 107 604Q107 584 120 571Q133 558 152 558ZM225 454Q225 476 209.5 490.5Q194 505 172 505H152Q130 505 115 490.5Q100 476 100 454Q100 426 115.5 411.5Q131 397 162 397Q193 397 209 411.5Q225 426 225 454Z" glyph-name="eight.numerator" horiz-adv-x="325" unicode="&#63081;" /><glyph d="M295 593Q295 541 261 512.5Q227 484 162 484Q98 484 64 512.5Q30 541 30 593Q30 621 43 641.5Q56 662 82 674Q61 684 50.5 702.5Q40 721 40 745Q40 793 71 819.5Q102 846 162 846Q222 846 253.5 819.5Q285 793 285 745Q285 721 274.5 702.5Q264 684 243 674Q269 662 282 641.5Q295 621 295 593ZM152 698H172Q192 698 205 711Q218 724 218 744Q218 769 204 782Q190 795 162 795Q134 795 120.5 782.5Q107 770 107 744Q107 724 120 711Q133 698 152 698ZM225 594Q225 616 209.5 630.5Q194 645 172 645H152Q130 645 115 630.5Q100 616 100 594Q100 566 115.5 551.5Q131 537 162 537Q193 537 209 551.5Q225 566 225 594Z" glyph-name="eight.superior" horiz-adv-x="325" unicode="&#8312;" /><glyph d="M547 202Q547 100 484.5 44.5Q422 -11 304 -11Q186 -11 123.5 44.5Q61 100 61 202Q61 261 88.5 305Q116 349 167 373Q123 394 99.5 431.5Q76 469 76 519Q76 611 134.5 661Q193 711 304 711Q415 711 473.5 661Q532 611 532 519Q532 469 509 431.5Q486 394 442 372Q493 349 520 305Q547 261 547 202ZM160 516Q160 464 196.5 433.5Q233 403 292 403H316Q376 403 412.5 433.5Q449 464 449 516Q449 578 412 611Q375 644 304 644Q233 644 196.5 611Q160 578 160 516ZM460 203Q460 265 421 300.5Q382 336 316 336H292Q227 336 188 300.5Q149 265 149 203Q149 133 188.5 95.5Q228 58 304 58Q380 58 420 95.5Q460 133 460 203Z" glyph-name="eight.tab" horiz-adv-x="609" unicode="&#65304;" /><glyph d="M161 96V0H72V96ZM69 38ZM380 96V0H291V96ZM288 38ZM599 96V0H510V96ZM507 38Z" glyph-name="ellipsis" horiz-adv-x="671" unicode="&#8230;" /><glyph d="M277 473Q212 473 176 437.5Q140 402 140 342V306H413V342Q413 402 377 437.5Q341 473 277 473ZM490 161V150Q490 76 435 32.5Q380 -11 278 -11Q172 -11 115 43Q58 97 58 193V331Q58 426 115.5 482.5Q173 539 277 539Q380 539 436.5 483Q493 427 493 331V240H140V185Q140 125 176 90.5Q212 56 278 56Q342 56 377 82.5Q412 109 412 153V161ZM276 528ZM362 0ZM147 633V688H404V633ZM276 528Z" glyph-name="emacron" horiz-adv-x="547" unicode="&#275;" /><glyph d="M73 276V353H845V276Z" glyph-name="emdash" horiz-adv-x="918" unicode="&#8212;" /><glyph d="M73 276V353H513V276Z" glyph-name="endash" horiz-adv-x="586" unicode="&#8211;" /><glyph d="M348 -186Q303 -186 274 -161.5Q245 -137 245 -100Q245 -75 257.5 -52Q270 -29 293 -11Q289 -11 285.5 -11Q282 -11 278 -11Q172 -11 115 43Q58 97 58 193V331Q58 426 115.5 482.5Q173 539 277 539Q380 539 436.5 483Q493 427 493 331V240H140V185Q140 125 176 90.5Q212 56 278 56Q342 56 377 82.5Q412 109 412 153V161H490V150Q490 103 466.5 67.5Q443 32 398 10Q354 -11 333.5 -33.5Q313 -56 313 -83Q313 -104 327.5 -115.5Q342 -127 368 -127Q379 -127 390 -125.5Q401 -124 414 -120V-170Q399 -178 382.5 -182Q366 -186 348 -186ZM277 473Q212 473 176 437.5Q140 402 140 342V306H413V342Q413 402 377 437.5Q341 473 277 473Z" glyph-name="eogonek" horiz-adv-x="547" unicode="&#281;" /><glyph d="M75 397V470H498V397ZM75 200V273H498V200Z" glyph-name="equal" horiz-adv-x="573" unicode="=" /><glyph d="M414 664Q342 664 278.5 633Q215 602 171 546V386H661V534Q618 595 553.5 629.5Q489 664 414 664ZM665 169 706 139Q656 69 578.5 29Q501 -11 414 -11Q265 -11 159.5 95Q54 201 54 350Q54 499 159.5 605Q265 711 414 711Q567 711 670.5 603.5Q774 496 774 335H171V155Q215 99 278.5 68Q342 37 414 37Q489 37 555 72Q621 107 665 169Z" glyph-name="estimated" horiz-adv-x="811" unicode="&#8494;" /><glyph d="M280 59Q347 59 383 95Q419 131 419 197V332Q419 397 383 433.5Q347 470 280 470Q214 470 177.5 432Q141 394 141 332V197Q141 131 177 95Q213 59 280 59ZM502 337V198Q502 99 445 44.5Q388 -10 280 -10Q173 -10 115.5 45Q58 100 58 198V331Q58 424 114 479Q170 534 271 534Q307 534 336.5 525Q366 516 390 498Q387 504 384 510.5Q381 517 375 529Q365 548 353 568.5Q341 589 326 609L236 573L214 625L291 656Q270 680 253 697.5Q236 715 221 730H316Q324 722 333 712.5Q342 703 359 683L442 716L464 665L394 637Q412 612 426.5 587Q441 562 452 538Q477 485 489.5 435Q502 385 502 337Z" glyph-name="eth" horiz-adv-x="566" unicode="&#240;" /><glyph d="M85 700H177V590Q177 530 174.5 425.5Q172 321 167 173H96Q91 321 88 425.5Q85 530 85 590ZM176 96V0H86V96Z" glyph-name="exclam" horiz-adv-x="262" unicode="!" /><glyph d="M80 -172H172V-62Q172 -2 169.5 102.5Q167 207 162 355H91Q86 207 83 102.5Q80 -2 80 -62ZM171 432V528H81V432Z" glyph-name="exclamdown" horiz-adv-x="252" unicode="&#161;" /><glyph d="M329 527V462H187V0H103V462H29V527H103V548Q103 637 153.5 683.5Q204 730 302 730H346V661H300Q243 661 215 634Q187 607 187 552V527Z" glyph-name="f" horiz-adv-x="348" unicode="f" /><glyph d="M329 527V462H187V0H103V462H29V527H103V548Q103 637 153.5 683.5Q204 730 302 730H346V661H300Q243 661 215 634Q187 607 187 552V527ZM677 527V462H535V0H451V462H377V527H451V548Q451 637 501.5 683.5Q552 730 650 730H694V661H648Q591 661 563 634Q535 607 535 552V527Z" glyph-name="f_f" horiz-adv-x="696" unicode="&#64256;" /><glyph d="M677 527V462H535V0H451V462H377V527H451V548Q451 637 501.5 683.5Q552 730 650 730H694V661H648Q591 661 563 634Q535 607 535 552V527ZM329 527V462H187V0H103V462H29V527H103V548Q103 637 153.5 683.5Q204 730 302 730H346V661H300Q243 661 215 634Q187 607 187 552V527ZM860 730V632H774V730ZM859 528V0H775V528ZM808 0Z" glyph-name="f_f_i" horiz-adv-x="938" unicode="&#64259;" /><glyph d="M677 527V462H535V0H451V462H377V527H451V548Q451 637 501.5 683.5Q552 730 650 730H694V661H648Q591 661 563 634Q535 607 535 552V527ZM329 527V462H187V0H103V462H29V527H103V548Q103 637 153.5 683.5Q204 730 302 730H346V661H300Q243 661 215 634Q187 607 187 552V527ZM859 730V0H775V730ZM817 730ZM939 700ZM921 350ZM817 0Z" glyph-name="f_f_l" horiz-adv-x="938" unicode="&#64260;" /><glyph d="M329 527V462H187V0H103V462H29V527H103V548Q103 637 153.5 683.5Q204 730 302 730H346V661H300Q243 661 215 634Q187 607 187 552V527ZM512 730V632H426V730ZM511 528V0H427V528ZM460 0Z" glyph-name="fi" horiz-adv-x="590" unicode="&#64257;" /><glyph d="M292 348H81V700H493V624H169V425H302Q418 425 478.5 371.5Q539 318 539 214Q539 105 477.5 47Q416 -11 298 -11Q181 -11 119.5 38.5Q58 88 58 180V198H144V184Q144 125 182.5 95.5Q221 66 297 66Q375 66 413.5 102.5Q452 139 452 215Q452 282 413 315Q374 348 292 348Z" glyph-name="five" horiz-adv-x="586" unicode="5" /><glyph d="M155 162H42V350H265V292H112V217H164Q225 217 256.5 189Q288 161 288 108Q288 54 255 24Q222 -6 159 -6Q97 -6 63.5 20.5Q30 47 30 93V103H99V97Q99 74 114 62.5Q129 51 158 51Q188 51 203 65Q218 79 218 109Q218 136 202.5 149Q187 162 155 162Z" glyph-name="five.denominator" horiz-adv-x="313" unicode="&#63066;" /><glyph d="M155 22H42V210H265V152H112V77H164Q225 77 256.5 49Q288 21 288 -32Q288 -86 255 -116Q222 -146 159 -146Q97 -146 63.5 -119.5Q30 -93 30 -47V-37H99V-43Q99 -66 114 -77.5Q129 -89 158 -89Q188 -89 203 -75Q218 -61 218 -31Q218 -4 202.5 9Q187 22 155 22Z" glyph-name="five.inferior" horiz-adv-x="313" unicode="&#8325;" /><glyph d="M155 512H42V700H265V642H112V567H164Q225 567 256.5 539Q288 511 288 458Q288 404 255 374Q222 344 159 344Q97 344 63.5 370.5Q30 397 30 443V453H99V447Q99 424 114 412.5Q129 401 158 401Q188 401 203 415Q218 429 218 459Q218 486 202.5 499Q187 512 155 512Z" glyph-name="five.numerator" horiz-adv-x="313" unicode="&#63078;" /><glyph d="M155 652H42V840H265V782H112V707H164Q225 707 256.5 679Q288 651 288 598Q288 544 255 514Q222 484 159 484Q97 484 63.5 510.5Q30 537 30 583V593H99V587Q99 564 114 552.5Q129 541 158 541Q188 541 203 555Q218 569 218 599Q218 626 202.5 639Q187 652 155 652Z" glyph-name="five.superior" horiz-adv-x="313" unicode="&#8309;" /><glyph d="M303 348H92V700H504V624H180V425H313Q429 425 489.5 371.5Q550 318 550 214Q550 105 488.5 47Q427 -11 309 -11Q192 -11 130.5 38.5Q69 88 69 180V198H155V184Q155 125 193.5 95.5Q232 66 308 66Q386 66 424.5 102.5Q463 139 463 215Q463 282 424 315Q385 348 303 348Z" glyph-name="five.tab" horiz-adv-x="609" unicode="&#65301;" /><glyph d="M329 527V462H187V0H103V462H29V527H103V548Q103 637 153.5 683.5Q204 730 302 730H346V661H300Q243 661 215 634Q187 607 187 552V527ZM511 730V0H427V730ZM469 730ZM591 700ZM573 350ZM469 0Z" glyph-name="fl" horiz-adv-x="590" unicode="&#64258;" /><glyph d="M263 333 226 26Q215 -67 162 -111.5Q109 -156 12 -156H-33V-87H15Q74 -87 105 -60Q136 -33 143 26L180 333H72V400H188L202 518Q213 611 266.5 655.5Q320 700 417 700H462V631H414Q355 631 324 604.5Q293 578 285 518L271 400H381V333Z" glyph-name="florin" horiz-adv-x="475" unicode="&#402;" /><glyph d="M191 700H279L131 288H436V700H523V0H436V207H38V281Z" glyph-name="four" horiz-adv-x="615" unicode="4" /><glyph d="M87 350H156L93 152H211V350H282V0H211V94H22V151Z" glyph-name="four.denominator" horiz-adv-x="328" unicode="&#63065;" /><glyph d="M87 210H156L93 12H211V210H282V-140H211V-46H22V11Z" glyph-name="four.inferior" horiz-adv-x="328" unicode="&#8324;" /><glyph d="M87 700H156L93 502H211V700H282V350H211V444H22V501Z" glyph-name="four.numerator" horiz-adv-x="328" unicode="&#63077;" /><glyph d="M87 840H156L93 642H211V840H282V490H211V584H22V641Z" glyph-name="four.superior" horiz-adv-x="328" unicode="&#8308;" /><glyph d="M188 700H276L128 288H433V700H520V0H433V207H35V281Z" glyph-name="four.tab" horiz-adv-x="609" unicode="&#65300;" /><glyph d="M257 700H336L-103 0H-182Z" glyph-name="fraction" horiz-adv-x="157" unicode="&#8260;" /><glyph d="M525 383V308H180V0H92V700H544V624H180V383ZM742 285V0H659V528H733L739 439Q763 487 811 512.5Q859 538 926 538V457H911Q829 457 785.5 412.5Q742 368 742 285ZM793 528ZM701 0Z" glyph-name="franc" horiz-adv-x="948" unicode="&#8355;" /><glyph d="M274 96Q343 96 380 133.5Q417 171 417 239V322Q417 390 380 428Q343 466 274 466Q208 466 174.5 429.5Q141 393 141 322V239Q141 168 174.5 132Q208 96 274 96ZM287 -190Q184 -190 130 -152Q76 -114 76 -42V-38H155V-42Q155 -83 188 -103.5Q221 -124 286 -124Q350 -124 383.5 -92.5Q417 -61 417 -2V97Q393 61 350 41.5Q307 22 250 22Q162 22 110 78Q58 134 58 226V335Q58 427 111 483Q164 539 253 539Q312 539 355.5 518.5Q399 498 422 459L426 528H500V5Q500 -89 445 -139.5Q390 -190 287 -190ZM283 528Z" glyph-name="g" horiz-adv-x="577" unicode="g" /><glyph d="M274 96Q343 96 380 133.5Q417 171 417 239V322Q417 390 380 428Q343 466 274 466Q208 466 174.5 429.5Q141 393 141 322V239Q141 168 174.5 132Q208 96 274 96ZM287 -190Q184 -190 130 -152Q76 -114 76 -42V-38H155V-42Q155 -83 188 -103.5Q221 -124 286 -124Q350 -124 383.5 -92.5Q417 -61 417 -2V97Q393 61 350 41.5Q307 22 250 22Q162 22 110 78Q58 134 58 226V335Q58 427 111 483Q164 539 253 539Q312 539 355.5 518.5Q399 498 422 459L426 528H500V5Q500 -89 445 -139.5Q390 -190 287 -190ZM283 528ZM341 696V719H396V696Q396 646 365 617Q334 588 282 588Q230 588 199.5 617.5Q169 647 169 696V719H224V696Q224 670 240 654.5Q256 639 282 639Q309 639 325 654.5Q341 670 341 696ZM283 528Z" glyph-name="gbreve" horiz-adv-x="577" unicode="&#287;" /><glyph d="M274 96Q343 96 380 133.5Q417 171 417 239V322Q417 390 380 428Q343 466 274 466Q208 466 174.5 429.5Q141 393 141 322V239Q141 168 174.5 132Q208 96 274 96ZM287 -190Q184 -190 130 -152Q76 -114 76 -42V-38H155V-42Q155 -83 188 -103.5Q221 -124 286 -124Q350 -124 383.5 -92.5Q417 -61 417 -2V97Q393 61 350 41.5Q307 22 250 22Q162 22 110 78Q58 134 58 226V335Q58 427 111 483Q164 539 253 539Q312 539 355.5 518.5Q399 498 422 459L426 528H500V5Q500 -89 445 -139.5Q390 -190 287 -190ZM283 528ZM350 598 283 696H282L215 598H149L243 739H322L416 598ZM283 528Z" glyph-name="gcircumflex" horiz-adv-x="577" unicode="&#285;" /><glyph d="M274 96Q343 96 380 133.5Q417 171 417 239V322Q417 390 380 428Q343 466 274 466Q208 466 174.5 429.5Q141 393 141 322V239Q141 168 174.5 132Q208 96 274 96ZM287 -190Q184 -190 130 -152Q76 -114 76 -42V-38H155V-42Q155 -83 188 -103.5Q221 -124 286 -124Q350 -124 383.5 -92.5Q417 -61 417 -2V97Q393 61 350 41.5Q307 22 250 22Q162 22 110 78Q58 134 58 226V335Q58 427 111 483Q164 539 253 539Q312 539 355.5 518.5Q399 498 422 459L426 528H500V5Q500 -89 445 -139.5Q390 -190 287 -190ZM283 528ZM328 723V633H238V723ZM283 528Z" glyph-name="gdotaccent" horiz-adv-x="577" unicode="&#289;" /><glyph d="M291 673Q227 673 193.5 637Q160 601 160 534V0H77V533Q77 630 133 685.5Q189 741 293 741Q395 741 449 693Q503 645 503 558Q503 498 476.5 458Q450 418 398 398Q468 378 503.5 331Q539 284 539 213Q539 110 474.5 55Q410 0 285 0H251V68H285Q370 68 412 104Q454 140 454 214Q454 287 410 324.5Q366 362 280 362H251V427H268Q344 427 382.5 458Q421 489 421 551Q421 609 387.5 641Q354 673 291 673Z" glyph-name="germandbls" horiz-adv-x="589" unicode="&#223;" /><glyph d="M331 598H262L164 739H255ZM295 528Z" glyph-name="grave" horiz-adv-x="500" unicode="`" /><glyph d="M210 751H135L41 892H138ZM171 700Z" glyph-name="grave.case" horiz-adv-x="250" /><glyph d="M517 265 59 24V111L427 297V298L59 483V569L517 330Z" glyph-name="greater" horiz-adv-x="551" unicode="&gt;" /><glyph d="M73 239 438 368V369L73 498V579L530 401V336L73 157ZM73 88H530V21H73Z" glyph-name="greaterequal" horiz-adv-x="595" unicode="&#8805;" /><glyph d="M194 457 36 263 194 70H281L134 263L281 457ZM378 457 220 263 378 70H465L318 263L465 457Z" glyph-name="guillemotleft" horiz-adv-x="522" unicode="&#171;" /><glyph d="M144 457 302 263 144 70H57L204 263L57 457ZM328 457 486 263 328 70H241L388 263L241 457Z" glyph-name="guillemotright" horiz-adv-x="522" unicode="&#187;" /><glyph d="M194 457 36 263 194 70H281L134 263L281 457Z" glyph-name="guilsinglleft" horiz-adv-x="338" unicode="&#8249;" /><glyph d="M144 457 302 263 144 70H57L204 263L57 457Z" glyph-name="guilsinglright" horiz-adv-x="338" unicode="&#8250;" /><glyph d="M160 312V0H77V730H160V463Q184 500 227 519.5Q270 539 327 539Q416 539 467 485Q518 431 518 341V0H434V322Q434 392 401 428.5Q368 465 303 465Q234 465 197 424.5Q160 384 160 312ZM120 689Z" glyph-name="h" horiz-adv-x="590" unicode="h" /><glyph d="M303 465Q234 465 197 424.5Q160 384 160 312V0H77V592H14V647H77V730H160V647H307V592H160V463Q184 500 227 519.5Q270 539 327 539Q416 539 467 485Q518 431 518 341V0H434V322Q434 392 401 428.5Q368 465 303 465Z" glyph-name="hbar" horiz-adv-x="590" unicode="&#295;" /><glyph d="M160 312V0H77V730H160V463Q184 500 227 519.5Q270 539 327 539Q416 539 467 485Q518 431 518 341V0H434V322Q434 392 401 428.5Q368 465 303 465Q234 465 197 424.5Q160 384 160 312ZM120 689ZM187 759 120 857H119L52 759H-14L80 900H159L253 759ZM120 689Z" glyph-name="hcircumflex" horiz-adv-x="590" unicode="&#293;" /><glyph d="M173 739H266L172 598H101ZM320 739H413L303 598H232ZM212 528Z" glyph-name="hungarumlaut" horiz-adv-x="500" unicode="&#733;" /><glyph d="M41 892H134L40 751H-31ZM188 892H281L171 751H100ZM82 700Z" glyph-name="hungarumlaut.case" horiz-adv-x="250" /><glyph d="M73 274V354H347V274Z" glyph-name="hyphen" horiz-adv-x="420" unicode="-" /><glyph d="M41 128V190H188V128Z" glyph-name="hyphen.denominator" horiz-adv-x="229" unicode="&#63019;" /><glyph d="M41 478V540H188V478Z" glyph-name="hyphen.numerator" horiz-adv-x="229" unicode="&#63024;" /><glyph d="M164 730V632H78V730ZM163 528V0H79V528ZM112 0Z" glyph-name="i" horiz-adv-x="242" unicode="i" /><glyph d="M163 528V0H79V528ZM121 528ZM159 739H251L152 598H84ZM121 528Z" glyph-name="iacute" horiz-adv-x="242" unicode="&#237;" /><glyph d="M163 528V0H79V528ZM121 528ZM188 598 121 696H120L53 598H-13L81 739H160L254 598ZM121 528Z" glyph-name="icircumflex" horiz-adv-x="242" unicode="&#238;" /><glyph d="M163 528V0H79V528ZM121 528ZM91 711V630H14V711ZM227 711V630H150V711ZM121 528Z" glyph-name="idieresis" horiz-adv-x="242" unicode="&#239;" /><glyph d="M163 528V0H79V528ZM121 528ZM157 598H88L-10 739H81ZM121 528Z" glyph-name="igrave" horiz-adv-x="242" unicode="&#236;" /><glyph d="M164 730V632H78V730ZM163 528V0H79V528ZM112 0ZM217 -180H179V-111H209Q265 -111 293 -89Q321 -67 321 -23V528H405V-20Q405 -97 357 -138.5Q309 -180 217 -180ZM406 730V632H320V730Z" glyph-name="ij" horiz-adv-x="484" unicode="&#307;" /><glyph d="M163 528V0H79V528ZM121 528ZM-8 633V688H249V633ZM121 528Z" glyph-name="imacron" horiz-adv-x="242" unicode="&#299;" /><glyph d="M800 301Q800 219 752.5 170.5Q705 122 622 122Q568 122 523 152.5Q478 183 433 252Q393 190 342 157Q291 124 235 124Q152 124 104.5 172.5Q57 221 57 303Q57 385 104.5 433.5Q152 482 235 482Q291 482 339.5 452.5Q388 423 431 362Q471 421 518.5 450.5Q566 480 622 480Q705 480 752.5 431.5Q800 383 800 301ZM129 303Q129 254 157 224.5Q185 195 233 195Q278 195 318.5 223Q359 251 393 306Q355 361 316.5 386Q278 411 233 411Q185 411 157 381.5Q129 352 129 303ZM727 301Q727 350 699.5 379Q672 408 624 408Q580 408 542.5 382.5Q505 357 475 308Q517 242 551 218Q585 194 624 194Q671 194 699 223.5Q727 253 727 301Z" glyph-name="infinity" horiz-adv-x="857" unicode="&#8734;" /><glyph d="M258 529V24Q258 -70 209 -113Q160 -156 57 -156H16V-87H61Q122 -87 148.5 -63.5Q175 -40 175 24V529Q175 622 224.5 665Q274 708 377 708H418V639H373Q312 639 285 615.5Q258 592 258 529Z" glyph-name="integral" horiz-adv-x="433" unicode="&#8747;" /><glyph d="M164 730V632H78V730ZM163 -120V-170Q148 -178 131.5 -182Q115 -186 97 -186Q52 -186 23 -161.5Q-6 -137 -6 -100Q-6 -68 16 -39.5Q38 -11 79 12V528H163V0H133Q96 -22 79 -41.5Q62 -61 62 -83Q62 -104 76.5 -115.5Q91 -127 117 -127Q128 -127 139 -125.5Q150 -124 163 -120Z" glyph-name="iogonek" horiz-adv-x="242" unicode="&#303;" /><glyph d="M163 528V0H79V528ZM121 528ZM193 594Q174 594 157.5 599Q141 604 127 614L90 641Q82 647 73 650Q64 653 56 653Q35 653 23.5 638.5Q12 624 12 598H-37Q-37 651 -12.5 681.5Q12 712 54 712Q71 712 86.5 707Q102 702 115 692L151 666Q160 660 171.5 655.5Q183 651 191 651Q212 651 222 665Q232 679 232 708H280Q280 653 257.5 623.5Q235 594 193 594ZM121 528Z" glyph-name="itilde" horiz-adv-x="242" unicode="&#297;" /><glyph d="M-25 -180H-63V-111H-33Q23 -111 51 -89Q79 -67 79 -23V528H163V-20Q163 -97 115 -138.5Q67 -180 -25 -180ZM164 730V632H78V730Z" glyph-name="j" horiz-adv-x="242" unicode="j" /><glyph d="M-25 -180H-63V-111H-33Q23 -111 51 -89Q79 -67 79 -23V528H163V-20Q163 -97 115 -138.5Q67 -180 -25 -180ZM120 528ZM187 598 120 696H119L52 598H-14L80 739H159L253 598ZM120 528Z" glyph-name="jcircumflex" horiz-adv-x="242" unicode="&#309;" /><glyph d="M239 250 160 165V0H77V730H160V269L400 528H500L294 307L517 0H418ZM278 0Z" glyph-name="k" horiz-adv-x="524" unicode="k" /><glyph d="M517 0H418L239 250L160 165V0H77V528H160V269L400 528H500L294 307ZM278 0Z" glyph-name="kgreenlandic" horiz-adv-x="524" unicode="&#312;" /><glyph d="M163 730V0H79V730ZM121 730ZM243 700ZM225 350ZM121 0Z" glyph-name="l" horiz-adv-x="242" unicode="l" /><glyph d="M163 730V0H79V730ZM121 730ZM243 700ZM225 350ZM121 0ZM159 941H251L152 800H84ZM121 730Z" glyph-name="lacute" horiz-adv-x="242" unicode="&#314;" /><glyph d="M163 730V0H79V730ZM121 730ZM243 700ZM225 350ZM121 0ZM249 730H320V709L296 583H249ZM243 695Z" glyph-name="lcaron" horiz-adv-x="253" unicode="&#318;" /><glyph d="M163 730V0H79V730ZM121 730ZM243 700ZM225 350ZM121 0ZM317 408V312H228V408ZM225 350Z" glyph-name="ldot" horiz-adv-x="303" unicode="&#320;" /><glyph d="M34 265 492 24V111L124 297V298L492 483V569L34 330Z" glyph-name="less" horiz-adv-x="551" unicode="&lt;" /><glyph d="M522 239 157 368V369L522 498V579L65 401V336L522 157ZM522 88H65V21H522Z" glyph-name="lessequal" horiz-adv-x="595" unicode="&#8804;" /><glyph d="M163 730V0H79V730ZM121 730ZM243 700ZM225 350ZM121 0ZM317 408V312H228V408ZM225 350ZM466 730V0H382V730ZM424 730ZM546 700ZM528 350ZM424 0Z" glyph-name="lgeminada" horiz-adv-x="545" /><glyph d="M222 70H576V0H59V63L135 70V232H59V293H135V350H59V411H135V470Q135 581 196.5 646Q258 711 370 711Q476 711 535 653Q594 595 594 500V478H509V495Q509 557 471.5 595.5Q434 634 368 634Q298 634 260 590.5Q222 547 222 470V411H399V350H222V293H399V232H222Z" glyph-name="lira" horiz-adv-x="645" unicode="&#8356;" /><glyph d="M487 449V200H410V376H64V449Z" glyph-name="logicalnot" horiz-adv-x="566" unicode="&#172;" /><glyph d="M187 552V0H103V463H29V528H103V548Q103 637 153.5 683.5Q204 730 302 730H346V661H300Q243 661 215 634Q187 607 187 552Z" glyph-name="longs" horiz-adv-x="306" unicode="&#383;" /><glyph d="M606 69H654V0H594Q501 0 455.5 39.5Q410 79 410 164V462H334V527H410V665H493V527H637V462H493V169Q493 116 520 92.5Q547 69 606 69ZM557 716ZM531 10ZM463 0ZM187 552V0H103V463H29V528H103V548Q103 637 153.5 683.5Q204 730 302 730H346V661H300Q243 661 215 634Q187 607 187 552Z" glyph-name="longs_t" horiz-adv-x="677" unicode="&#64261;" /><glyph d="M354 700 562 349 354 0H239L30 349L239 700ZM293 83H307L465 342L301 618H287L128 355Z" glyph-name="lozenge" horiz-adv-x="593" unicode="&#9674;" /><glyph d="M189 395V0H105V329L21 262V340L105 407V730H189V474L272 540V461Z" glyph-name="lslash" horiz-adv-x="287" unicode="&#322;" /><glyph d="M160 312V0H77V528H151L156 456Q178 496 221.5 517.5Q265 539 323 539Q382 539 424.5 513.5Q467 488 489 441Q511 488 559 513.5Q607 539 673 539Q760 539 810 485Q860 431 860 341V0H777V322Q777 392 744.5 428.5Q712 465 649 465Q582 465 546 424.5Q510 384 510 312V0H427V322Q427 392 394.5 428.5Q362 465 299 465Q232 465 196 424.5Q160 384 160 312Z" glyph-name="m" horiz-adv-x="932" unicode="m" /><glyph d="M121 633V688H378V633ZM250 528Z" glyph-name="macron" horiz-adv-x="500" unicode="&#175;" /><glyph d="M-3 805V861H254V805ZM125 700Z" glyph-name="macron.case" horiz-adv-x="250" /><glyph d="M498 372V299H75V372Z" glyph-name="minus" horiz-adv-x="573" unicode="&#8722;" /><glyph d="M274 -11Q241 -11 212.5 -3Q184 5 162 20L170 -180H87V528H170V197Q170 134 203.5 98.5Q237 63 298 63Q365 63 401 103.5Q437 144 437 216V528H520V0H447L442 71Q419 32 375.5 10.5Q332 -11 274 -11Z" glyph-name="mu" horiz-adv-x="607" unicode="&#181;" /><glyph d="M415 212 362 159 238 282 116 160 63 213 186 335 63 458 116 511 238 388 363 511 416 459 291 335Z" glyph-name="multiply" horiz-adv-x="480" unicode="&#215;" /><glyph d="M160 312V0H77V528H151L156 456Q179 496 223 517.5Q267 539 327 539Q416 539 467 485Q518 431 518 341V0H434V322Q434 392 401 428.5Q368 465 303 465Q234 465 197 424.5Q160 384 160 312ZM88 566ZM297 528ZM297 0Z" glyph-name="n" horiz-adv-x="590" unicode="n" /><glyph d="M160 312V0H77V528H151L156 456Q179 496 223 517.5Q267 539 327 539Q416 539 467 485Q518 431 518 341V0H434V322Q434 392 401 428.5Q368 465 303 465Q234 465 197 424.5Q160 384 160 312ZM88 566ZM297 528ZM297 0ZM335 739H427L328 598H260ZM297 528Z" glyph-name="nacute" horiz-adv-x="590" unicode="&#324;" /><glyph d="M160 312V0H77V528H151L156 456Q179 496 223 517.5Q267 539 327 539Q416 539 467 485Q518 431 518 341V0H434V322Q434 392 401 428.5Q368 465 303 465Q234 465 197 424.5Q160 384 160 312ZM88 566ZM297 528ZM297 0ZM48 713H127V692L90 567H31ZM88 773ZM88 566Z" glyph-name="napostrophe" horiz-adv-x="590" unicode="&#329;" /><glyph d="M160 312V0H77V528H151L156 456Q179 496 223 517.5Q267 539 327 539Q416 539 467 485Q518 431 518 341V0H434V322Q434 392 401 428.5Q368 465 303 465Q234 465 197 424.5Q160 384 160 312ZM88 566ZM297 528ZM297 0ZM229 739 296 641H297L364 739H430L336 598H257L163 739ZM297 528Z" glyph-name="ncaron" horiz-adv-x="590" unicode="&#328;" /><glyph d="M57 488Q57 596 118 653Q179 710 297 710Q415 710 476.5 652.5Q538 595 538 488V231Q538 120 476.5 55Q415 -10 303 -10Q192 -10 130.5 40Q69 90 69 173V193H154V175Q154 125 193.5 93.5Q233 62 301 62Q372 62 412 104.5Q452 147 452 221V349Q422 311 381.5 294Q341 277 282 277Q173 277 115 332Q57 387 57 488ZM451 494Q451 566 412 603Q373 640 297 640Q221 640 182.5 603Q144 566 144 493Q144 422 182.5 385.5Q221 349 297 349Q373 349 412 385.5Q451 422 451 494Z" glyph-name="nine" horiz-adv-x="608" unicode="9" /><glyph d="M28 240Q28 295 61.5 325Q95 355 158 355Q221 355 254 324.5Q287 294 287 240V122Q287 64 254 29.5Q221 -5 161 -5Q101 -5 68 22Q35 49 35 93V98H104V94Q104 75 119.5 62.5Q135 50 161 50Q188 50 203 67Q218 84 218 114V164Q205 149 186 141.5Q167 134 142 134Q88 134 58 162.5Q28 191 28 240ZM217 245Q217 274 202 289Q187 304 158 304Q129 304 114 288.5Q99 273 99 244Q99 216 114 201Q129 186 158 186Q187 186 202 201Q217 216 217 245Z" glyph-name="nine.denominator" horiz-adv-x="322" unicode="&#63070;" /><glyph d="M28 100Q28 155 61.5 185Q95 215 158 215Q221 215 254 184.5Q287 154 287 100V-18Q287 -76 254 -110.5Q221 -145 161 -145Q101 -145 68 -118Q35 -91 35 -47V-42H104V-46Q104 -65 119.5 -77.5Q135 -90 161 -90Q188 -90 203 -73Q218 -56 218 -26V24Q205 9 186 1.5Q167 -6 142 -6Q88 -6 58 22.5Q28 51 28 100ZM217 105Q217 134 202 149Q187 164 158 164Q129 164 114 148.5Q99 133 99 104Q99 76 114 61Q129 46 158 46Q187 46 202 61Q217 76 217 105Z" glyph-name="nine.inferior" horiz-adv-x="322" unicode="&#8329;" /><glyph d="M28 590Q28 645 61.5 675Q95 705 158 705Q221 705 254 674.5Q287 644 287 590V472Q287 414 254 379.5Q221 345 161 345Q101 345 68 372Q35 399 35 443V448H104V444Q104 425 119.5 412.5Q135 400 161 400Q188 400 203 417Q218 434 218 464V514Q205 499 186 491.5Q167 484 142 484Q88 484 58 512.5Q28 541 28 590ZM217 595Q217 624 202 639Q187 654 158 654Q129 654 114 638.5Q99 623 99 594Q99 566 114 551Q129 536 158 536Q187 536 202 551Q217 566 217 595Z" glyph-name="nine.numerator" horiz-adv-x="322" unicode="&#63082;" /><glyph d="M28 730Q28 785 61.5 815Q95 845 158 845Q221 845 254 814.5Q287 784 287 730V612Q287 554 254 519.5Q221 485 161 485Q101 485 68 512Q35 539 35 583V588H104V584Q104 565 119.5 552.5Q135 540 161 540Q188 540 203 557Q218 574 218 604V654Q205 639 186 631.5Q167 624 142 624Q88 624 58 652.5Q28 681 28 730ZM217 735Q217 764 202 779Q187 794 158 794Q129 794 114 778.5Q99 763 99 734Q99 706 114 691Q129 676 158 676Q187 676 202 691Q217 706 217 735Z" glyph-name="nine.superior" horiz-adv-x="322" unicode="&#8313;" /><glyph d="M57 488Q57 596 118 653Q179 710 297 710Q415 710 476.5 652.5Q538 595 538 488V231Q538 120 476.5 55Q415 -10 303 -10Q192 -10 130.5 40Q69 90 69 173V193H154V175Q154 125 193.5 93.5Q233 62 301 62Q372 62 412 104.5Q452 147 452 221V349Q422 311 381.5 294Q341 277 282 277Q173 277 115 332Q57 387 57 488ZM451 494Q451 566 412 603Q373 640 297 640Q221 640 182.5 603Q144 566 144 493Q144 422 182.5 385.5Q221 349 297 349Q373 349 412 385.5Q451 422 451 494Z" glyph-name="nine.tab" horiz-adv-x="609" unicode="&#65305;" /><glyph d="M498 275V200H222L165 125H88L145 200H75V275H202L294 396H75V471H352L408 545H486L429 471H498V396H372L280 275Z" glyph-name="notequal" horiz-adv-x="573" unicode="&#8800;" /><glyph d="M160 312V0H77V528H151L156 456Q179 496 223 517.5Q267 539 327 539Q416 539 467 485Q518 431 518 341V0H434V322Q434 392 401 428.5Q368 465 303 465Q234 465 197 424.5Q160 384 160 312ZM88 566ZM297 528ZM297 0ZM369 594Q350 594 333.5 599Q317 604 303 614L266 641Q258 647 249 650Q240 653 232 653Q211 653 199.5 638.5Q188 624 188 598H139Q139 651 163.5 681.5Q188 712 230 712Q247 712 262.5 707Q278 702 291 692L327 666Q336 660 347.5 655.5Q359 651 367 651Q388 651 398 665Q408 679 408 708H456Q456 653 433.5 623.5Q411 594 369 594ZM297 528Z" glyph-name="ntilde" horiz-adv-x="590" unicode="&#241;" /><glyph d="M213 259H387L415 441H241ZM418 0H346L376 189H202L172 0H99L129 189H43V259H140L168 441H83V511H179L209 700H282L252 511H426L456 700H528L498 511H583V441H487L459 259H543V189H448Z" glyph-name="numbersign" horiz-adv-x="626" unicode="#" /><glyph d="M280 -11Q174 -11 116 45.5Q58 102 58 198V331Q58 426 116 482.5Q174 539 280 539Q386 539 444 483Q502 427 502 331V198Q502 101 444 45Q386 -11 280 -11ZM280 58Q346 58 382.5 96Q419 134 419 197V332Q419 395 382.5 432.5Q346 470 280 470Q214 470 177.5 432.5Q141 395 141 332V197Q141 134 177.5 96Q214 58 280 58ZM280 528Z" glyph-name="o" horiz-adv-x="560" unicode="o" /><glyph d="M280 -11Q174 -11 116 45.5Q58 102 58 198V331Q58 426 116 482.5Q174 539 280 539Q386 539 444 483Q502 427 502 331V198Q502 101 444 45Q386 -11 280 -11ZM280 58Q346 58 382.5 96Q419 134 419 197V332Q419 395 382.5 432.5Q346 470 280 470Q214 470 177.5 432.5Q141 395 141 332V197Q141 134 177.5 96Q214 58 280 58ZM280 528ZM318 739H410L311 598H243ZM280 528Z" glyph-name="oacute" horiz-adv-x="560" unicode="&#243;" /><glyph d="M280 -11Q174 -11 116 45.5Q58 102 58 198V331Q58 426 116 482.5Q174 539 280 539Q386 539 444 483Q502 427 502 331V198Q502 101 444 45Q386 -11 280 -11ZM280 58Q346 58 382.5 96Q419 134 419 197V332Q419 395 382.5 432.5Q346 470 280 470Q214 470 177.5 432.5Q141 395 141 332V197Q141 134 177.5 96Q214 58 280 58ZM280 528ZM338 696V719H393V696Q393 646 362 617Q331 588 279 588Q227 588 196.5 617.5Q166 647 166 696V719H221V696Q221 670 237 654.5Q253 639 279 639Q306 639 322 654.5Q338 670 338 696ZM280 528Z" glyph-name="obreve" horiz-adv-x="560" unicode="&#335;" /><glyph d="M280 -11Q174 -11 116 45.5Q58 102 58 198V331Q58 426 116 482.5Q174 539 280 539Q386 539 444 483Q502 427 502 331V198Q502 101 444 45Q386 -11 280 -11ZM280 58Q346 58 382.5 96Q419 134 419 197V332Q419 395 382.5 432.5Q346 470 280 470Q214 470 177.5 432.5Q141 395 141 332V197Q141 134 177.5 96Q214 58 280 58ZM280 528ZM347 598 280 696H279L212 598H146L240 739H319L413 598ZM280 528Z" glyph-name="ocircumflex" horiz-adv-x="560" unicode="&#244;" /><glyph d="M280 -11Q174 -11 116 45.5Q58 102 58 198V331Q58 426 116 482.5Q174 539 280 539Q386 539 444 483Q502 427 502 331V198Q502 101 444 45Q386 -11 280 -11ZM280 58Q346 58 382.5 96Q419 134 419 197V332Q419 395 382.5 432.5Q346 470 280 470Q214 470 177.5 432.5Q141 395 141 332V197Q141 134 177.5 96Q214 58 280 58ZM280 528ZM250 711V630H173V711ZM386 711V630H309V711ZM280 528Z" glyph-name="odieresis" horiz-adv-x="560" unicode="&#246;" /><glyph d="M638 473Q573 473 537.5 437.5Q502 402 502 342V306H774V342Q774 401 738 437Q702 473 638 473ZM280 58Q346 58 382.5 96Q419 134 419 197V332Q419 395 382.5 432.5Q346 470 280 470Q214 470 177.5 432.5Q141 395 141 332V197Q141 134 177.5 96Q214 58 280 58ZM851 161V150Q851 75 797 32Q743 -11 642 -11Q576 -11 530 13Q484 37 460 85Q435 38 389 13.5Q343 -11 278 -11Q173 -11 115.5 45.5Q58 102 58 198V331Q58 427 115.5 483Q173 539 278 539Q344 539 390 514Q436 489 461 441Q485 489 531 514Q577 539 641 539Q743 539 799 482.5Q855 426 855 331V241H502V185Q502 125 537.5 90Q573 55 639 55Q703 55 738 81.5Q773 108 773 153V161Z" glyph-name="oe" horiz-adv-x="909" unicode="&#339;" /><glyph d="M293 -127Q305 -127 316 -125.5Q327 -124 339 -120V-170Q324 -178 307.5 -182Q291 -186 273 -186Q228 -186 199 -161.5Q170 -137 170 -100Q170 -64 196.5 -33.5Q223 -3 272 20L321 7Q277 -17 257.5 -38.5Q238 -60 238 -83Q238 -104 252.5 -115.5Q267 -127 293 -127ZM290 0Z" glyph-name="ogonek" horiz-adv-x="500" unicode="&#731;" /><glyph d="M280 -11Q174 -11 116 45.5Q58 102 58 198V331Q58 426 116 482.5Q174 539 280 539Q386 539 444 483Q502 427 502 331V198Q502 101 444 45Q386 -11 280 -11ZM280 58Q346 58 382.5 96Q419 134 419 197V332Q419 395 382.5 432.5Q346 470 280 470Q214 470 177.5 432.5Q141 395 141 332V197Q141 134 177.5 96Q214 58 280 58ZM280 528ZM316 598H247L149 739H240ZM280 528Z" glyph-name="ograve" horiz-adv-x="560" unicode="&#242;" /><glyph d="M280 -11Q174 -11 116 45.5Q58 102 58 198V331Q58 426 116 482.5Q174 539 280 539Q386 539 444 483Q502 427 502 331V198Q502 101 444 45Q386 -11 280 -11ZM280 58Q346 58 382.5 96Q419 134 419 197V332Q419 395 382.5 432.5Q346 470 280 470Q214 470 177.5 432.5Q141 395 141 332V197Q141 134 177.5 96Q214 58 280 58ZM280 528ZM241 739H334L240 598H169ZM388 739H481L371 598H300ZM280 528Z" glyph-name="ohungarumlaut" horiz-adv-x="560" unicode="&#337;" /><glyph d="M280 -11Q174 -11 116 45.5Q58 102 58 198V331Q58 426 116 482.5Q174 539 280 539Q386 539 444 483Q502 427 502 331V198Q502 101 444 45Q386 -11 280 -11ZM280 58Q346 58 382.5 96Q419 134 419 197V332Q419 395 382.5 432.5Q346 470 280 470Q214 470 177.5 432.5Q141 395 141 332V197Q141 134 177.5 96Q214 58 280 58ZM280 528ZM151 633V688H408V633ZM280 528Z" glyph-name="omacron" horiz-adv-x="560" unicode="&#333;" /><glyph d="M56 588V669L276 706H344V76H545V0H56V76H256V617Z" glyph-name="one" horiz-adv-x="566" unicode="1" /><glyph d="M31 271V333L138 352H191V59H280V0H31V59H120V283Z" glyph-name="one.denominator" horiz-adv-x="294" unicode="&#63062;" /><glyph d="M31 131V193L138 212H191V-81H280V-140H31V-81H120V143Z" glyph-name="one.inferior" horiz-adv-x="294" unicode="&#8321;" /><glyph d="M31 621V683L138 702H191V409H280V350H31V409H120V633Z" glyph-name="one.numerator" horiz-adv-x="294" unicode="&#63074;" /><glyph d="M76 588V669L296 706H364V76H565V0H76V76H276V617Z" glyph-name="one.tab" horiz-adv-x="609" unicode="&#65297;" /><glyph d="M53 621V683L160 702H213V409H302V350H53V409H142V633ZM573 700H652L213 0H134ZM665 248Q665 273 650 285.5Q635 298 606 298Q576 298 561.5 284.5Q547 271 547 243V234H478V246Q478 297 511.5 326.5Q545 356 607 356Q669 356 702 328Q735 300 735 249Q735 213 718.5 188.5Q702 164 668 150L579 114Q563 108 557 101Q551 94 551 79V58H734V0H481V79Q481 107 494 127Q507 147 531 157L637 202Q651 208 658 219Q665 230 665 248Z" glyph-name="onehalf" horiz-adv-x="782" unicode="&#189;" /><glyph d="M53 621V683L160 702H213V409H302V350H53V409H142V633ZM573 700H652L213 0H134ZM528 350H597L534 152H652V350H723V0H652V94H463V151Z" glyph-name="onequarter" horiz-adv-x="781" unicode="&#188;" /><glyph d="M31 761V823L138 842H191V549H280V490H31V549H120V773Z" glyph-name="onesuperior" horiz-adv-x="294" unicode="&#185;" /><glyph d="M129 454Q129 429 145.5 416.5Q162 404 194 404Q235 404 256.5 423Q278 442 278 478V500H193Q160 500 144.5 488.5Q129 477 129 454ZM348 354H286L282 400Q270 373 243 359.5Q216 346 176 346Q118 346 88 372.5Q58 399 58 451Q58 503 89.5 529.5Q121 556 183 556H278V582Q278 615 259.5 632.5Q241 650 206 650Q171 650 151.5 637Q132 624 132 603V598H66V603Q66 651 103.5 678.5Q141 706 208 706Q277 706 312.5 674Q348 642 348 580Z" glyph-name="ordfeminine" horiz-adv-x="421" unicode="&#170;" /><glyph d="M210 346Q137 346 98 383Q59 420 59 484V569Q59 633 98 669.5Q137 706 210 706Q283 706 322 669.5Q361 633 361 569V484Q361 420 322 383Q283 346 210 346ZM210 403Q249 403 269.5 424.5Q290 446 290 483V570Q290 607 269.5 628.5Q249 650 210 650Q171 650 150 628.5Q129 607 129 570V483Q129 446 150 424.5Q171 403 210 403Z" glyph-name="ordmasculine" horiz-adv-x="420" unicode="&#186;" /><glyph d="M141 332V197Q141 176 146 156Q151 136 160 120L360 451Q343 461 323 465.5Q303 470 280 470Q214 470 177.5 432.5Q141 395 141 332ZM280 58Q346 58 382.5 96Q419 134 419 197V332Q419 353 414.5 372Q410 391 401 407L202 77Q218 67 237.5 62.5Q257 58 280 58ZM280 -11Q245 -11 216.5 -5Q188 1 165 12L138 -33H63L113 48Q86 76 72 114.5Q58 153 58 198V331Q58 426 116 482.5Q174 539 280 539Q313 539 342 533.5Q371 528 396 516L424 562H498L448 479Q474 451 488 413Q502 375 502 331V198Q502 101 444 45Q386 -11 280 -11ZM286 528Z" glyph-name="oslash" horiz-adv-x="560" unicode="&#248;" /><glyph d="M280 -11Q174 -11 116 45.5Q58 102 58 198V331Q58 426 116 482.5Q174 539 280 539Q386 539 444 483Q502 427 502 331V198Q502 101 444 45Q386 -11 280 -11ZM280 58Q346 58 382.5 96Q419 134 419 197V332Q419 395 382.5 432.5Q346 470 280 470Q214 470 177.5 432.5Q141 395 141 332V197Q141 134 177.5 96Q214 58 280 58ZM280 528ZM352 594Q333 594 316.5 599Q300 604 286 614L249 641Q241 647 232 650Q223 653 215 653Q194 653 182.5 638.5Q171 624 171 598H122Q122 651 146.5 681.5Q171 712 213 712Q230 712 245.5 707Q261 702 274 692L310 666Q319 660 330.5 655.5Q342 651 350 651Q371 651 381 665Q391 679 391 708H439Q439 653 416.5 623.5Q394 594 352 594ZM280 528Z" glyph-name="otilde" horiz-adv-x="560" unicode="&#245;" /><glyph d="M303 63Q371 63 403.5 99Q436 135 436 211V316Q436 391 402.5 428Q369 465 303 465Q233 465 196.5 425.5Q160 386 160 312V216Q160 142 196.5 102.5Q233 63 303 63ZM324 -11Q267 -11 225 7Q183 25 160 60V-180H77V528H151L156 457Q179 497 223 518Q267 539 327 539Q415 539 467 483Q519 427 519 335V193Q519 101 466 45Q413 -11 324 -11Z" glyph-name="p" horiz-adv-x="578" unicode="p" /><glyph d="M402 0H315V289H270Q153 289 94.5 340Q36 391 36 494Q36 598 94.5 649Q153 700 270 700H402Z" glyph-name="paragraph" horiz-adv-x="494" unicode="&#182;" /><glyph d="M80 62V570Q80 667 131.5 715Q183 763 285 763H321V688H289Q227 688 197 658.5Q167 629 167 565V67Q167 3 197 -26.5Q227 -56 289 -56H321V-131H285Q183 -131 131.5 -83Q80 -35 80 62Z" glyph-name="parenleft" horiz-adv-x="359" unicode="(" /><glyph d="M42 61V288Q42 345 71 370.5Q100 396 161 396H183V338H164Q138 338 125 324.5Q112 311 112 284V66Q112 38 125 24.5Q138 11 164 11H183V-46H161Q100 -46 71 -20.5Q42 5 42 61Z" glyph-name="parenleft.denominator" horiz-adv-x="208" unicode="&#63020;" /><glyph d="M42 -79V148Q42 205 71 230.5Q100 256 161 256H183V198H164Q138 198 125 184.5Q112 171 112 144V-74Q112 -102 125 -115.5Q138 -129 164 -129H183V-186H161Q100 -186 71 -160.5Q42 -135 42 -79Z" glyph-name="parenleft.inferior" horiz-adv-x="208" unicode="&#8333;" /><glyph d="M42 411V638Q42 695 71 720.5Q100 746 161 746H183V688H164Q138 688 125 674.5Q112 661 112 634V416Q112 388 125 374.5Q138 361 164 361H183V304H161Q100 304 71 329.5Q42 355 42 411Z" glyph-name="parenleft.numerator" horiz-adv-x="208" unicode="&#63025;" /><glyph d="M42 551V778Q42 835 71 860.5Q100 886 161 886H183V828H164Q138 828 125 814.5Q112 801 112 774V556Q112 528 125 514.5Q138 501 164 501H183V444H161Q100 444 71 469.5Q42 495 42 551Z" glyph-name="parenleft.superior" horiz-adv-x="208" unicode="&#8317;" /><glyph d="M279 62V570Q279 667 227.5 715Q176 763 74 763H38V688H70Q132 688 162 658.5Q192 629 192 565V67Q192 3 162 -26.5Q132 -56 70 -56H38V-131H74Q176 -131 227.5 -83Q279 -35 279 62Z" glyph-name="parenright" horiz-adv-x="359" unicode=")" /><glyph d="M166 288V61Q166 4 137.5 -21Q109 -46 48 -46H25V11H44Q71 11 83.5 24Q96 37 96 66V284Q96 312 83.5 325Q71 338 44 338H25V396H48Q109 396 137.5 370.5Q166 345 166 288Z" glyph-name="parenright.denominator" horiz-adv-x="208" unicode="&#63021;" /><glyph d="M166 148V-79Q166 -136 137.5 -161Q109 -186 48 -186H25V-129H44Q71 -129 83.5 -116Q96 -103 96 -74V144Q96 172 83.5 185Q71 198 44 198H25V256H48Q109 256 137.5 230.5Q166 205 166 148Z" glyph-name="parenright.inferior" horiz-adv-x="208" unicode="&#8334;" /><glyph d="M166 638V411Q166 354 137.5 329Q109 304 48 304H25V361H44Q71 361 83.5 374Q96 387 96 416V634Q96 662 83.5 675Q71 688 44 688H25V746H48Q109 746 137.5 720.5Q166 695 166 638Z" glyph-name="parenright.numerator" horiz-adv-x="208" unicode="&#63026;" /><glyph d="M166 778V551Q166 494 137.5 469Q109 444 48 444H25V501H44Q71 501 83.5 514Q96 527 96 556V774Q96 802 83.5 815Q71 828 44 828H25V886H48Q109 886 137.5 860.5Q166 835 166 778Z" glyph-name="parenright.superior" horiz-adv-x="208" unicode="&#8318;" /><glyph d="M267 59Q333 59 369.5 95Q406 131 406 190V245Q406 304 369.5 340Q333 376 267 376Q201 376 165 340.5Q129 305 129 245V190Q129 130 165 94.5Q201 59 267 59ZM489 478V190Q489 97 432 43Q375 -11 270 -11Q163 -11 104 43.5Q45 98 45 190V245Q45 337 102 391.5Q159 446 262 446Q304 446 340 432.5Q376 419 406 393V481Q406 567 366 606Q326 645 240 645H133V711H230Q363 711 426 655Q489 599 489 478Z" glyph-name="partialdiff" horiz-adv-x="561" unicode="&#8706;" /><glyph d="M176 344Q238 344 272 379Q306 414 306 471V579Q306 636 272 671Q238 706 176 706Q115 706 81 671.5Q47 637 47 579V471Q47 413 81 378.5Q115 344 176 344ZM176 647Q204 647 219.5 628.5Q235 610 235 577V473Q235 440 220 422Q205 404 176 404Q148 404 132.5 422.5Q117 441 117 473V577Q117 609 132.5 628Q148 647 176 647ZM562 700H641L202 0H123ZM587 -6Q649 -6 683 29Q717 64 717 121V229Q717 286 683 321Q649 356 587 356Q526 356 492 321.5Q458 287 458 229V121Q458 63 492 28.5Q526 -6 587 -6ZM587 297Q615 297 630.5 278.5Q646 260 646 227V123Q646 90 631 72Q616 54 587 54Q559 54 543.5 72.5Q528 91 528 123V227Q528 259 543.5 278Q559 297 587 297Z" glyph-name="percent" horiz-adv-x="764" unicode="%" /><glyph d="M161 96V0H72V96ZM69 38Z" glyph-name="period" horiz-adv-x="233" unicode="." /><glyph d="M109 65V0H37V65Z" glyph-name="period.denominator" horiz-adv-x="146" unicode="&#63072;" /><glyph d="M108 415V350H36V415Z" glyph-name="period.numerator" horiz-adv-x="144" unicode="&#63084;" /><glyph d="M163 408V312H74V408ZM71 350Z" glyph-name="periodcentered" horiz-adv-x="237" unicode="&#183;" /><glyph d="M176 344Q238 344 272 379Q306 414 306 471V579Q306 636 272 671Q238 706 176 706Q115 706 81 671.5Q47 637 47 579V471Q47 413 81 378.5Q115 344 176 344ZM176 647Q204 647 219.5 628.5Q235 610 235 577V473Q235 440 220 422Q205 404 176 404Q148 404 132.5 422.5Q117 441 117 473V577Q117 609 132.5 628Q148 647 176 647ZM557 700H636L197 0H118ZM587 -6Q649 -6 683 29Q717 64 717 121V229Q717 286 683 321Q649 356 587 356Q526 356 492 321.5Q458 287 458 229V121Q458 63 492 28.5Q526 -6 587 -6ZM587 297Q615 297 630.5 278.5Q646 260 646 227V123Q646 90 631 72Q616 54 587 54Q559 54 543.5 72.5Q528 91 528 123V227Q528 259 543.5 278Q559 297 587 297ZM906 -6Q968 -6 1002 29Q1036 64 1036 121V229Q1036 286 1002 321Q968 356 906 356Q845 356 811 321.5Q777 287 777 229V121Q777 63 811 28.5Q845 -6 906 -6ZM906 297Q934 297 949.5 278.5Q965 260 965 227V123Q965 90 950 72Q935 54 906 54Q878 54 862.5 72.5Q847 91 847 123V227Q847 259 862.5 278Q878 297 906 297Z" glyph-name="perthousand" horiz-adv-x="1077" unicode="&#8240;" /><glyph d="M525 473Q525 549 481 587Q437 625 349 625H180V321H349Q437 321 481 359Q525 397 525 473ZM614 473Q614 362 547.5 304.5Q481 247 350 247H180V0H92V700H350Q480 700 547 642Q614 584 614 473ZM948 69H996V0H936Q843 0 797.5 39.5Q752 79 752 164V462H676V527H752V665H835V527H979V462H835V169Q835 116 862 92.5Q889 69 948 69ZM899 716ZM873 10ZM805 0ZM1472 392V382H1392V390Q1392 434 1361.5 455Q1331 476 1268 476Q1211 476 1181 454.5Q1151 433 1151 394Q1151 365 1170 348Q1189 331 1234 321L1350 295Q1419 279 1452.5 244.5Q1486 210 1486 155Q1486 76 1432.5 32.5Q1379 -11 1279 -11Q1173 -11 1119 24.5Q1065 60 1065 129V140H1146V131Q1146 91 1179 72.5Q1212 54 1280 54Q1340 54 1372 78Q1404 102 1404 147Q1404 176 1384.5 195Q1365 214 1325 223L1213 248Q1136 266 1104.5 299Q1073 332 1073 389Q1073 458 1125 498.5Q1177 539 1270 539Q1370 539 1421 501.5Q1472 464 1472 392ZM1275 528ZM1279 10ZM1275 0Z" glyph-name="peseta" horiz-adv-x="1536" unicode="&#8359;" /><glyph d="M538 528V0H450V455H165V0H77V528Z" glyph-name="pi" horiz-adv-x="615" unicode="&#960;" /><glyph d="M295 124H220V299H47V371H220V547H295V371H470V299H295Z" glyph-name="plus" horiz-adv-x="517" unicode="+" /><glyph d="M249 469V630H324V469H499V398H324V237H249V398H76V469ZM76 152H499V82H76Z" glyph-name="plusminus" horiz-adv-x="575" unicode="&#177;" /><glyph d="M631 700V-126H543V626H180V-126Q137 -126 115 -126Q93 -126 92 -126V700Z" glyph-name="product" horiz-adv-x="723" unicode="&#8719;" /><glyph d="M500 528V-180H417V62Q393 26 350.5 7.5Q308 -11 251 -11Q163 -11 111 45Q59 101 59 193V335Q59 427 112 483Q165 539 254 539Q314 539 357 519Q400 499 422 461L427 528ZM275 63Q342 63 379.5 101Q417 139 417 204V324Q417 389 379.5 427Q342 465 275 465Q208 465 175 428Q142 391 142 317V212Q142 137 175.5 100Q209 63 275 63Z" glyph-name="q" horiz-adv-x="577" unicode="q" /><glyph d="M323 234V173H237V237Q237 281 258.5 310.5Q280 340 345 377Q405 411 423 438.5Q441 466 441 510Q441 573 401.5 605.5Q362 638 284 638Q201 638 161 606.5Q121 575 121 508V480H34V513Q34 609 97.5 660Q161 711 284 711Q402 711 464.5 660.5Q527 610 527 517Q527 457 502 416.5Q477 376 415 338Q390 322 374.5 312Q359 302 354 297Q338 283 330.5 268Q323 253 323 234ZM325 96V0H235V96Z" glyph-name="question" horiz-adv-x="564" unicode="?" /><glyph d="M238 294V355H324V291Q324 247 302.5 217.5Q281 188 216 151Q156 117 138 89.5Q120 62 120 18Q120 -45 159.5 -77.5Q199 -110 277 -110Q360 -110 400 -78.5Q440 -47 440 20V48H527V15Q527 -81 463.5 -132Q400 -183 277 -183Q159 -183 96.5 -132.5Q34 -82 34 11Q34 71 59 111.5Q84 152 146 190Q171 206 186.5 216Q202 226 207 231Q223 245 230.5 260Q238 275 238 294ZM236 432V528H326V432Z" glyph-name="questiondown" horiz-adv-x="559" unicode="&#191;" /><glyph d="M65 700H149L136 492H77ZM219 700H303L290 492H231Z" glyph-name="quotedbl" horiz-adv-x="367" unicode="&quot;" /><glyph d="M78.383 95.984H165.514V74.446L108.732 -113.522H48.034ZM222.383 95.984H309.514V74.446L252.732 -113.522H192.034Z" glyph-name="quotedblbase" horiz-adv-x="379" unicode="&#8222;" /><glyph d="M145.617 490.016H58.486V511.554L115.268 699.522H175.966ZM289.617 490.016H202.486V511.554L259.268 699.522H319.966Z" glyph-name="quotedblleft" horiz-adv-x="375" unicode="&#8220;" /><glyph d="M91.488 699.984H178.619V678.446L121.837 490.478H61.139ZM235.488 699.984H322.619V678.446L265.837 490.478H205.139Z" glyph-name="quotedblright" horiz-adv-x="371" unicode="&#8221;" /><glyph d="M145.617 490.016H58.486V511.554L115.268 699.522H175.966Z" glyph-name="quoteleft" horiz-adv-x="231" unicode="&#8216;" /><glyph d="M91.488 699.984H178.619V678.446L121.837 490.478H61.139Z" glyph-name="quoteright" horiz-adv-x="227" unicode="&#8217;" /><glyph d="M78.383 95.984H165.514V74.446L108.732 -113.522H48.034Z" glyph-name="quotesinglbase" horiz-adv-x="235" unicode="&#8218;" /><glyph d="M65 700H149L136 492H77Z" glyph-name="quotesingle" horiz-adv-x="213" unicode="'" /><glyph d="M160 285V0H77V528H151L157 439Q181 487 229 512.5Q277 538 344 538V457H329Q247 457 203.5 412.5Q160 368 160 285ZM211 528ZM119 0Z" glyph-name="r" horiz-adv-x="366" unicode="r" /><glyph d="M160 285V0H77V528H151L157 439Q181 487 229 512.5Q277 538 344 538V457H329Q247 457 203.5 412.5Q160 368 160 285ZM211 528ZM119 0ZM249 739H341L242 598H174ZM211 528Z" glyph-name="racute" horiz-adv-x="366" unicode="&#341;" /><glyph d="M126 455H32V528H193L319 132H330L514 700H605L368 0H280Z" glyph-name="radical" horiz-adv-x="624" unicode="&#8730;" /><glyph d="M160 285V0H77V528H151L157 439Q181 487 229 512.5Q277 538 344 538V457H329Q247 457 203.5 412.5Q160 368 160 285ZM211 528ZM119 0ZM143 739 210 641H211L278 739H344L250 598H171L77 739ZM211 528Z" glyph-name="rcaron" horiz-adv-x="366" unicode="&#345;" /><glyph d="M273 265Q181 265 116 330Q51 395 51 487Q51 580 116 645Q181 710 273 710Q366 710 431 645Q496 580 496 487Q496 395 431 330Q366 265 273 265ZM273 665Q200 665 148.5 613Q97 561 97 487Q97 414 148.5 362Q200 310 273 310Q347 310 398.5 361.5Q450 413 450 487Q450 561 398.5 613Q347 665 273 665ZM318 523Q318 540 307.5 548Q297 556 276 556H241V490H276Q297 490 307.5 498Q318 506 318 523ZM363 383H311L284 451H241V383H193V595H285Q325 595 346.5 576.5Q368 558 368 524Q368 501 358.5 484.5Q349 468 331 460Z" glyph-name="registered" horiz-adv-x="547" unicode="&#174;" /><glyph d="M149 687Q149 730 178 758.5Q207 787 249 787Q292 787 321.5 758.5Q351 730 351 687Q351 645 321.5 616.5Q292 588 249 588Q207 588 178 616.5Q149 645 149 687ZM198 687Q198 665 213 650Q228 635 249 635Q271 635 286 650Q301 665 301 687Q301 710 286 725Q271 740 249 740Q227 740 212.5 725Q198 710 198 687ZM250 528Z" glyph-name="ring" horiz-adv-x="500" unicode="&#730;" /><glyph d="M24 841Q24 884 53 912.5Q82 941 124 941Q167 941 196.5 912.5Q226 884 226 841Q226 799 196.5 770.5Q167 742 124 742Q82 742 53 770.5Q24 799 24 841ZM73 841Q73 819 88 804Q103 789 124 789Q146 789 161 804Q176 819 176 841Q176 864 161 879Q146 894 124 894Q102 894 87.5 879Q73 864 73 841ZM125 700Z" glyph-name="ring.case" horiz-adv-x="250" /><glyph d="M456 392V382H376V390Q376 434 345.5 455Q315 476 252 476Q195 476 165 454.5Q135 433 135 394Q135 365 154 348Q173 331 218 321L334 295Q403 279 436.5 244.5Q470 210 470 155Q470 76 416.5 32.5Q363 -11 263 -11Q157 -11 103 24.5Q49 60 49 129V140H130V131Q130 91 163 72.5Q196 54 264 54Q324 54 356 78Q388 102 388 147Q388 176 368.5 195Q349 214 309 223L197 248Q120 266 88.5 299Q57 332 57 389Q57 458 109 498.5Q161 539 254 539Q354 539 405 501.5Q456 464 456 392ZM259 528ZM263 10ZM259 0Z" glyph-name="s" horiz-adv-x="518" unicode="s" /><glyph d="M456 392V382H376V390Q376 434 345.5 455Q315 476 252 476Q195 476 165 454.5Q135 433 135 394Q135 365 154 348Q173 331 218 321L334 295Q403 279 436.5 244.5Q470 210 470 155Q470 76 416.5 32.5Q363 -11 263 -11Q157 -11 103 24.5Q49 60 49 129V140H130V131Q130 91 163 72.5Q196 54 264 54Q324 54 356 78Q388 102 388 147Q388 176 368.5 195Q349 214 309 223L197 248Q120 266 88.5 299Q57 332 57 389Q57 458 109 498.5Q161 539 254 539Q354 539 405 501.5Q456 464 456 392ZM259 528ZM263 10ZM259 0ZM297 739H389L290 598H222ZM259 528Z" glyph-name="sacute" horiz-adv-x="518" unicode="&#347;" /><glyph d="M456 392V382H376V390Q376 434 345.5 455Q315 476 252 476Q195 476 165 454.5Q135 433 135 394Q135 365 154 348Q173 331 218 321L334 295Q403 279 436.5 244.5Q470 210 470 155Q470 76 416.5 32.5Q363 -11 263 -11Q157 -11 103 24.5Q49 60 49 129V140H130V131Q130 91 163 72.5Q196 54 264 54Q324 54 356 78Q388 102 388 147Q388 176 368.5 195Q349 214 309 223L197 248Q120 266 88.5 299Q57 332 57 389Q57 458 109 498.5Q161 539 254 539Q354 539 405 501.5Q456 464 456 392ZM259 528ZM263 10ZM259 0ZM191 739 258 641H259L326 739H392L298 598H219L125 739ZM259 528Z" glyph-name="scaron" horiz-adv-x="518" unicode="&#353;" /><glyph d="M350 -131Q350 -171 325.5 -195Q301 -219 256 -219Q213 -219 189.5 -201.5Q166 -184 166 -153V-143H216V-148Q216 -158 225.5 -163.5Q235 -169 254 -169Q273 -169 282 -160Q291 -151 291 -133Q291 -116 281.5 -107.5Q272 -99 253 -99Q244 -99 236 -101Q228 -103 214 -110L175 -88L213 -9Q132 -1 90.5 34Q49 69 49 129V140H130V131Q130 92 163 73Q196 54 264 54Q324 54 356 78.5Q388 103 388 147Q388 176 368.5 195Q349 214 309 223L197 248Q120 266 88.5 299Q57 332 57 389Q57 458 109 498.5Q161 539 254 539Q354 539 405 501.5Q456 464 456 392V382H376V390Q376 434 345.5 455Q315 476 252 476Q196 476 165.5 454.5Q135 433 135 394Q135 365 154 348Q173 331 218 321L334 295Q403 279 436.5 244.5Q470 210 470 155Q470 76 417 32.5Q364 -11 265 -11L245 -54Q253 -52 257.5 -51.5Q262 -51 268 -51Q306 -51 328 -73.5Q350 -96 350 -131Z" glyph-name="scedilla" horiz-adv-x="518" unicode="&#351;" /><glyph d="M456 392V382H376V390Q376 434 345.5 455Q315 476 252 476Q195 476 165 454.5Q135 433 135 394Q135 365 154 348Q173 331 218 321L334 295Q403 279 436.5 244.5Q470 210 470 155Q470 76 416.5 32.5Q363 -11 263 -11Q157 -11 103 24.5Q49 60 49 129V140H130V131Q130 91 163 72.5Q196 54 264 54Q324 54 356 78Q388 102 388 147Q388 176 368.5 195Q349 214 309 223L197 248Q120 266 88.5 299Q57 332 57 389Q57 458 109 498.5Q161 539 254 539Q354 539 405 501.5Q456 464 456 392ZM259 528ZM263 10ZM259 0ZM326 598 259 696H258L191 598H125L219 739H298L392 598ZM259 528Z" glyph-name="scircumflex" horiz-adv-x="518" unicode="&#349;" /><glyph d="M457 313Q457 305 455.5 297Q454 289 451 282L195 387Q122 418 91 456.5Q60 495 60 553Q60 628 111.5 669.5Q163 711 259 711Q361 711 412.5 672.5Q464 634 464 560V552H384V559Q384 604 353 626Q322 648 258 648Q198 648 167.5 624.5Q137 601 137 556Q137 522 157 498Q177 474 221 457L363 401Q415 382 436 361.5Q457 341 457 313ZM71 268Q71 277 72.5 284.5Q74 292 77 299L333 194Q406 163 437 124.5Q468 86 468 28Q468 -48 417 -89Q366 -130 269 -130Q169 -130 116.5 -91Q64 -52 64 21V29H143V22Q143 -23 174.5 -45Q206 -67 270 -67Q330 -67 360.5 -43.5Q391 -20 391 25Q391 59 371 83Q351 107 307 124L165 180Q113 199 92 219.5Q71 240 71 268Z" glyph-name="section" horiz-adv-x="528" unicode="&#167;" /><glyph d="M187 528V432H98V528ZM95 470ZM98 96H187V74L129 -118H67Z" glyph-name="semicolon" horiz-adv-x="270" unicode=";" /><glyph d="M28 624V700H517V632L207 0H113L419 624Z" glyph-name="seven" horiz-adv-x="544" unicode="7" /><glyph d="M15 292V350H280V298L135 0H60L200 292Z" glyph-name="seven.denominator" horiz-adv-x="296" unicode="&#63068;" /><glyph d="M15 152V210H280V158L135 -140H60L200 152Z" glyph-name="seven.inferior" horiz-adv-x="296" unicode="&#8327;" /><glyph d="M15 642V700H280V648L135 350H60L200 642Z" glyph-name="seven.numerator" horiz-adv-x="296" unicode="&#63080;" /><glyph d="M15 782V840H280V788L135 490H60L200 782Z" glyph-name="seven.superior" horiz-adv-x="296" unicode="&#8311;" /><glyph d="M59 624V700H548V632L238 0H144L450 624Z" glyph-name="seven.tab" horiz-adv-x="609" unicode="&#65303;" /><glyph d="M551 211Q551 104 489.5 46.5Q428 -11 310 -11Q193 -11 131.5 47Q70 105 70 212V470Q70 580 133 645.5Q196 711 309 711Q418 711 478.5 661Q539 611 539 528V507H454V526Q454 576 415.5 607.5Q377 639 311 639Q238 639 197 596Q156 553 156 480V352Q183 388 226 406.5Q269 425 326 425Q435 425 493 369Q551 313 551 211ZM157 206Q157 134 195.5 96.5Q234 59 310 59Q386 59 425 96.5Q464 134 464 206Q464 279 425 316Q386 353 310 353Q234 353 195.5 316Q157 279 157 206Z" glyph-name="six" horiz-adv-x="607" unicode="6" /><glyph d="M294 109Q294 55 260.5 24.5Q227 -6 164 -6Q102 -6 68.5 24.5Q35 55 35 110V229Q35 287 68.5 321.5Q102 356 163 356Q222 356 254 329.5Q286 303 286 259V252H218V257Q218 276 203 288Q188 300 162 300Q135 300 119.5 282.5Q104 265 104 236V185Q116 201 135 208.5Q154 216 180 216Q234 216 264 187Q294 158 294 109ZM104 105Q104 76 119 61Q134 46 164 46Q193 46 208 61Q223 76 223 105Q223 134 208 149Q193 164 164 164Q134 164 119 149Q104 134 104 105Z" glyph-name="six.denominator" horiz-adv-x="322" unicode="&#63067;" /><glyph d="M294 -31Q294 -85 260.5 -115.5Q227 -146 164 -146Q102 -146 68.5 -115.5Q35 -85 35 -30V89Q35 147 68.5 181.5Q102 216 163 216Q222 216 254 189.5Q286 163 286 119V112H218V117Q218 136 203 148Q188 160 162 160Q135 160 119.5 142.5Q104 125 104 96V45Q116 61 135 68.5Q154 76 180 76Q234 76 264 47Q294 18 294 -31ZM104 -35Q104 -64 119 -79Q134 -94 164 -94Q193 -94 208 -79Q223 -64 223 -35Q223 -6 208 9Q193 24 164 24Q134 24 119 9Q104 -6 104 -35Z" glyph-name="six.inferior" horiz-adv-x="322" unicode="&#8326;" /><glyph d="M294 459Q294 405 260.5 374.5Q227 344 164 344Q102 344 68.5 374.5Q35 405 35 460V579Q35 637 68.5 671.5Q102 706 163 706Q222 706 254 679.5Q286 653 286 609V602H218V607Q218 626 203 638Q188 650 162 650Q135 650 119.5 632.5Q104 615 104 586V535Q116 551 135 558.5Q154 566 180 566Q234 566 264 537Q294 508 294 459ZM104 455Q104 426 119 411Q134 396 164 396Q193 396 208 411Q223 426 223 455Q223 484 208 499Q193 514 164 514Q134 514 119 499Q104 484 104 455Z" glyph-name="six.numerator" horiz-adv-x="322" unicode="&#63079;" /><glyph d="M294 599Q294 545 260.5 514.5Q227 484 164 484Q102 484 68.5 514.5Q35 545 35 600V719Q35 777 68.5 811.5Q102 846 163 846Q222 846 254 819.5Q286 793 286 749V742H218V747Q218 766 203 778Q188 790 162 790Q135 790 119.5 772.5Q104 755 104 726V675Q116 691 135 698.5Q154 706 180 706Q234 706 264 677Q294 648 294 599ZM104 595Q104 566 119 551Q134 536 164 536Q193 536 208 551Q223 566 223 595Q223 624 208 639Q193 654 164 654Q134 654 119 639Q104 624 104 595Z" glyph-name="six.superior" horiz-adv-x="322" unicode="&#8310;" /><glyph d="M552 211Q552 104 490.5 46.5Q429 -11 311 -11Q194 -11 132.5 47Q71 105 71 212V470Q71 580 134 645.5Q197 711 310 711Q419 711 479.5 661Q540 611 540 528V507H455V526Q455 576 416.5 607.5Q378 639 312 639Q239 639 198 596Q157 553 157 480V352Q184 388 227 406.5Q270 425 327 425Q436 425 494 369Q552 313 552 211ZM158 206Q158 134 196.5 96.5Q235 59 311 59Q387 59 426 96.5Q465 134 465 206Q465 279 426 316Q387 353 311 353Q235 353 196.5 316Q158 279 158 206Z" glyph-name="six.tab" horiz-adv-x="609" unicode="&#65302;" /><glyph d="M427 758H510L103 -126H20Z" glyph-name="slash" horiz-adv-x="530" unicode="/" /><glyph glyph-name="space" horiz-adv-x="220" unicode=" " /><glyph d="M214 70H568V0H51V63L127 70V292H51V355H127V470Q127 581 188.5 646Q250 711 362 711Q468 711 527 653Q586 595 586 500V478H501V495Q501 557 463 595.5Q425 634 360 634Q290 634 252 590.5Q214 547 214 470V355H423V292H214Z" glyph-name="sterling" horiz-adv-x="638" unicode="&#163;" /><glyph d="M170 622 364 320V293L164 -48H541V-126H35V-90L272 309L35 671V700H541V622Z" glyph-name="summation" horiz-adv-x="587" unicode="&#8721;" /><glyph d="M298 69H346V0H286Q193 0 147.5 39.5Q102 79 102 164V462H26V527H102V665H185V527H329V462H185V169Q185 116 212 92.5Q239 69 298 69ZM249 716ZM223 10ZM155 0Z" glyph-name="t" horiz-adv-x="369" unicode="t" /><glyph d="M300 69H348V0H288Q195 0 149.5 39.5Q104 79 104 164V264H41V323H104V462H28V527H104V665H187V527H331V462H187V323H322V264H187V169Q187 116 214 92.5Q241 69 300 69Z" glyph-name="tbar" horiz-adv-x="372" unicode="&#359;" /><glyph d="M298 69H346V0H286Q193 0 147.5 39.5Q102 79 102 164V462H26V527H102V665H185V527H329V462H185V169Q185 116 212 92.5Q239 69 298 69ZM249 716ZM223 10ZM155 0ZM255 751H326V730L302 604H255ZM249 716Z" glyph-name="tcaron" horiz-adv-x="369" unicode="&#357;" /><glyph d="M303 63Q371 63 403.5 99Q436 135 436 211V316Q436 391 402.5 428Q369 465 303 465Q233 465 196.5 425.5Q160 386 160 312V216Q160 142 196.5 102.5Q233 63 303 63ZM324 -11Q267 -11 225 7Q183 25 160 60V-164H77V730H160V464Q184 500 227 519.5Q270 539 327 539Q415 539 467 483Q519 427 519 335V193Q519 101 466 45Q413 -11 324 -11Z" glyph-name="thorn" horiz-adv-x="578" unicode="&#254;" /><glyph d="M538 205Q538 100 476.5 44.5Q415 -11 296 -11Q180 -11 118.5 39Q57 89 57 180V201H142V184Q142 124 180.5 93.5Q219 63 295 63Q373 63 411.5 99Q450 135 450 209Q450 270 413.5 302Q377 334 307 334H207V401H311Q371 401 403.5 431Q436 461 436 518Q436 577 400 607Q364 637 293 637Q222 637 186 607Q150 577 150 518V502H64V522Q64 611 124 661Q184 711 295 711Q407 711 465 662.5Q523 614 523 523Q523 472 500.5 432.5Q478 393 437 370Q485 348 511.5 305Q538 262 538 205Z" glyph-name="three" horiz-adv-x="598" unicode="3" /><glyph d="M287 104Q287 52 253.5 23Q220 -6 157 -6Q95 -6 61.5 20.5Q28 47 28 93V106H97V98Q97 74 111.5 62.5Q126 51 155 51Q186 51 201 64.5Q216 78 216 107Q216 129 202.5 142.5Q189 156 168 156H115V207H167Q183 207 194.5 219.5Q206 232 206 251Q206 275 193 287Q180 299 154 299Q128 299 114.5 287.5Q101 276 101 254V247H33V259Q33 304 65 330Q97 356 155 356Q214 356 245 329.5Q276 303 276 255Q276 232 266 214Q256 196 237 184Q261 173 274 152.5Q287 132 287 104Z" glyph-name="three.denominator" horiz-adv-x="317" unicode="&#63064;" /><glyph d="M287 -36Q287 -88 253.5 -117Q220 -146 157 -146Q95 -146 61.5 -119.5Q28 -93 28 -47V-34H97V-42Q97 -66 111.5 -77.5Q126 -89 155 -89Q186 -89 201 -75.5Q216 -62 216 -33Q216 -11 202.5 2.5Q189 16 168 16H115V67H167Q183 67 194.5 79.5Q206 92 206 111Q206 135 193 147Q180 159 154 159Q128 159 114.5 147.5Q101 136 101 114V107H33V119Q33 164 65 190Q97 216 155 216Q214 216 245 189.5Q276 163 276 115Q276 92 266 74Q256 56 237 44Q261 33 274 12.5Q287 -8 287 -36Z" glyph-name="three.inferior" horiz-adv-x="317" unicode="&#8323;" /><glyph d="M287 454Q287 402 253.5 373Q220 344 157 344Q95 344 61.5 370.5Q28 397 28 443V456H97V448Q97 424 111.5 412.5Q126 401 155 401Q186 401 201 414.5Q216 428 216 457Q216 479 202.5 492.5Q189 506 168 506H115V557H167Q183 557 194.5 569.5Q206 582 206 601Q206 625 193 637Q180 649 154 649Q128 649 114.5 637.5Q101 626 101 604V597H33V609Q33 654 65 680Q97 706 155 706Q214 706 245 679.5Q276 653 276 605Q276 582 266 564Q256 546 237 534Q261 523 274 502.5Q287 482 287 454Z" glyph-name="three.numerator" horiz-adv-x="317" unicode="&#63076;" /><glyph d="M543 205Q543 100 481.5 44.5Q420 -11 301 -11Q185 -11 123.5 39Q62 89 62 180V201H147V184Q147 124 185.5 93.5Q224 63 300 63Q378 63 416.5 99Q455 135 455 209Q455 270 418.5 302Q382 334 312 334H212V401H316Q376 401 408.5 431Q441 461 441 518Q441 577 405 607Q369 637 298 637Q227 637 191 607Q155 577 155 518V502H69V522Q69 611 129 661Q189 711 300 711Q412 711 470 662.5Q528 614 528 523Q528 472 505.5 432.5Q483 393 442 370Q490 348 516.5 305Q543 262 543 205Z" glyph-name="three.tab" horiz-adv-x="609" unicode="&#65299;" /><glyph d="M304 454Q304 402 270.5 373Q237 344 174 344Q112 344 78.5 370.5Q45 397 45 443V456H114V448Q114 424 128.5 412.5Q143 401 172 401Q203 401 218 414.5Q233 428 233 457Q233 479 219.5 492.5Q206 506 185 506H132V557H184Q200 557 211.5 569.5Q223 582 223 601Q223 625 210 637Q197 649 171 649Q145 649 131.5 637.5Q118 626 118 604V597H50V609Q50 654 82 680Q114 706 172 706Q231 706 262 679.5Q293 653 293 605Q293 582 283 564Q273 546 254 534Q278 523 291 502.5Q304 482 304 454ZM563 700H642L203 0H124ZM518 350H587L524 152H642V350H713V0H642V94H453V151Z" glyph-name="threequarters" horiz-adv-x="771" unicode="&#190;" /><glyph d="M287 594Q287 542 253.5 513Q220 484 157 484Q95 484 61.5 510.5Q28 537 28 583V596H97V588Q97 564 111.5 552.5Q126 541 155 541Q186 541 201 554.5Q216 568 216 597Q216 619 202.5 632.5Q189 646 168 646H115V697H167Q183 697 194.5 709.5Q206 722 206 741Q206 765 193 777Q180 789 154 789Q128 789 114.5 777.5Q101 766 101 744V737H33V749Q33 794 65 820Q97 846 155 846Q214 846 245 819.5Q276 793 276 745Q276 722 266 704Q256 686 237 674Q261 663 274 642.5Q287 622 287 594Z" glyph-name="threesuperior" horiz-adv-x="317" unicode="&#179;" /><glyph d="M322 594Q303 594 286.5 599Q270 604 256 614L219 641Q211 647 202 650Q193 653 185 653Q164 653 152.5 638.5Q141 624 141 598H92Q92 651 116.5 681.5Q141 712 183 712Q200 712 215.5 707Q231 702 244 692L280 666Q289 660 300.5 655.5Q312 651 320 651Q341 651 351 665Q361 679 361 708H409Q409 653 386.5 623.5Q364 594 322 594ZM250 528Z" glyph-name="tilde" horiz-adv-x="500" unicode="&#732;" /><glyph d="M197 747Q178 747 161.5 752Q145 757 131 767L94 794Q86 800 77 803Q68 806 60 806Q39 806 27.5 791.5Q16 777 16 751H-33Q-33 804 -8.5 834.5Q16 865 58 865Q75 865 90.5 860Q106 855 119 845L155 819Q164 813 175.5 808.5Q187 804 195 804Q216 804 226 818Q236 832 236 861H284Q284 806 261.5 776.5Q239 747 197 747ZM126 700Z" glyph-name="tilde.case" horiz-adv-x="250" /><glyph d="M352 700V638H231V291H160V638H34V700ZM602 433H573L473 584V291H404V700H475L590 523L702 700H767V291H697V582Z" glyph-name="trademark" horiz-adv-x="848" unicode="&#8482;" /><glyph d="M452 513Q452 574 414 604.5Q376 635 300 635Q224 635 185 600.5Q146 566 146 499V482H61V503Q61 600 123.5 655.5Q186 711 302 711Q419 711 479.5 660Q540 609 540 513Q540 445 508.5 397Q477 349 406 317L238 242Q189 219 172 193Q155 167 155 124V76H545V0H68V131Q68 193 94 235.5Q120 278 180 305L369 390Q413 411 432.5 441Q452 471 452 513Z" glyph-name="two" horiz-adv-x="602" unicode="2" /><glyph d="M219 248Q219 273 204 285.5Q189 298 160 298Q130 298 115.5 284.5Q101 271 101 243V234H32V246Q32 297 65.5 326.5Q99 356 161 356Q223 356 256 328Q289 300 289 249Q289 213 272.5 188.5Q256 164 222 150L133 114Q117 108 111 101Q105 94 105 79V58H288V0H35V79Q35 107 48 127Q61 147 85 157L191 202Q205 208 212 219Q219 230 219 248Z" glyph-name="two.denominator" horiz-adv-x="320" unicode="&#63063;" /><glyph d="M219 108Q219 133 204 145.5Q189 158 160 158Q130 158 115.5 144.5Q101 131 101 103V94H32V106Q32 157 65.5 186.5Q99 216 161 216Q223 216 256 188Q289 160 289 109Q289 73 272.5 48.5Q256 24 222 10L133 -26Q117 -32 111 -39Q105 -46 105 -61V-82H288V-140H35V-61Q35 -33 48 -13Q61 7 85 17L191 62Q205 68 212 79Q219 90 219 108Z" glyph-name="two.inferior" horiz-adv-x="320" unicode="&#8322;" /><glyph d="M219 598Q219 623 204 635.5Q189 648 160 648Q130 648 115.5 634.5Q101 621 101 593V584H32V596Q32 647 65.5 676.5Q99 706 161 706Q223 706 256 678Q289 650 289 599Q289 563 272.5 538.5Q256 514 222 500L133 464Q117 458 111 451Q105 444 105 429V408H288V350H35V429Q35 457 48 477Q61 497 85 507L191 552Q205 558 212 569Q219 580 219 598Z" glyph-name="two.numerator" horiz-adv-x="320" unicode="&#63075;" /><glyph d="M455 513Q455 574 417 604.5Q379 635 303 635Q227 635 188 600.5Q149 566 149 499V482H64V503Q64 600 126.5 655.5Q189 711 305 711Q422 711 482.5 660Q543 609 543 513Q543 445 511.5 397Q480 349 409 317L241 242Q192 219 175 193Q158 167 158 124V76H548V0H71V131Q71 193 97 235.5Q123 278 183 305L372 390Q416 411 435.5 441Q455 471 455 513Z" glyph-name="two.tab" horiz-adv-x="609" unicode="&#65298;" /><glyph d="M219 738Q219 763 204 775.5Q189 788 160 788Q130 788 115.5 774.5Q101 761 101 733V724H32V736Q32 787 65.5 816.5Q99 846 161 846Q223 846 256 818Q289 790 289 739Q289 703 272.5 678.5Q256 654 222 640L133 604Q117 598 111 591Q105 584 105 569V548H288V490H35V569Q35 597 48 617Q61 637 85 647L191 692Q205 698 212 709Q219 720 219 738Z" glyph-name="twosuperior" horiz-adv-x="320" unicode="&#178;" /><glyph d="M505 0H431L426 71Q403 32 359.5 10.5Q316 -11 258 -11Q174 -11 123 41.5Q72 94 72 178V528H155V197Q155 131 187.5 97Q220 63 283 63Q350 63 385.5 103Q421 143 421 216V528H505ZM288 528ZM452 0Z" glyph-name="u" horiz-adv-x="582" unicode="u" /><glyph d="M505 0H431L426 71Q403 32 359.5 10.5Q316 -11 258 -11Q174 -11 123 41.5Q72 94 72 178V528H155V197Q155 131 187.5 97Q220 63 283 63Q350 63 385.5 103Q421 143 421 216V528H505ZM288 528ZM452 0ZM326 739H418L319 598H251ZM288 528Z" glyph-name="uacute" horiz-adv-x="582" unicode="&#250;" /><glyph d="M505 0H431L426 71Q403 32 359.5 10.5Q316 -11 258 -11Q174 -11 123 41.5Q72 94 72 178V528H155V197Q155 131 187.5 97Q220 63 283 63Q350 63 385.5 103Q421 143 421 216V528H505ZM288 528ZM452 0ZM346 696V719H401V696Q401 646 370 617Q339 588 287 588Q235 588 204.5 617.5Q174 647 174 696V719H229V696Q229 670 245 654.5Q261 639 287 639Q314 639 330 654.5Q346 670 346 696ZM288 528Z" glyph-name="ubreve" horiz-adv-x="582" unicode="&#365;" /><glyph d="M505 0H431L426 71Q403 32 359.5 10.5Q316 -11 258 -11Q174 -11 123 41.5Q72 94 72 178V528H155V197Q155 131 187.5 97Q220 63 283 63Q350 63 385.5 103Q421 143 421 216V528H505ZM288 528ZM452 0ZM355 598 288 696H287L220 598H154L248 739H327L421 598ZM288 528Z" glyph-name="ucircumflex" horiz-adv-x="582" unicode="&#251;" /><glyph d="M505 0H431L426 71Q403 32 359.5 10.5Q316 -11 258 -11Q174 -11 123 41.5Q72 94 72 178V528H155V197Q155 131 187.5 97Q220 63 283 63Q350 63 385.5 103Q421 143 421 216V528H505ZM288 528ZM452 0ZM258 711V630H181V711ZM394 711V630H317V711ZM288 528Z" glyph-name="udieresis" horiz-adv-x="582" unicode="&#252;" /><glyph d="M505 0H431L426 71Q403 32 359.5 10.5Q316 -11 258 -11Q174 -11 123 41.5Q72 94 72 178V528H155V197Q155 131 187.5 97Q220 63 283 63Q350 63 385.5 103Q421 143 421 216V528H505ZM288 528ZM452 0ZM324 598H255L157 739H248ZM288 528Z" glyph-name="ugrave" horiz-adv-x="582" unicode="&#249;" /><glyph d="M505 0H431L426 71Q403 32 359.5 10.5Q316 -11 258 -11Q174 -11 123 41.5Q72 94 72 178V528H155V197Q155 131 187.5 97Q220 63 283 63Q350 63 385.5 103Q421 143 421 216V528H505ZM288 528ZM452 0ZM249 739H342L248 598H177ZM396 739H489L379 598H308ZM288 528Z" glyph-name="uhungarumlaut" horiz-adv-x="582" unicode="&#369;" /><glyph d="M505 0H431L426 71Q403 32 359.5 10.5Q316 -11 258 -11Q174 -11 123 41.5Q72 94 72 178V528H155V197Q155 131 187.5 97Q220 63 283 63Q350 63 385.5 103Q421 143 421 216V528H505ZM288 528ZM452 0ZM159 633V688H416V633ZM288 528Z" glyph-name="umacron" horiz-adv-x="582" unicode="&#363;" /><glyph d="M0 -145V-76H504V-145Z" glyph-name="underscore" horiz-adv-x="504" unicode="_" /><glyph glyph-name="uni00A0" horiz-adv-x="220" unicode="&#160;" /><glyph d="M73 274V354H347V274Z" glyph-name="uni00AD" horiz-adv-x="420" unicode="&#173;" /><glyph d="M328 347H592V235Q592 116 525.5 52.5Q459 -11 331 -11Q204 -11 136 54.5Q68 120 68 236V465Q68 578 136.5 644.5Q205 711 329 711Q453 711 521.5 657.5Q590 604 590 513V497H503V509Q503 567 457.5 600.5Q412 634 329 634Q246 634 200.5 588.5Q155 543 155 465V236Q155 156 200.5 111Q246 66 331 66Q414 66 459.5 107Q505 148 505 220V281H328ZM328 700ZM330 0ZM290 -60H369V-81L332 -206H273ZM330 0ZM330 -207Z" glyph-name="uni0122" horiz-adv-x="653" unicode="&#290;" /><glyph d="M274 96Q343 96 380 133.5Q417 171 417 239V322Q417 390 380 428Q343 466 274 466Q208 466 174.5 429.5Q141 393 141 322V239Q141 168 174.5 132Q208 96 274 96ZM287 -190Q184 -190 130 -152Q76 -114 76 -42V-38H155V-42Q155 -83 188 -103.5Q221 -124 286 -124Q350 -124 383.5 -92.5Q417 -61 417 -2V97Q393 61 350 41.5Q307 22 250 22Q162 22 110 78Q58 134 58 226V335Q58 427 111 483Q164 539 253 539Q312 539 355.5 518.5Q399 498 422 459L426 528H500V5Q500 -89 445 -139.5Q390 -190 287 -190ZM283 528ZM323 629H237V651L280 776H343ZM283 528Z" glyph-name="uni0123" horiz-adv-x="577" unicode="&#291;" /><glyph d="M298 335 176 200V0H88V700H176V309L519 700H623L358 402L632 0H525ZM334 0ZM294 -60H373V-81L336 -206H277ZM334 0ZM334 -207Z" glyph-name="uni0136" horiz-adv-x="644" unicode="&#310;" /><glyph d="M239 250 160 165V0H77V730H160V269L400 528H500L294 307L517 0H418ZM278 0ZM238 -60H317V-81L280 -206H221ZM278 0ZM278 -207Z" glyph-name="uni0137" horiz-adv-x="524" unicode="&#311;" /><glyph d="M534 0H88V700H176V77H534ZM132 700ZM265 700ZM362 350ZM311 0ZM271 -60H350V-81L313 -206H254ZM311 0ZM311 -207Z" glyph-name="uni013B" horiz-adv-x="556" unicode="&#315;" /><glyph d="M163 730V0H79V730ZM121 730ZM243 700ZM225 350ZM121 0ZM81 -60H160V-81L123 -206H64ZM121 0ZM121 -207Z" glyph-name="uni013C" horiz-adv-x="242" unicode="&#316;" /><glyph d="M611 0H538L171 535V0H88V700H161L528 164V700H611ZM350 700ZM350 0ZM310 -60H389V-81L352 -206H293ZM350 0ZM350 -207Z" glyph-name="uni0145" horiz-adv-x="699" unicode="&#325;" /><glyph d="M160 312V0H77V528H151L156 456Q179 496 223 517.5Q267 539 327 539Q416 539 467 485Q518 431 518 341V0H434V322Q434 392 401 428.5Q368 465 303 465Q234 465 197 424.5Q160 384 160 312ZM88 566ZM297 528ZM297 0ZM257 -60H336V-81L299 -206H240ZM297 0ZM297 -207Z" glyph-name="uni0146" horiz-adv-x="590" unicode="&#326;" /><glyph d="M521 482Q521 555 477.5 590.5Q434 626 346 626H176V339H346Q434 339 477.5 374.5Q521 410 521 482ZM345 266H176V0H88V700H345Q476 700 543 645Q610 590 610 483Q610 405 574 354Q538 303 467 282L598 0H505L381 267Q375 266 367.5 266Q360 266 345 266ZM287 -60H366V-81L329 -206H270Z" glyph-name="uni0156" horiz-adv-x="661" unicode="&#342;" /><glyph d="M160 285V0H77V528H151L157 439Q181 487 229 512.5Q277 538 344 538V457H329Q247 457 203.5 412.5Q160 368 160 285ZM211 528ZM119 0ZM79 -60H158V-81L121 -206H62ZM119 0ZM119 -207Z" glyph-name="uni0157" horiz-adv-x="366" unicode="&#343;" /><glyph d="M385 -131Q385 -171 360.5 -195Q336 -219 291 -219Q248 -219 224.5 -201.5Q201 -184 201 -153V-143H251V-148Q251 -158 260.5 -163.5Q270 -169 289 -169Q308 -169 317 -160Q326 -151 326 -133Q326 -116 316.5 -107.5Q307 -99 288 -99Q279 -99 271 -101Q263 -103 249 -110L210 -88L252 0H242V623H22V700H550V623H329V0H305L280 -54Q288 -52 292.5 -51.5Q297 -51 303 -51Q341 -51 363 -73.5Q385 -96 385 -131Z" glyph-name="uni0162" horiz-adv-x="572" unicode="&#354;" /><glyph d="M306 -131Q306 -171 281.5 -195Q257 -219 212 -219Q169 -219 145.5 -201.5Q122 -184 122 -153V-143H172V-148Q172 -158 181.5 -163.5Q191 -169 210 -169Q229 -169 238 -160Q247 -151 247 -133Q247 -116 237.5 -107.5Q228 -99 209 -99Q200 -99 192 -101Q184 -103 170 -110L131 -88L186 16Q143 34 122.5 70Q102 106 102 164V462H26V527H102V665H185V527H329V462H185V169Q185 116 212 92.5Q239 69 298 69H346V0H286Q269 0 256 1Q243 2 232 4L201 -54Q209 -52 213.5 -51.5Q218 -51 224 -51Q262 -51 284 -73.5Q306 -96 306 -131Z" glyph-name="uni0163" horiz-adv-x="369" unicode="&#355;" /><glyph d="M560 519V507H473V518Q473 578 431.5 607.5Q390 637 306 637Q228 637 188.5 608Q149 579 149 522Q149 481 173.5 457.5Q198 434 255 421L410 385Q491 366 532.5 321Q574 276 574 206Q574 100 510.5 44.5Q447 -11 324 -11Q190 -11 122 35Q54 81 54 172V184H141V174Q141 118 186 91Q231 64 323 64Q403 64 443.5 97.5Q484 131 484 196Q484 239 458.5 266Q433 293 379 305L224 341Q140 361 101.5 403Q63 445 63 516Q63 609 126.5 660Q190 711 308 711Q430 711 495 661Q560 611 560 519ZM314 700ZM314 10ZM314 0ZM274 -60H353V-81L316 -206H257ZM314 0ZM314 -207Z" glyph-name="uni0218" horiz-adv-x="628" unicode="&#536;" /><glyph d="M456 392V382H376V390Q376 434 345.5 455Q315 476 252 476Q195 476 165 454.5Q135 433 135 394Q135 365 154 348Q173 331 218 321L334 295Q403 279 436.5 244.5Q470 210 470 155Q470 76 416.5 32.5Q363 -11 263 -11Q157 -11 103 24.5Q49 60 49 129V140H130V131Q130 91 163 72.5Q196 54 264 54Q324 54 356 78Q388 102 388 147Q388 176 368.5 195Q349 214 309 223L197 248Q120 266 88.5 299Q57 332 57 389Q57 458 109 498.5Q161 539 254 539Q354 539 405 501.5Q456 464 456 392ZM259 528ZM263 10ZM259 0ZM219 -60H298V-81L261 -206H202ZM259 0ZM259 -207Z" glyph-name="uni0219" horiz-adv-x="518" unicode="&#537;" /><glyph d="M550 700V623H329V0H242V623H22V700ZM286 700ZM302 10ZM286 0ZM246 -60H325V-81L288 -206H229ZM286 0ZM286 -207Z" glyph-name="uni021A" horiz-adv-x="572" unicode="&#538;" /><glyph d="M298 69H346V0H286Q193 0 147.5 39.5Q102 79 102 164V462H26V527H102V665H185V527H329V462H185V169Q185 116 212 92.5Q239 69 298 69ZM249 716ZM223 10ZM155 0ZM115 -60H194V-81L157 -206H98ZM155 0ZM155 -207Z" glyph-name="uni021B" horiz-adv-x="369" unicode="&#539;" /><glyph d="M-25 -180H-63V-111H-33Q23 -111 51 -89Q79 -67 79 -23V528H163V-20Q163 -97 115 -138.5Q67 -180 -25 -180ZM120 528Z" glyph-name="uni0237" horiz-adv-x="242" unicode="&#567;" /><glyph d="M121 633V688H378V633ZM250 528Z" glyph-name="uni02C9" horiz-adv-x="500" unicode="&#713;" /><glyph d="M351 700 567 0H23L240 700ZM293 609 126 70H464L298 609Z" glyph-name="uni0394" horiz-adv-x="591" unicode="&#916;" /><glyph d="M511 336V460Q511 541 465 587.5Q419 634 333 634Q249 634 203 587.5Q157 541 157 460V336Q157 266 187.5 217Q218 168 266 158V0H70V73H207V106Q146 126 107.5 188Q69 250 69 331V465Q69 578 138 644.5Q207 711 333 711Q460 711 529 645Q598 579 598 465V331Q598 251 560 188.5Q522 126 461 106V73H598V0H402V158Q450 168 480.5 217Q511 266 511 336Z" glyph-name="uni03A9" horiz-adv-x="667" unicode="&#937;" /><glyph d="M264 -11Q231 -11 202.5 -3Q174 5 152 20L160 -180H77V528H160V197Q160 134 193.5 98.5Q227 63 288 63Q355 63 391 103.5Q427 144 427 216V528H510V0H437L432 71Q409 32 365.5 10.5Q322 -11 264 -11Z" glyph-name="uni03BC" horiz-adv-x="587" unicode="&#956;" /><glyph d="M446 73V0H318Q217 0 169.5 45Q122 90 122 193V213Q101 205 81.5 197.5Q62 190 44 183L20 247Q63 265 88.5 275.5Q114 286 122 289V501Q122 598 170 654.5Q218 711 303 711Q381 711 421.5 667Q462 623 462 541Q462 456 399.5 384Q337 312 205 249V201Q205 127 232.5 100Q260 73 324 73ZM305 645Q255 645 230 609.5Q205 574 205 501V329Q299 380 345 432.5Q391 485 391 541Q391 592 369.5 618.5Q348 645 305 645Z" glyph-name="uni2113" horiz-adv-x="499" unicode="&#8467;" /><glyph d="M53 621V683L160 702H213V409H302V350H53V409H142V633ZM573 700H652L213 0H134ZM732 104Q732 52 698.5 23Q665 -6 602 -6Q540 -6 506.5 20.5Q473 47 473 93V106H542V98Q542 74 556.5 62.5Q571 51 600 51Q631 51 646 64.5Q661 78 661 107Q661 129 647.5 142.5Q634 156 613 156H560V207H612Q628 207 639.5 219.5Q651 232 651 251Q651 275 638 287Q625 299 599 299Q573 299 559.5 287.5Q546 276 546 254V247H478V259Q478 304 510 330Q542 356 600 356Q659 356 690 329.5Q721 303 721 255Q721 232 711 214Q701 196 682 184Q706 173 719 152.5Q732 132 732 104Z" glyph-name="uni2153" horiz-adv-x="775" unicode="&#8531;" /><glyph d="M238 598Q238 623 223 635.5Q208 648 179 648Q149 648 134.5 634.5Q120 621 120 593V584H51V596Q51 647 84.5 676.5Q118 706 180 706Q242 706 275 678Q308 650 308 599Q308 563 291.5 538.5Q275 514 241 500L152 464Q136 458 130 451Q124 444 124 429V408H307V350H54V429Q54 457 67 477Q80 497 104 507L210 552Q224 558 231 569Q238 580 238 598ZM582 700H661L222 0H143ZM741 104Q741 52 707.5 23Q674 -6 611 -6Q549 -6 515.5 20.5Q482 47 482 93V106H551V98Q551 74 565.5 62.5Q580 51 609 51Q640 51 655 64.5Q670 78 670 107Q670 129 656.5 142.5Q643 156 622 156H569V207H621Q637 207 648.5 219.5Q660 232 660 251Q660 275 647 287Q634 299 608 299Q582 299 568.5 287.5Q555 276 555 254V247H487V259Q487 304 519 330Q551 356 609 356Q668 356 699 329.5Q730 303 730 255Q730 232 720 214Q710 196 691 184Q715 173 728 152.5Q741 132 741 104Z" glyph-name="uni2154" horiz-adv-x="784" unicode="&#8532;" /><glyph d="M53 621V683L160 702H213V409H302V350H53V409H142V633ZM573 700H652L213 0H134ZM614 163H501V351H724V293H571V218H623Q684 218 715.5 190Q747 162 747 109Q747 55 714 25Q681 -5 618 -5Q556 -5 522.5 21.5Q489 48 489 94V104H558V98Q558 75 573 63.5Q588 52 617 52Q647 52 662 66Q677 80 677 110Q677 137 661.5 150Q646 163 614 163Z" glyph-name="uni2155" horiz-adv-x="790" unicode="&#8533;" /><glyph d="M238 598Q238 623 223 635.5Q208 648 179 648Q149 648 134.5 634.5Q120 621 120 593V584H51V596Q51 647 84.5 676.5Q118 706 180 706Q242 706 275 678Q308 650 308 599Q308 563 291.5 538.5Q275 514 241 500L152 464Q136 458 130 451Q124 444 124 429V408H307V350H54V429Q54 457 67 477Q80 497 104 507L210 552Q224 558 231 569Q238 580 238 598ZM585 700H664L225 0H146ZM625 162H512V350H735V292H582V217H634Q695 217 726.5 189Q758 161 758 108Q758 54 725 24Q692 -6 629 -6Q567 -6 533.5 20.5Q500 47 500 93V103H569V97Q569 74 584 62.5Q599 51 628 51Q658 51 673 65Q688 79 688 109Q688 136 672.5 149Q657 162 625 162Z" glyph-name="uni2156" horiz-adv-x="801" unicode="&#8534;" /><glyph d="M304 454Q304 402 270.5 373Q237 344 174 344Q112 344 78.5 370.5Q45 397 45 443V456H114V448Q114 424 128.5 412.5Q143 401 172 401Q203 401 218 414.5Q233 428 233 457Q233 479 219.5 492.5Q206 506 185 506H132V557H184Q200 557 211.5 569.5Q223 582 223 601Q223 625 210 637Q197 649 171 649Q145 649 131.5 637.5Q118 626 118 604V597H50V609Q50 654 82 680Q114 706 172 706Q231 706 262 679.5Q293 653 293 605Q293 582 283 564Q273 546 254 534Q278 523 291 502.5Q304 482 304 454ZM564 700H643L204 0H125ZM604 162H491V350H714V292H561V217H613Q674 217 705.5 189Q737 161 737 108Q737 54 704 24Q671 -6 608 -6Q546 -6 512.5 20.5Q479 47 479 93V103H548V97Q548 74 563 62.5Q578 51 607 51Q637 51 652 65Q667 79 667 109Q667 136 651.5 149Q636 162 604 162Z" glyph-name="uni2157" horiz-adv-x="780" unicode="&#8535;" /><glyph d="M100 700H169L106 502H224V700H295V350H224V444H35V501ZM577 700H656L217 0H138ZM618 162H505V350H728V292H575V217H627Q688 217 719.5 189Q751 161 751 108Q751 54 718 24Q685 -6 622 -6Q560 -6 526.5 20.5Q493 47 493 93V103H562V97Q562 74 577 62.5Q592 51 621 51Q651 51 666 65Q681 79 681 109Q681 136 665.5 149Q650 162 618 162Z" glyph-name="uni2158" horiz-adv-x="794" unicode="&#8536;" /><glyph d="M53 621V683L160 702H213V409H302V350H53V409H142V633ZM573 700H652L213 0H134ZM739 109Q739 55 705.5 24.5Q672 -6 609 -6Q547 -6 513.5 24.5Q480 55 480 110V229Q480 287 513.5 321.5Q547 356 608 356Q667 356 699 329.5Q731 303 731 259V252H663V257Q663 276 648 288Q633 300 607 300Q580 300 564.5 282.5Q549 265 549 236V185Q561 201 580 208.5Q599 216 625 216Q679 216 709 187Q739 158 739 109ZM549 105Q549 76 564 61Q579 46 609 46Q638 46 653 61Q668 76 668 105Q668 134 653 149Q638 164 609 164Q579 164 564 149Q549 134 549 105Z" glyph-name="uni2159" horiz-adv-x="782" unicode="&#8537;" /><glyph d="M171 512H58V700H281V642H128V567H180Q241 567 272.5 539Q304 511 304 458Q304 404 271 374Q238 344 175 344Q113 344 79.5 370.5Q46 397 46 443V453H115V447Q115 424 130 412.5Q145 401 174 401Q204 401 219 415Q234 429 234 459Q234 486 218.5 499Q203 512 171 512ZM557 700H636L197 0H118ZM723 109Q723 55 689.5 24.5Q656 -6 593 -6Q531 -6 497.5 24.5Q464 55 464 110V229Q464 287 497.5 321.5Q531 356 592 356Q651 356 683 329.5Q715 303 715 259V252H647V257Q647 276 632 288Q617 300 591 300Q564 300 548.5 282.5Q533 265 533 236V185Q545 201 564 208.5Q583 216 609 216Q663 216 693 187Q723 158 723 109ZM533 105Q533 76 548 61Q563 46 593 46Q622 46 637 61Q652 76 652 105Q652 134 637 149Q622 164 593 164Q563 164 548 149Q533 134 533 105Z" glyph-name="uni215A" horiz-adv-x="766" unicode="&#8538;" /><glyph d="M53 621V683L160 702H213V409H302V350H53V409H142V633ZM573 700H652L213 0H134ZM739 103Q739 51 705 22.5Q671 -6 606 -6Q542 -6 508 22.5Q474 51 474 103Q474 131 487 151.5Q500 172 526 184Q505 194 494.5 212.5Q484 231 484 255Q484 303 515 329.5Q546 356 606 356Q666 356 697.5 329.5Q729 303 729 255Q729 231 718.5 212.5Q708 194 687 184Q713 172 726 151.5Q739 131 739 103ZM596 208H616Q636 208 649 221Q662 234 662 254Q662 279 648 292Q634 305 606 305Q578 305 564.5 292.5Q551 280 551 254Q551 234 564 221Q577 208 596 208ZM669 104Q669 126 653.5 140.5Q638 155 616 155H596Q574 155 559 140.5Q544 126 544 104Q544 76 559.5 61.5Q575 47 606 47Q637 47 653 61.5Q669 76 669 104Z" glyph-name="uni215B" horiz-adv-x="781" unicode="&#8539;" /><glyph d="M304 454Q304 402 270.5 373Q237 344 174 344Q112 344 78.5 370.5Q45 397 45 443V456H114V448Q114 424 128.5 412.5Q143 401 172 401Q203 401 218 414.5Q233 428 233 457Q233 479 219.5 492.5Q206 506 185 506H132V557H184Q200 557 211.5 569.5Q223 582 223 601Q223 625 210 637Q197 649 171 649Q145 649 131.5 637.5Q118 626 118 604V597H50V609Q50 654 82 680Q114 706 172 706Q231 706 262 679.5Q293 653 293 605Q293 582 283 564Q273 546 254 534Q278 523 291 502.5Q304 482 304 454ZM564 700H643L204 0H125ZM730 103Q730 51 696 22.5Q662 -6 597 -6Q533 -6 499 22.5Q465 51 465 103Q465 131 478 151.5Q491 172 517 184Q496 194 485.5 212.5Q475 231 475 255Q475 303 506 329.5Q537 356 597 356Q657 356 688.5 329.5Q720 303 720 255Q720 231 709.5 212.5Q699 194 678 184Q704 172 717 151.5Q730 131 730 103ZM587 208H607Q627 208 640 221Q653 234 653 254Q653 279 639 292Q625 305 597 305Q569 305 555.5 292.5Q542 280 542 254Q542 234 555 221Q568 208 587 208ZM660 104Q660 126 644.5 140.5Q629 155 607 155H587Q565 155 550 140.5Q535 126 535 104Q535 76 550.5 61.5Q566 47 597 47Q628 47 644 61.5Q660 76 660 104Z" glyph-name="uni215C" horiz-adv-x="773" unicode="&#8540;" /><glyph d="M171 512H58V700H281V642H128V567H180Q241 567 272.5 539Q304 511 304 458Q304 404 271 374Q238 344 175 344Q113 344 79.5 370.5Q46 397 46 443V453H115V447Q115 424 130 412.5Q145 401 174 401Q204 401 219 415Q234 429 234 459Q234 486 218.5 499Q203 512 171 512ZM557 700H636L197 0H118ZM724 103Q724 51 690 22.5Q656 -6 591 -6Q527 -6 493 22.5Q459 51 459 103Q459 131 472 151.5Q485 172 511 184Q490 194 479.5 212.5Q469 231 469 255Q469 303 500 329.5Q531 356 591 356Q651 356 682.5 329.5Q714 303 714 255Q714 231 703.5 212.5Q693 194 672 184Q698 172 711 151.5Q724 131 724 103ZM581 208H601Q621 208 634 221Q647 234 647 254Q647 279 633 292Q619 305 591 305Q563 305 549.5 292.5Q536 280 536 254Q536 234 549 221Q562 208 581 208ZM654 104Q654 126 638.5 140.5Q623 155 601 155H581Q559 155 544 140.5Q529 126 529 104Q529 76 544.5 61.5Q560 47 591 47Q622 47 638 61.5Q654 76 654 104Z" glyph-name="uni215D" horiz-adv-x="766" unicode="&#8541;" /><glyph d="M37 642V700H302V648L157 350H82L222 642ZM522 700H601L162 0H83ZM689 103Q689 51 655 22.5Q621 -6 556 -6Q492 -6 458 22.5Q424 51 424 103Q424 131 437 151.5Q450 172 476 184Q455 194 444.5 212.5Q434 231 434 255Q434 303 465 329.5Q496 356 556 356Q616 356 647.5 329.5Q679 303 679 255Q679 231 668.5 212.5Q658 194 637 184Q663 172 676 151.5Q689 131 689 103ZM546 208H566Q586 208 599 221Q612 234 612 254Q612 279 598 292Q584 305 556 305Q528 305 514.5 292.5Q501 280 501 254Q501 234 514 221Q527 208 546 208ZM619 104Q619 126 603.5 140.5Q588 155 566 155H546Q524 155 509 140.5Q494 126 494 104Q494 76 509.5 61.5Q525 47 556 47Q587 47 603 61.5Q619 76 619 104Z" glyph-name="uni215E" horiz-adv-x="731" unicode="&#8542;" /><glyph d="M53 621V683L160 702H213V409H302V350H53V409H142V633ZM573 700H652L213 0H134Z" glyph-name="uni215F" horiz-adv-x="452" unicode="&#8543;" /><glyph d="M257 700H336L-103 0H-182Z" glyph-name="uni2215" horiz-adv-x="157" unicode="&#8725;" /><glyph d="M164 408V312H75V408ZM72 350Z" glyph-name="uni2219" horiz-adv-x="239" unicode="&#8729;" /><glyph d="M718 320Q736 320 747 306Q758 292 758 269Q758 236 735.5 218.5Q713 201 671 201V161L674 129Q655 123 650.5 122Q646 121 642 121Q637 121 634 123Q631 125 631 129V204L606 201V198Q606 160 588.5 139.5Q571 119 538 119Q519 119 508 128.5Q497 138 497 153Q497 171 513.5 184Q530 197 567 206V248Q559 225 547 212.5Q535 200 521 200Q507 200 500 207.5Q493 215 493 231V234Q483 217 470 209Q457 201 440 201Q427 201 419 209Q411 217 411 231V332L382 330V334Q382 344 385 349Q388 354 394 354H411L408 384Q427 390 431.5 391Q436 392 440 392Q445 392 448 390Q451 388 451 384V355H498V352Q498 341 495 336Q492 331 486 331H451V245Q451 237 454 233Q457 229 464 229Q474 229 483.5 237Q493 245 493 255V280L490 313Q509 319 513.5 320Q518 321 522 321Q527 321 530 318.5Q533 316 533 312V246Q533 238 534.5 234.5Q536 231 540 231Q547 231 556.5 248Q566 265 566 279L564 313Q583 319 587.5 320Q592 321 595 321Q600 321 603 318.5Q606 316 606 312V213L631 216V277L628 313Q647 319 651.5 320Q656 321 660 321Q665 321 668 318.5Q671 316 671 312V272Q679 295 691 307.5Q703 320 718 320ZM359 321Q373 321 380 313Q387 305 387 289V240L390 208Q371 202 366.5 201Q362 200 359 200Q354 200 351 202Q348 204 348 208V274Q348 283 346 286.5Q344 290 340 290Q333 290 323.5 272.5Q314 255 314 242L316 208Q297 202 292.5 201Q288 200 285 200Q280 200 277 202Q274 204 274 208V274Q274 283 272 286.5Q270 290 266 290Q259 290 249.5 272.5Q240 255 240 242L243 208Q224 202 219.5 201Q215 200 211 200Q206 200 203 202Q200 204 200 208V277L197 313Q216 319 220.5 320Q225 321 229 321Q234 321 237 318.5Q240 316 240 312V272Q246 292 258 306.5Q270 321 285 321Q299 321 306.5 313Q314 305 314 289V272Q320 294 332 307.5Q344 321 359 321ZM1221 257Q1221 262 1221 287.5Q1221 313 1220 332L1191 330V334Q1191 344 1194 349Q1197 354 1203 354H1220L1217 384Q1236 390 1240.5 391Q1245 392 1249 392Q1254 392 1257 390Q1260 388 1260 384V355H1307V352Q1307 341 1304 336Q1301 331 1295 331H1260V241Q1260 233 1264 229.5Q1268 226 1276 226Q1282 226 1289 227Q1296 228 1310 231Q1330 235 1340.5 236Q1351 237 1361 237Q1383 237 1403 230.5Q1423 224 1423 213Q1423 200 1414.5 192.5Q1406 185 1396 185Q1394 185 1391 186Q1388 187 1380 192Q1361 202 1348.5 205.5Q1336 209 1325 209Q1321 209 1316 208.5Q1311 208 1299 206Q1281 203 1270 202Q1259 201 1249 201Q1232 201 1227 210.5Q1222 220 1221 257ZM1414 529H76V537H1414ZM1414 0H76V8H1414ZM1049 321Q1063 321 1070.5 313Q1078 305 1078 289V240L1080 208Q1061 202 1056.5 201Q1052 200 1049 200Q1044 200 1041 202Q1038 204 1038 208V275Q1038 283 1036 286.5Q1034 290 1030 290Q1023 290 1013.5 272.5Q1004 255 1004 242L1007 208Q988 202 983.5 201Q979 200 975 200Q970 200 967 202Q964 204 964 208V277L961 313Q980 319 984.5 320Q989 321 993 321Q998 321 1001 318.5Q1004 316 1004 312V272Q1013 296 1024 308.5Q1035 321 1049 321ZM182 290Q182 278 176 270Q170 262 157 258Q149 255 139 253.5Q129 252 113 252Q114 242 121 236Q128 230 139 230Q148 230 155.5 232Q163 234 171 239Q175 236 177 232Q179 228 179 223Q179 214 166.5 207Q154 200 132 200Q104 200 88 214.5Q72 229 72 253Q72 282 91 301.5Q110 321 141 321Q159 321 170.5 312Q182 303 182 290ZM881 290Q881 278 875 270Q869 262 856 258Q848 255 838 253.5Q828 252 812 252Q813 242 820 236Q827 230 838 230Q847 230 854.5 232Q862 234 870 239Q874 236 876 232Q878 228 878 223Q878 214 865.5 207Q853 200 831 200Q803 200 787 214.5Q771 229 771 253Q771 282 790 301.5Q809 321 840 321Q858 321 869.5 312Q881 303 881 290ZM1204 290Q1204 278 1198 270Q1192 262 1179 258Q1171 255 1161 253.5Q1151 252 1135 252Q1136 242 1143 236Q1150 230 1161 230Q1170 230 1177.5 232Q1185 234 1193 239Q1197 236 1199 232Q1201 228 1201 223Q1201 214 1188.5 207Q1176 200 1154 200Q1126 200 1110 214.5Q1094 229 1094 253Q1094 282 1113 301.5Q1132 321 1163 321Q1181 321 1192.5 312Q1204 303 1204 290ZM671 242V219Q694 222 705 235Q716 248 716 270Q716 280 712.5 285Q709 290 703 290Q691 290 681 272Q671 254 671 242ZM896 226Q896 236 903 243Q910 250 921 250Q932 250 939.5 243Q947 236 947 226Q947 216 939.5 209.5Q932 203 921 203Q910 203 903 209.5Q896 216 896 226ZM539 148Q551 148 558 159Q565 170 566 194Q547 190 536 181.5Q525 173 525 162Q525 155 529 151.5Q533 148 539 148ZM136 298Q127 298 120.5 288.5Q114 279 112 264Q128 264 138.5 269.5Q149 275 149 285Q149 291 145.5 294.5Q142 298 136 298ZM1158 298Q1149 298 1142.5 288.5Q1136 279 1134 264Q1150 264 1160.5 269.5Q1171 275 1171 285Q1171 291 1167.5 294.5Q1164 298 1158 298ZM835 298Q826 298 819.5 288.5Q813 279 811 264Q827 264 837.5 269.5Q848 275 848 285Q848 291 844.5 294.5Q841 298 835 298Z" glyph-name="uniF8FF" horiz-adv-x="1495" unicode="&#63743;" /><glyph d="M505 -120V-170Q490 -178 473.5 -182Q457 -186 439 -186Q394 -186 365 -161.5Q336 -137 336 -100Q336 -66 360 -36Q384 -6 430 16L426 71Q403 32 359.5 10.5Q316 -11 258 -11Q174 -11 123 41.5Q72 94 72 178V528H155V197Q155 131 187.5 97Q220 63 283 63Q350 63 385.5 103Q421 143 421 216V528H505V0H475Q438 -22 421 -41.5Q404 -61 404 -83Q404 -104 418.5 -115.5Q433 -127 459 -127Q470 -127 481 -125.5Q492 -124 505 -120Z" glyph-name="uogonek" horiz-adv-x="582" unicode="&#371;" /><glyph d="M505 0H431L426 71Q403 32 359.5 10.5Q316 -11 258 -11Q174 -11 123 41.5Q72 94 72 178V528H155V197Q155 131 187.5 97Q220 63 283 63Q350 63 385.5 103Q421 143 421 216V528H505ZM288 528ZM452 0ZM187 687Q187 730 216 758.5Q245 787 287 787Q330 787 359.5 758.5Q389 730 389 687Q389 645 359.5 616.5Q330 588 287 588Q245 588 216 616.5Q187 645 187 687ZM236 687Q236 665 251 650Q266 635 287 635Q309 635 324 650Q339 665 339 687Q339 710 324 725Q309 740 287 740Q265 740 250.5 725Q236 710 236 687ZM288 528Z" glyph-name="uring" horiz-adv-x="582" unicode="&#367;" /><glyph d="M505 0H431L426 71Q403 32 359.5 10.5Q316 -11 258 -11Q174 -11 123 41.5Q72 94 72 178V528H155V197Q155 131 187.5 97Q220 63 283 63Q350 63 385.5 103Q421 143 421 216V528H505ZM288 528ZM452 0ZM360 594Q341 594 324.5 599Q308 604 294 614L257 641Q249 647 240 650Q231 653 223 653Q202 653 190.5 638.5Q179 624 179 598H130Q130 651 154.5 681.5Q179 712 221 712Q238 712 253.5 707Q269 702 282 692L318 666Q327 660 338.5 655.5Q350 651 358 651Q379 651 389 665Q399 679 399 708H447Q447 653 424.5 623.5Q402 594 360 594ZM288 528Z" glyph-name="utilde" horiz-adv-x="582" unicode="&#361;" /><glyph d="M300 0H218L24 528H111L261 101L409 528H493Z" glyph-name="v" horiz-adv-x="517" unicode="v" /><glyph d="M263 0H181L30 528H116L228 101L359 528H443L574 101L686 528H769L618 0H535L399 418ZM405 528Z" glyph-name="w" horiz-adv-x="799" unicode="w" /><glyph d="M263 0H181L30 528H116L228 101L359 528H443L574 101L686 528H769L618 0H535L399 418ZM405 528ZM443 739H535L436 598H368ZM405 528Z" glyph-name="wacute" horiz-adv-x="799" unicode="&#7811;" /><glyph d="M263 0H181L30 528H116L228 101L359 528H443L574 101L686 528H769L618 0H535L399 418ZM405 528ZM472 598 405 696H404L337 598H271L365 739H444L538 598ZM405 528Z" glyph-name="wcircumflex" horiz-adv-x="799" unicode="&#373;" /><glyph d="M263 0H181L30 528H116L228 101L359 528H443L574 101L686 528H769L618 0H535L399 418ZM405 528ZM375 711V630H298V711ZM511 711V630H434V711ZM405 528Z" glyph-name="wdieresis" horiz-adv-x="799" unicode="&#7813;" /><glyph d="M263 0H181L30 528H116L228 101L359 528H443L574 101L686 528H769L618 0H535L399 418ZM405 528ZM441 598H372L274 739H365ZM405 528Z" glyph-name="wgrave" horiz-adv-x="799" unicode="&#7809;" /><glyph d="M488 0H394L247 214L109 0H19L204 269L29 528H121L257 327L393 528H480L300 272Z" glyph-name="x" horiz-adv-x="508" unicode="x" /><glyph d="M495 528 231 -180H151L219 2L26 528H114L259 110L412 528ZM266 528Z" glyph-name="y" horiz-adv-x="516" unicode="y" /><glyph d="M495 528 231 -180H151L219 2L26 528H114L259 110L412 528ZM266 528ZM304 739H396L297 598H229ZM266 528Z" glyph-name="yacute" horiz-adv-x="516" unicode="&#253;" /><glyph d="M495 528 231 -180H151L219 2L26 528H114L259 110L412 528ZM266 528ZM333 598 266 696H265L198 598H132L226 739H305L399 598ZM266 528Z" glyph-name="ycircumflex" horiz-adv-x="516" unicode="&#375;" /><glyph d="M495 528 231 -180H151L219 2L26 528H114L259 110L412 528ZM266 528ZM236 711V630H159V711ZM372 711V630H295V711ZM266 528Z" glyph-name="ydieresis" horiz-adv-x="516" unicode="&#255;" /><glyph d="M496 223V160H335V0H248V160H86V223H248V262L239 280H86V343H207L25 700H122L291 347L466 700H558L374 343H496V280H341L335 268V223Z" glyph-name="yen" horiz-adv-x="583" unicode="&#165;" /><glyph d="M495 528 231 -180H151L219 2L26 528H114L259 110L412 528ZM266 528ZM302 598H233L135 739H226ZM266 528Z" glyph-name="ygrave" horiz-adv-x="516" unicode="&#7923;" /><glyph d="M53 463V528H444V468L143 65H456V0H40V61L341 463ZM248 528Z" glyph-name="z" horiz-adv-x="497" unicode="z" /><glyph d="M53 463V528H444V468L143 65H456V0H40V61L341 463ZM248 528ZM286 739H378L279 598H211ZM248 528Z" glyph-name="zacute" horiz-adv-x="497" unicode="&#378;" /><glyph d="M53 463V528H444V468L143 65H456V0H40V61L341 463ZM248 528ZM180 739 247 641H248L315 739H381L287 598H208L114 739ZM248 528Z" glyph-name="zcaron" horiz-adv-x="497" unicode="&#382;" /><glyph d="M53 463V528H444V468L143 65H456V0H40V61L341 463ZM248 528ZM293 723V633H203V723ZM248 528Z" glyph-name="zdotaccent" horiz-adv-x="497" unicode="&#380;" /><glyph d="M550 224V476Q550 584 487 647.5Q424 711 309 711Q195 711 132 647.5Q69 584 69 476V224Q69 116 132 52.5Q195 -11 309 -11Q424 -11 487 52Q550 115 550 224ZM309 634Q382 634 422.5 590.5Q463 547 463 472V228Q463 153 422.5 109.5Q382 66 309 66Q236 66 196 110Q156 154 156 228V472Q156 546 196 590Q236 634 309 634Z" glyph-name="zero" horiz-adv-x="619" unicode="0" /><glyph d="M164 -6Q226 -6 260 29Q294 64 294 121V229Q294 286 260 321Q226 356 164 356Q103 356 69 321.5Q35 287 35 229V121Q35 63 69 28.5Q103 -6 164 -6ZM164 297Q192 297 207.5 278.5Q223 260 223 227V123Q223 90 208 72Q193 54 164 54Q136 54 120.5 72.5Q105 91 105 123V227Q105 259 120.5 278Q136 297 164 297Z" glyph-name="zero.denominator" horiz-adv-x="329" unicode="&#63061;" /><glyph d="M164 -146Q226 -146 260 -111Q294 -76 294 -19V89Q294 146 260 181Q226 216 164 216Q103 216 69 181.5Q35 147 35 89V-19Q35 -77 69 -111.5Q103 -146 164 -146ZM164 157Q192 157 207.5 138.5Q223 120 223 87V-17Q223 -50 208 -68Q193 -86 164 -86Q136 -86 120.5 -67.5Q105 -49 105 -17V87Q105 119 120.5 138Q136 157 164 157Z" glyph-name="zero.inferior" horiz-adv-x="329" unicode="&#8320;" /><glyph d="M164 344Q226 344 260 379Q294 414 294 471V579Q294 636 260 671Q226 706 164 706Q103 706 69 671.5Q35 637 35 579V471Q35 413 69 378.5Q103 344 164 344ZM164 647Q192 647 207.5 628.5Q223 610 223 577V473Q223 440 208 422Q193 404 164 404Q136 404 120.5 422.5Q105 441 105 473V577Q105 609 120.5 628Q136 647 164 647Z" glyph-name="zero.numerator" horiz-adv-x="329" unicode="&#63073;" /><glyph d="M164 484Q226 484 260 519Q294 554 294 611V719Q294 776 260 811Q226 846 164 846Q103 846 69 811.5Q35 777 35 719V611Q35 553 69 518.5Q103 484 164 484ZM164 787Q192 787 207.5 768.5Q223 750 223 717V613Q223 580 208 562Q193 544 164 544Q136 544 120.5 562.5Q105 581 105 613V717Q105 749 120.5 768Q136 787 164 787Z" glyph-name="zero.superior" horiz-adv-x="329" unicode="&#8304;" /><glyph d="M545 224V476Q545 584 482 647.5Q419 711 304 711Q190 711 127 647.5Q64 584 64 476V224Q64 116 127 52.5Q190 -11 304 -11Q419 -11 482 52Q545 115 545 224ZM304 634Q377 634 417.5 590.5Q458 547 458 472V228Q458 153 417.5 109.5Q377 66 304 66Q231 66 191 110Q151 154 151 228V472Q151 546 191 590Q231 634 304 634Z" glyph-name="zero.tab" horiz-adv-x="609" unicode="&#65296;" /></font>
</defs>
</svg>
